<?xml version="1.0" encoding="UTF-8"?>
<svg id="Warstwa_1" data-name="Warstwa 1" xmlns="http://www.w3.org/2000/svg" xmlns:xlink="http://www.w3.org/1999/xlink" viewBox="0 0 903.81 240">
  <defs>
    <style>
      .cls-1 {
        fill: none;
      }

      .cls-2 {
        clip-path: url(#clippath);
      }

      .cls-3 {
        fill: #fff;
      }

      .cls-4 {
        fill: #fbb9e4;
      }

      .cls-5 {
        clip-path: url(#clippath-1);
      }

      .cls-6 {
        clip-path: url(#clippath-4);
      }

      .cls-7 {
        clip-path: url(#clippath-3);
      }

      .cls-8 {
        clip-path: url(#clippath-2);
      }

      .cls-9 {
        clip-path: url(#clippath-5);
      }

      .cls-10 {
        fill: url(#Gradient_bez_nazwy_20-3);
      }

      .cls-11 {
        fill: url(#Gradient_bez_nazwy_20-2);
      }

      .cls-12 {
        fill: url(#Gradient_bez_nazwy_11-6);
      }

      .cls-13 {
        fill: url(#Gradient_bez_nazwy_11-5);
      }

      .cls-14 {
        fill: url(#Gradient_bez_nazwy_11-2);
      }

      .cls-15 {
        fill: url(#Gradient_bez_nazwy_11-3);
      }

      .cls-16 {
        fill: url(#Gradient_bez_nazwy_11-4);
      }

      .cls-17 {
        fill: url(#Gradient_bez_nazwy_23-3);
      }

      .cls-18 {
        fill: url(#Gradient_bez_nazwy_23-4);
      }

      .cls-19 {
        fill: url(#Gradient_bez_nazwy_23-6);
      }

      .cls-20 {
        fill: url(#Gradient_bez_nazwy_23-2);
      }

      .cls-21 {
        fill: url(#Gradient_bez_nazwy_23-5);
      }

      .cls-22 {
        fill: url(#Gradient_bez_nazwy_23);
      }

      .cls-23 {
        fill: url(#Gradient_bez_nazwy_20);
      }

      .cls-24 {
        fill: url(#Gradient_bez_nazwy_11);
      }
    </style>
    <clipPath id="clippath">
      <rect class="cls-1" y="257.32" width="864.07" height="240"/>
    </clipPath>
    <radialGradient id="Gradient_bez_nazwy_20" data-name="Gradient bez nazwy 20" cx="594.24" cy="2385.64" fx="594.24" fy="2385.64" r="726.97" gradientTransform="translate(0 -200.25) scale(.45 .22)" gradientUnits="userSpaceOnUse">
      <stop offset="0" stop-color="#ffc1c3"/>
      <stop offset="1" stop-color="#ffc1c3" stop-opacity="0"/>
    </radialGradient>
    <radialGradient id="Gradient_bez_nazwy_23" data-name="Gradient bez nazwy 23" cx="1613.18" cy="2059.05" fx="1613.18" fy="2059.05" r="624.11" gradientTransform="translate(0 -200.25) scale(.45 .22)" gradientUnits="userSpaceOnUse">
      <stop offset="0" stop-color="#d79cdd"/>
      <stop offset="1" stop-color="#d79cdc" stop-opacity="0"/>
    </radialGradient>
    <clipPath id="clippath-1">
      <rect class="cls-1" y="-257.46" width="864.07" height="240"/>
    </clipPath>
    <radialGradient id="Gradient_bez_nazwy_11" data-name="Gradient bez nazwy 11" cx="1231.04" cy="289.86" fx="1231.04" fy="289.86" r="624.11" gradientTransform="translate(0 -200.25) scale(.45 .22)" gradientUnits="userSpaceOnUse">
      <stop offset="0" stop-color="#bab8ed"/>
      <stop offset="1" stop-color="#bab8ed" stop-opacity="0"/>
    </radialGradient>
    <radialGradient id="Gradient_bez_nazwy_11-2" data-name="Gradient bez nazwy 11" cx="1603.06" cy="937.42" fx="1603.06" fy="937.42" r="738.99" xlink:href="#Gradient_bez_nazwy_11"/>
    <radialGradient id="Gradient_bez_nazwy_23-2" data-name="Gradient bez nazwy 23" cx="-100.81" cy="840.78" fx="-100.81" fy="840.78" xlink:href="#Gradient_bez_nazwy_23"/>
    <clipPath id="clippath-2">
      <rect class="cls-1" x="663.81" y="0" width="240" height="240"/>
    </clipPath>
    <clipPath id="clippath-3">
      <rect class="cls-1" x="202.81" y="0" width="864.07" height="240"/>
    </clipPath>
    <radialGradient id="Gradient_bez_nazwy_20-2" data-name="Gradient bez nazwy 20" cx="1044.89" cy="1227.72" fx="1044.89" fy="1227.72" r="726.97" xlink:href="#Gradient_bez_nazwy_20"/>
    <radialGradient id="Gradient_bez_nazwy_11-3" data-name="Gradient bez nazwy 11" cx="1681.69" cy="1448.45" fx="1681.69" fy="1448.45" xlink:href="#Gradient_bez_nazwy_11"/>
    <radialGradient id="Gradient_bez_nazwy_11-4" data-name="Gradient bez nazwy 11" cx="2053.71" cy="2096" fx="2053.71" fy="2096" r="738.99" xlink:href="#Gradient_bez_nazwy_11"/>
    <radialGradient id="Gradient_bez_nazwy_23-3" data-name="Gradient bez nazwy 23" cx="2063.83" cy="901.12" fx="2063.83" fy="901.12" r="624.11" xlink:href="#Gradient_bez_nazwy_23"/>
    <radialGradient id="Gradient_bez_nazwy_23-4" data-name="Gradient bez nazwy 23" cx="349.85" cy="1999.37" fx="349.85" fy="1999.37" r="624.11" xlink:href="#Gradient_bez_nazwy_23"/>
    <clipPath id="clippath-4">
      <rect class="cls-1" x="1.44" y="0" width="395.56" height="240"/>
    </clipPath>
    <clipPath id="clippath-5">
      <rect class="cls-1" y="0" width="864.07" height="240"/>
    </clipPath>
    <radialGradient id="Gradient_bez_nazwy_20-3" data-name="Gradient bez nazwy 20" cy="1227.72" fy="1227.72" xlink:href="#Gradient_bez_nazwy_20"/>
    <radialGradient id="Gradient_bez_nazwy_11-5" data-name="Gradient bez nazwy 11" cy="1448.45" fy="1448.45" xlink:href="#Gradient_bez_nazwy_11"/>
    <radialGradient id="Gradient_bez_nazwy_11-6" data-name="Gradient bez nazwy 11" cx="1603.06" cy="2096" fx="1603.06" fy="2096" r="738.99" xlink:href="#Gradient_bez_nazwy_11"/>
    <radialGradient id="Gradient_bez_nazwy_23-5" data-name="Gradient bez nazwy 23" cx="1613.18" cy="901.12" fx="1613.18" fy="901.12" r="624.11" xlink:href="#Gradient_bez_nazwy_23"/>
    <radialGradient id="Gradient_bez_nazwy_23-6" data-name="Gradient bez nazwy 23" cx="-100.81" cy="1999.37" fx="-100.81" fy="1999.37" xlink:href="#Gradient_bez_nazwy_23"/>
  </defs>
  <g class="cls-2">
    <rect class="cls-23" x="-59.74" y="168.34" width="654.33" height="323.1"/>
    <rect class="cls-22" x="445.12" y="118.63" width="561.74" height="277.38"/>
  </g>
  <g class="cls-5">
    <rect class="cls-24" x="273.14" y="-274.53" width="561.74" height="277.38"/>
    <rect class="cls-14" x="388.86" y="-156.15" width="665.14" height="328.44"/>
    <rect class="cls-20" x="-326.24" y="-152.1" width="561.74" height="277.38"/>
  </g>
  <path class="cls-3" d="M574.34,180.86c.81-1.08,1.6-2.21,2.37-3.38,3.67-5.62,6.54-12.21,8.61-19.79,2.06-7.58,3.09-16.1,3.09-25.57h-26.66c0,7.7-1.31,14.73-3.93,21.07-.81,1.96-1.7,3.84-2.68,5.64l-25.5-29.25,9.07-6.53c6.5-4.68,11.55-9.98,15.15-15.9,3.6-5.91,5.4-12.52,5.4-19.82,0-6.6-1.63-12.66-4.87-18.17-3.25-5.52-7.89-9.95-13.9-13.3-6.02-3.34-13.16-5.02-21.42-5.02s-15.86,1.75-22.21,5.25c-6.34,3.5-11.26,8.25-14.76,14.24s-5.25,12.74-5.25,20.24c0,6.65,1.33,12.81,4,18.47,2.67,5.67,6.01,11.01,10.01,16.02,.26,.33,.52,.66,.79,.98-5.49,3.79-10.32,7.59-14.5,11.4-4.33,3.96-7.7,8.27-10.12,12.96-2.42,4.68-3.63,10.04-3.63,16.09,0,8.11,2.08,15.44,6.23,22.02,4.16,6.57,10.11,11.77,17.87,15.59,7.75,3.83,16.97,5.74,27.64,5.74,6.9,0,13.89-1.03,20.97-3.09,6.83-2,13.04-5.19,18.63-9.58l9.35,10.41h33.54l-23.29-26.72Zm-68.07-96.9c1.23-2.14,2.96-3.87,5.17-5.21,2.22-1.33,4.84-2,7.86-2,4.53-.05,8.03,1.23,10.5,3.85,2.47,2.62,3.7,5.47,3.7,8.54,0,3.22-.91,6.2-2.72,8.95-1.81,2.74-4.66,5.35-8.53,7.82l-8.06,5.3c-2.93-3.61-5.28-7.04-7.05-10.29-1.82-3.32-2.72-6.59-2.72-9.82,0-2.62,.61-5,1.85-7.14Zm26.59,96.31c-5.32,2.5-10.69,3.74-16.13,3.74-4.48,0-8.38-.84-11.71-2.53-3.32-1.69-5.89-3.99-7.7-6.91s-2.72-6.22-2.72-9.9c0-2.97,1.02-6.08,3.06-9.32,2.04-3.25,5.2-6.44,9.48-9.56l.89-.64,29.35,32.68c-1.47,.9-2.97,1.71-4.52,2.44Z"/>
  <g class="cls-8">
    <g>
      <rect class="cls-4" x="202.81" y="0" width="864.07" height="240"/>
      <g class="cls-7">
        <rect class="cls-11" x="143.07" y="-88.97" width="654.33" height="323.1"/>
        <rect class="cls-15" x="475.95" y="-17.06" width="561.74" height="277.38"/>
        <rect class="cls-16" x="591.67" y="101.31" width="665.14" height="328.44"/>
        <rect class="cls-17" x="647.93" y="-138.69" width="561.74" height="277.38"/>
        <rect class="cls-18" x="-123.43" y="105.36" width="561.74" height="277.38"/>
      </g>
    </g>
  </g>
  <g class="cls-6">
    <g>
      <rect class="cls-4" y="0" width="864.07" height="240"/>
      <g class="cls-9">
        <rect class="cls-10" x="-59.74" y="-88.97" width="654.33" height="323.1"/>
        <rect class="cls-13" x="273.14" y="-17.06" width="561.74" height="277.38"/>
        <rect class="cls-12" x="388.86" y="101.31" width="665.14" height="328.44"/>
        <rect class="cls-21" x="445.12" y="-138.69" width="561.74" height="277.38"/>
        <rect class="cls-19" x="-326.24" y="105.36" width="561.74" height="277.38"/>
      </g>
    </g>
  </g>
  <g>
    <path class="cls-3" d="M67.6,82.58h21.5v81.35c0,5.99-1.18,10.83-3.53,14.54-2.36,3.7-5.73,6.41-10.12,8.12s-9.63,2.57-15.72,2.57c-.74,0-1.46,0-2.15-.03-.69-.02-1.42-.04-2.2-.08v-16.81c.57,.03,1.07,.06,1.49,.08,.42,.02,.87,.03,1.34,.03,3.46,0,5.9-.73,7.29-2.2,1.4-1.46,2.09-3.66,2.09-6.59V82.58Zm10.7-9.99c-3.16,0-5.89-1.07-8.18-3.2-2.29-2.14-3.43-4.7-3.43-7.7s1.14-5.51,3.43-7.65c2.29-2.14,5.01-3.2,8.18-3.2s5.98,1.07,8.25,3.2c2.27,2.14,3.41,4.69,3.41,7.65s-1.14,5.56-3.41,7.7c-2.27,2.14-5.02,3.2-8.25,3.2Z"/>
    <path class="cls-3" d="M128.36,161.56c-4.95,0-9.35-.87-13.22-2.6-3.87-1.73-6.92-4.31-9.16-7.72-2.24-3.42-3.36-7.68-3.36-12.79,0-4.31,.79-7.92,2.37-10.85,1.58-2.93,3.73-5.28,6.46-7.07s5.83-3.13,9.31-4.04c3.48-.91,7.14-1.55,10.98-1.92,4.51-.47,8.14-.92,10.9-1.34,2.76-.42,4.76-1.05,6.01-1.89,1.24-.84,1.87-2.09,1.87-3.73v-.3c0-3.2-1-5.67-3-7.42-2-1.75-4.84-2.62-8.5-2.62-3.87,0-6.95,.85-9.24,2.55-2.29,1.7-3.8,3.83-4.54,6.38l-19.88-1.62c1.01-4.71,2.99-8.79,5.96-12.24,2.96-3.45,6.79-6.11,11.48-7.97,4.69-1.87,10.14-2.8,16.33-2.8,4.31,0,8.44,.5,12.39,1.51,3.95,1.01,7.47,2.57,10.55,4.69,3.08,2.12,5.51,4.84,7.29,8.15,1.78,3.31,2.67,7.28,2.67,11.88v52.28h-20.39v-10.75h-.61c-1.25,2.42-2.91,4.55-5,6.38-2.09,1.83-4.59,3.26-7.52,4.29-2.93,1.03-6.31,1.54-10.14,1.54Zm6.16-14.84c3.16,0,5.96-.63,8.38-1.89,2.42-1.26,4.32-2.97,5.7-5.12,1.38-2.15,2.07-4.59,2.07-7.32v-8.23c-.67,.44-1.59,.83-2.75,1.19s-2.46,.67-3.91,.96c-1.45,.29-2.89,.54-4.34,.76-1.45,.22-2.76,.41-3.94,.58-2.52,.37-4.73,.96-6.61,1.77-1.88,.81-3.35,1.89-4.39,3.25-1.04,1.36-1.56,3.05-1.56,5.07,0,2.93,1.07,5.16,3.2,6.69,2.14,1.53,4.85,2.3,8.15,2.3Z"/>
    <path class="cls-3" d="M258.16,82.58l-27.1,77.52h-24.22l-27.1-77.52h22.71l16.1,55.46h.81l16.05-55.46h22.76Z"/>
    <path class="cls-3" d="M289.1,161.56c-4.95,0-9.35-.87-13.22-2.6-3.87-1.73-6.92-4.31-9.16-7.72-2.24-3.42-3.36-7.68-3.36-12.79,0-4.31,.79-7.92,2.37-10.85,1.58-2.93,3.73-5.28,6.46-7.07s5.83-3.13,9.31-4.04c3.48-.91,7.14-1.55,10.98-1.92,4.51-.47,8.14-.92,10.9-1.34,2.76-.42,4.76-1.05,6.01-1.89,1.24-.84,1.87-2.09,1.87-3.73v-.3c0-3.2-1-5.67-3-7.42-2-1.75-4.84-2.62-8.5-2.62-3.87,0-6.95,.85-9.24,2.55-2.29,1.7-3.8,3.83-4.54,6.38l-19.88-1.62c1.01-4.71,2.99-8.79,5.96-12.24,2.96-3.45,6.79-6.11,11.48-7.97,4.69-1.87,10.14-2.8,16.33-2.8,4.31,0,8.44,.5,12.39,1.51,3.95,1.01,7.47,2.57,10.55,4.69,3.08,2.12,5.51,4.84,7.29,8.15,1.78,3.31,2.67,7.28,2.67,11.88v52.28h-20.39v-10.75h-.61c-1.25,2.42-2.91,4.55-5,6.38-2.09,1.83-4.59,3.26-7.52,4.29-2.93,1.03-6.31,1.54-10.14,1.54Zm6.16-14.84c3.16,0,5.96-.63,8.38-1.89,2.42-1.26,4.32-2.97,5.7-5.12,1.38-2.15,2.07-4.59,2.07-7.32v-8.23c-.67,.44-1.59,.83-2.75,1.19s-2.46,.67-3.91,.96c-1.45,.29-2.89,.54-4.34,.76-1.45,.22-2.76,.41-3.94,.58-2.52,.37-4.73,.96-6.61,1.77-1.88,.81-3.35,1.89-4.39,3.25-1.04,1.36-1.56,3.05-1.56,5.07,0,2.93,1.07,5.16,3.2,6.69,2.14,1.53,4.85,2.3,8.15,2.3Z"/>
  </g>
  <g>
    <path class="cls-3" d="M737.46,82.58h21.5v81.35c0,5.99-1.18,10.83-3.53,14.54-2.36,3.7-5.73,6.41-10.12,8.12s-9.63,2.57-15.72,2.57c-.74,0-1.46,0-2.15-.03-.69-.02-1.42-.04-2.2-.08v-16.81c.57,.03,1.07,.06,1.49,.08,.42,.02,.87,.03,1.34,.03,3.46,0,5.9-.73,7.29-2.2,1.4-1.46,2.09-3.66,2.09-6.59V82.58Zm10.7-9.99c-3.16,0-5.89-1.07-8.18-3.2-2.29-2.14-3.43-4.7-3.43-7.7s1.14-5.51,3.43-7.65c2.29-2.14,5.01-3.2,8.18-3.2s5.98,1.07,8.25,3.2c2.27,2.14,3.41,4.69,3.41,7.65s-1.14,5.56-3.41,7.7c-2.27,2.14-5.02,3.2-8.25,3.2Z"/>
    <path class="cls-3" d="M840.61,104.68l-19.68,1.21c-.34-1.68-1.06-3.2-2.17-4.57-1.11-1.36-2.57-2.46-4.37-3.28-1.8-.82-3.94-1.24-6.43-1.24-3.33,0-6.14,.7-8.43,2.09-2.29,1.4-3.43,3.25-3.43,5.58,0,1.85,.74,3.42,2.22,4.69,1.48,1.28,4.02,2.3,7.62,3.08l14.03,2.83c7.54,1.55,13.15,4.04,16.86,7.47,3.7,3.43,5.55,7.94,5.55,13.52,0,5.08-1.49,9.54-4.47,13.37-2.98,3.84-7.05,6.82-12.21,8.96-5.17,2.14-11.11,3.2-17.84,3.2-10.26,0-18.43-2.14-24.5-6.43-6.07-4.29-9.63-10.13-10.67-17.54l21.15-1.11c.64,3.13,2.19,5.51,4.64,7.14,2.46,1.63,5.6,2.45,9.44,2.45s6.8-.73,9.11-2.2c2.3-1.46,3.47-3.36,3.51-5.68-.03-1.95-.86-3.56-2.47-4.82-1.62-1.26-4.11-2.23-7.47-2.9l-13.42-2.67c-7.57-1.51-13.2-4.14-16.88-7.87-3.68-3.73-5.53-8.5-5.53-14.28,0-4.98,1.35-9.27,4.06-12.87,2.71-3.6,6.53-6.38,11.46-8.33,4.93-1.95,10.71-2.93,17.34-2.93,9.79,0,17.5,2.07,23.14,6.21,5.64,4.14,8.92,9.77,9.87,16.91Z"/>
  </g>
</svg>