<svg id="Warstwa_1" data-name="Warstwa 1" xmlns="http://www.w3.org/2000/svg" xmlns:xlink="http://www.w3.org/1999/xlink" viewBox="0 0 1741.71 240"><defs><style>.cls-1{fill:#fff;}.cls-2{fill:url(#Gradient_bez_nazwy_58);}.cls-3{fill:url(#Gradient_bez_nazwy_66);}.cls-4{fill:url(#Gradient_bez_nazwy_75);}.cls-5{fill:url(#Gradient_bez_nazwy_83);}.cls-6{fill:url(#Gradient_bez_nazwy_219);}.cls-7{fill:url(#Gradient_bez_nazwy_219-2);}.cls-8{fill:url(#Gradient_bez_nazwy_219-3);}.cls-9{fill:url(#Gradient_bez_nazwy_219-4);}.cls-10{fill:url(#Gradient_bez_nazwy_237);}.cls-11{fill:url(#Gradient_bez_nazwy_236);}.cls-12{fill:url(#Gradient_bez_nazwy_228);}.cls-13{fill:url(#Gradient_bez_nazwy_222);}</style><linearGradient id="Gradient_bez_nazwy_58" x1="818.37" y1="111.93" x2="866.55" y2="111.93" gradientUnits="userSpaceOnUse"><stop offset="0" stop-color="#bdb9ef"/><stop offset="1" stop-color="#e0bcea"/></linearGradient><linearGradient id="Gradient_bez_nazwy_66" x1="875.19" y1="120.93" x2="951.62" y2="120.93" gradientUnits="userSpaceOnUse"><stop offset="0" stop-color="#e8bce9"/><stop offset="1" stop-color="#fac0db"/></linearGradient><linearGradient id="Gradient_bez_nazwy_75" x1="998.68" y1="120.17" x2="1111.5" y2="120.17" gradientUnits="userSpaceOnUse"><stop offset="0" stop-color="#fbc0dd"/><stop offset="1" stop-color="#f9c2d2"/></linearGradient><linearGradient id="Gradient_bez_nazwy_83" x1="1119.49" y1="135.24" x2="1198.04" y2="135.24" gradientUnits="userSpaceOnUse"><stop offset="0" stop-color="#fac0da"/><stop offset="0.55" stop-color="#f8c3cb"/><stop offset="1" stop-color="#f8c3cb"/></linearGradient><linearGradient id="Gradient_bez_nazwy_219" x1="1279.93" y1="80.29" x2="1279.93" y2="188.05" gradientUnits="userSpaceOnUse"><stop offset="0" stop-color="#e5a9d9"/><stop offset="1" stop-color="#f6c1c9"/></linearGradient><linearGradient id="Gradient_bez_nazwy_219-2" x1="1355.64" y1="80.19" x2="1355.64" y2="158.93" xlink:href="#Gradient_bez_nazwy_219"/><linearGradient id="Gradient_bez_nazwy_219-3" x1="1421.69" y1="80.29" x2="1421.69" y2="160.45" xlink:href="#Gradient_bez_nazwy_219"/><linearGradient id="Gradient_bez_nazwy_219-4" x1="1493.62" y1="50.57" x2="1493.62" y2="158.93" xlink:href="#Gradient_bez_nazwy_219"/><linearGradient id="Gradient_bez_nazwy_237" x1="1514.82" y1="95.33" x2="1564.4" y2="144.91" gradientUnits="userSpaceOnUse"><stop offset="0" stop-color="#e5a9d9"/><stop offset="1" stop-color="#efbde6"/></linearGradient><linearGradient id="Gradient_bez_nazwy_236" x1="1528.03" y1="60.4" x2="1551.28" y2="60.4" gradientUnits="userSpaceOnUse"><stop offset="0" stop-color="#e5a9d9"/><stop offset="1" stop-color="#e7b1df"/></linearGradient><linearGradient id="Gradient_bez_nazwy_228" x1="1578.32" y1="55.42" x2="1578.32" y2="158.93" gradientUnits="userSpaceOnUse"><stop offset="0" stop-color="#e5a9d9"/><stop offset="1" stop-color="#ebbde8"/></linearGradient><linearGradient id="Gradient_bez_nazwy_222" x1="1612.48" y1="92.28" x2="1670.06" y2="149.86" gradientUnits="userSpaceOnUse"><stop offset="0" stop-color="#e5a9d9"/><stop offset="1" stop-color="#ddbcea"/></linearGradient></defs><image width="3629" height="1000" transform="scale(0.24)" xlink:href="tbotprzemek1.png"/><image width="3630" height="1000" transform="translate(870.72) scale(0.24)" xlink:href="tbotprzemek2.png"/><polygon class="cls-1" points="148.02 132.94 147.36 132.94 134.62 81.08 113.24 81.08 100.7 133.24 100 133.24 87.97 81.08 66.18 81.08 87.31 158.72 110.06 158.72 123.4 109.89 124.36 109.89 137.71 158.72 160.5 158.72 181.58 81.08 159.84 81.08 148.02 132.94"/><path class="cls-1" d="M251.56,89.87a32.34,32.34,0,0,0-11.62-7.35,41,41,0,0,0-14.33-2.45,38,38,0,0,0-19.89,5.05,34.3,34.3,0,0,0-13.12,14.1,45.44,45.44,0,0,0-4.65,21q0,12.28,4.65,21.26a33,33,0,0,0,13.27,13.85q8.61,4.88,20.6,4.88a45.19,45.19,0,0,0,16.95-3,31.16,31.16,0,0,0,12-8.29,27.25,27.25,0,0,0,6.19-12.51l-19.92-1.32a13.22,13.22,0,0,1-3.23,5,13.6,13.6,0,0,1-5.11,3,20.21,20.21,0,0,1-6.57,1,18.45,18.45,0,0,1-9.35-2.27,15.41,15.41,0,0,1-6.09-6.47,21.52,21.52,0,0,1-2.15-10v0H262.1v-5.92a49,49,0,0,0-2.78-17.31A33.52,33.52,0,0,0,251.56,89.87Zm-42.3,22.19a17,17,0,0,1,2.14-7.65,16.2,16.2,0,0,1,5.89-6A16.57,16.57,0,0,1,226,96.14a16.29,16.29,0,0,1,8.27,2,14.68,14.68,0,0,1,5.58,5.64,16.43,16.43,0,0,1,2,8.23Z"/><rect class="cls-1" x="276.15" y="55.2" width="21.53" height="103.52"/><path class="cls-1" d="M341.49,99.55a14.41,14.41,0,0,1,8.72-2.7,13.16,13.16,0,0,1,9.57,3.56,15.93,15.93,0,0,1,4.53,9.38h20.32a30.47,30.47,0,0,0-4.9-15.67,29.77,29.77,0,0,0-12.09-10.36,40.38,40.38,0,0,0-17.79-3.69q-11.78,0-20.32,5.08a34.27,34.27,0,0,0-13.17,14.1,45.38,45.38,0,0,0-4.62,21A45.56,45.56,0,0,0,316.31,141a33.79,33.79,0,0,0,13.15,14.13q8.57,5.07,20.49,5.08a39.82,39.82,0,0,0,17.95-3.79,29.52,29.52,0,0,0,11.9-10.54,31.9,31.9,0,0,0,4.83-15.65H364.31a17,17,0,0,1-2.55,7,13,13,0,0,1-4.91,4.42,14.21,14.21,0,0,1-6.64,1.52,14.44,14.44,0,0,1-8.75-2.73,17.43,17.43,0,0,1-5.79-7.93,34.73,34.73,0,0,1-2-12.64,33.56,33.56,0,0,1,2.07-12.49A17.51,17.51,0,0,1,341.49,99.55Z"/><path class="cls-1" d="M453.9,85.1q-8.56-5-20.34-5t-20.35,5A34,34,0,0,0,400,99.15a45.32,45.32,0,0,0-4.65,21,45.08,45.08,0,0,0,4.65,21,34.1,34.1,0,0,0,13.22,14.06q8.58,5,20.35,5t20.34-5a34,34,0,0,0,13.22-14.06,45.08,45.08,0,0,0,4.65-21,45.32,45.32,0,0,0-4.65-21A33.89,33.89,0,0,0,453.9,85.1Zm-5.86,47a18.84,18.84,0,0,1-5.43,8.37,13.33,13.33,0,0,1-8.95,3.06,13.66,13.66,0,0,1-9.07-3.06,18.47,18.47,0,0,1-5.51-8.37,40.36,40.36,0,0,1,0-24.16,18.59,18.59,0,0,1,5.51-8.39,13.57,13.57,0,0,1,9.07-3.08,13.25,13.25,0,0,1,8.95,3.08A19,19,0,0,1,448,108a40.36,40.36,0,0,1,0,24.16Z"/><path class="cls-1" d="M574.18,80.07a26.7,26.7,0,0,0-14.78,4,20.69,20.69,0,0,0-8.62,10.69H550A18.9,18.9,0,0,0,542.49,84a25.26,25.26,0,0,0-27.14,0,21.54,21.54,0,0,0-8.09,10.77h-.91V81.08H485.83v77.64h21.53V112.11a16,16,0,0,1,1.67-7.5,12.7,12.7,0,0,1,4.52-5A11.9,11.9,0,0,1,520,97.81a11.33,11.33,0,0,1,8.56,3.39c2.18,2.25,3.26,5.29,3.26,9.09v48.43H552.7V111.31a14.24,14.24,0,0,1,3.29-9.79q3.28-3.7,9.15-3.71a12.08,12.08,0,0,1,8.59,3.23q3.43,3.24,3.44,9.71v48h21.48V106.5q0-12.63-6.8-19.53T574.18,80.07Z"/><path class="cls-1" d="M676.11,89.87a32.34,32.34,0,0,0-11.62-7.35,41,41,0,0,0-14.33-2.45,38,38,0,0,0-19.89,5.05,34.3,34.3,0,0,0-13.12,14.1,45.44,45.44,0,0,0-4.65,21q0,12.28,4.65,21.26a33,33,0,0,0,13.27,13.85q8.61,4.88,20.6,4.88a45.19,45.19,0,0,0,17-3A31,31,0,0,0,680,149a27.17,27.17,0,0,0,6.2-12.51l-19.92-1.32a13.22,13.22,0,0,1-3.23,5,13.6,13.6,0,0,1-5.11,3,20.21,20.21,0,0,1-6.57,1,18.45,18.45,0,0,1-9.35-2.27,15.41,15.41,0,0,1-6.09-6.47,21.52,21.52,0,0,1-2.15-10v0h52.87v-5.92a49.26,49.26,0,0,0-2.78-17.31A33.52,33.52,0,0,0,676.11,89.87Zm-42.3,22.19a17,17,0,0,1,2.14-7.65,16.2,16.2,0,0,1,5.89-6,16.57,16.57,0,0,1,8.67-2.25,16.22,16.22,0,0,1,8.26,2,14.64,14.64,0,0,1,5.59,5.64,16.43,16.43,0,0,1,2,8.23Z"/><rect class="cls-1" x="752.83" y="-19" width="998.17" height="278"/><path class="cls-2" d="M863.16,142.52l-2.33.43a17.25,17.25,0,0,1-3,.28,10.22,10.22,0,0,1-3.82-.66,5,5,0,0,1-2.55-2.3,9.72,9.72,0,0,1-.91-4.62V98h14.61V81.86H850.52V63.26H829v18.6H818.37V98H829v40.44c0,5.08,1,9.3,3.18,12.63a19,19,0,0,0,9.08,7.38,31.2,31.2,0,0,0,11.88,2.11c.57,0,1.15,0,1.74,0a37.6,37.6,0,0,0,7.13-.83c2-.45,3.47-.85,4.55-1.19Zm-1.39,16.24a38,38,0,0,1-6.94.81l-1.7,0a30.5,30.5,0,0,1-11.51-2,18.22,18.22,0,0,1-8.61-7c-2-3.15-3-7.22-3-12.09V97H819.37V82.86H830V64.26h19.53v18.6h14.61V97H849.52v38.61a10.4,10.4,0,0,0,1,5.1,6,6,0,0,0,3.05,2.75,11.35,11.35,0,0,0,4.19.73,17.36,17.36,0,0,0,3.21-.3l1.37-.25,3,14.17C864.42,158.12,863.21,158.42,861.77,158.76Z"/><path class="cls-3" d="M928.83,108.42a20.06,20.06,0,0,0-5.73-8.82,14.28,14.28,0,0,0-9.6-3.32,14.63,14.63,0,0,0-9.71,3.32,19.71,19.71,0,0,0-5.81,8.82,41.48,41.48,0,0,0,0,24.82,19.56,19.56,0,0,0,5.81,8.81,14.75,14.75,0,0,0,9.71,3.29,14.35,14.35,0,0,0,9.6-3.3,19.76,19.76,0,0,0,5.73-8.8,41.48,41.48,0,0,0,0-24.82Zm-.94,24.5a19,19,0,0,1-5.44,8.36,13.3,13.3,0,0,1-9,3.06,13.67,13.67,0,0,1-9.07-3.06,18.57,18.57,0,0,1-5.51-8.36,40.61,40.61,0,0,1,0-24.17,18.78,18.78,0,0,1,5.51-8.39,13.64,13.64,0,0,1,9.07-3.08,13.26,13.26,0,0,1,9,3.08,19.18,19.18,0,0,1,5.44,8.39,40.61,40.61,0,0,1,0,24.17Zm.94-24.5a20.06,20.06,0,0,0-5.73-8.82,14.28,14.28,0,0,0-9.6-3.32,14.63,14.63,0,0,0-9.71,3.32,19.71,19.71,0,0,0-5.81,8.82,41.48,41.48,0,0,0,0,24.82,19.56,19.56,0,0,0,5.81,8.81,14.75,14.75,0,0,0,9.71,3.29,14.35,14.35,0,0,0,9.6-3.3,19.76,19.76,0,0,0,5.73-8.8,41.48,41.48,0,0,0,0-24.82Zm-.94,24.5a19,19,0,0,1-5.44,8.36,13.3,13.3,0,0,1-9,3.06,13.67,13.67,0,0,1-9.07-3.06,18.57,18.57,0,0,1-5.51-8.36,40.61,40.61,0,0,1,0-24.17,18.78,18.78,0,0,1,5.51-8.39,13.64,13.64,0,0,1,9.07-3.08,13.26,13.26,0,0,1,9,3.08,19.18,19.18,0,0,1,5.44,8.39,40.61,40.61,0,0,1,0,24.17Zm.94-24.5a20.06,20.06,0,0,0-5.73-8.82,14.28,14.28,0,0,0-9.6-3.32,14.63,14.63,0,0,0-9.71,3.32,19.71,19.71,0,0,0-5.81,8.82,41.48,41.48,0,0,0,0,24.82,19.56,19.56,0,0,0,5.81,8.81,14.75,14.75,0,0,0,9.71,3.29,14.35,14.35,0,0,0,9.6-3.3,19.76,19.76,0,0,0,5.73-8.8,41.48,41.48,0,0,0,0-24.82Zm-.94,24.5a19,19,0,0,1-5.44,8.36,13.3,13.3,0,0,1-9,3.06,13.67,13.67,0,0,1-9.07-3.06,18.57,18.57,0,0,1-5.51-8.36,40.61,40.61,0,0,1,0-24.17,18.78,18.78,0,0,1,5.51-8.39,13.64,13.64,0,0,1,9.07-3.08,13.26,13.26,0,0,1,9,3.08,19.18,19.18,0,0,1,5.44,8.39,40.61,40.61,0,0,1,0,24.17Zm.94-24.5a20.06,20.06,0,0,0-5.73-8.82,14.28,14.28,0,0,0-9.6-3.32,14.63,14.63,0,0,0-9.71,3.32,19.71,19.71,0,0,0-5.81,8.82,41.48,41.48,0,0,0,0,24.82,19.56,19.56,0,0,0,5.81,8.81,14.75,14.75,0,0,0,9.71,3.29,14.35,14.35,0,0,0,9.6-3.3,19.76,19.76,0,0,0,5.73-8.8,41.48,41.48,0,0,0,0-24.82Zm-.94,24.5a19,19,0,0,1-5.44,8.36,13.3,13.3,0,0,1-9,3.06,13.67,13.67,0,0,1-9.07-3.06,18.57,18.57,0,0,1-5.51-8.36,40.61,40.61,0,0,1,0-24.17,18.78,18.78,0,0,1,5.51-8.39,13.64,13.64,0,0,1,9.07-3.08,13.26,13.26,0,0,1,9,3.08,19.18,19.18,0,0,1,5.44,8.39,40.61,40.61,0,0,1,0,24.17Zm.94-24.5a20.06,20.06,0,0,0-5.73-8.82,14.28,14.28,0,0,0-9.6-3.32,14.63,14.63,0,0,0-9.71,3.32,19.71,19.71,0,0,0-5.81,8.82,41.48,41.48,0,0,0,0,24.82,19.56,19.56,0,0,0,5.81,8.81,14.75,14.75,0,0,0,9.71,3.29,14.35,14.35,0,0,0,9.6-3.3,19.76,19.76,0,0,0,5.73-8.8,41.48,41.48,0,0,0,0-24.82Zm-.94,24.5a19,19,0,0,1-5.44,8.36,13.3,13.3,0,0,1-9,3.06,13.67,13.67,0,0,1-9.07-3.06,18.57,18.57,0,0,1-5.51-8.36,40.61,40.61,0,0,1,0-24.17,18.78,18.78,0,0,1,5.51-8.39,13.64,13.64,0,0,1,9.07-3.08,13.26,13.26,0,0,1,9,3.08,19.18,19.18,0,0,1,5.44,8.39,40.61,40.61,0,0,1,0,24.17Zm.94-24.5a20.06,20.06,0,0,0-5.73-8.82,14.28,14.28,0,0,0-9.6-3.32,14.63,14.63,0,0,0-9.71,3.32,19.71,19.71,0,0,0-5.81,8.82,41.48,41.48,0,0,0,0,24.82,19.56,19.56,0,0,0,5.81,8.81,14.75,14.75,0,0,0,9.71,3.29,14.35,14.35,0,0,0,9.6-3.3,19.76,19.76,0,0,0,5.73-8.8,41.48,41.48,0,0,0,0-24.82Zm-.94,24.5a19,19,0,0,1-5.44,8.36,13.3,13.3,0,0,1-9,3.06,13.67,13.67,0,0,1-9.07-3.06,18.57,18.57,0,0,1-5.51-8.36,40.61,40.61,0,0,1,0-24.17,18.78,18.78,0,0,1,5.51-8.39,13.64,13.64,0,0,1,9.07-3.08,13.26,13.26,0,0,1,9,3.08,19.18,19.18,0,0,1,5.44,8.39,40.61,40.61,0,0,1,0,24.17Zm.94-24.5a20.06,20.06,0,0,0-5.73-8.82,14.28,14.28,0,0,0-9.6-3.32,14.63,14.63,0,0,0-9.71,3.32,19.71,19.71,0,0,0-5.81,8.82,41.48,41.48,0,0,0,0,24.82,19.56,19.56,0,0,0,5.81,8.81,14.75,14.75,0,0,0,9.71,3.29,14.35,14.35,0,0,0,9.6-3.3,19.76,19.76,0,0,0,5.73-8.8,41.48,41.48,0,0,0,0-24.82Zm-.94,24.5a19,19,0,0,1-5.44,8.36,13.3,13.3,0,0,1-9,3.06,13.67,13.67,0,0,1-9.07-3.06,18.57,18.57,0,0,1-5.51-8.36,40.61,40.61,0,0,1,0-24.17,18.78,18.78,0,0,1,5.51-8.39,13.64,13.64,0,0,1,9.07-3.08,13.26,13.26,0,0,1,9,3.08,19.18,19.18,0,0,1,5.44,8.39,40.61,40.61,0,0,1,0,24.17Zm.94-24.5a20.06,20.06,0,0,0-5.73-8.82,14.28,14.28,0,0,0-9.6-3.32,14.63,14.63,0,0,0-9.71,3.32,19.71,19.71,0,0,0-5.81,8.82,41.48,41.48,0,0,0,0,24.82,19.56,19.56,0,0,0,5.81,8.81,14.75,14.75,0,0,0,9.71,3.29,14.35,14.35,0,0,0,9.6-3.3,19.76,19.76,0,0,0,5.73-8.8,41.48,41.48,0,0,0,0-24.82Zm-.94,24.5a19,19,0,0,1-5.44,8.36,13.3,13.3,0,0,1-9,3.06,13.67,13.67,0,0,1-9.07-3.06,18.57,18.57,0,0,1-5.51-8.36,40.61,40.61,0,0,1,0-24.17,18.78,18.78,0,0,1,5.51-8.39,13.64,13.64,0,0,1,9.07-3.08,13.26,13.26,0,0,1,9,3.08,19.18,19.18,0,0,1,5.44,8.39,40.61,40.61,0,0,1,0,24.17Zm.94-24.5a20.06,20.06,0,0,0-5.73-8.82,14.28,14.28,0,0,0-9.6-3.32,14.63,14.63,0,0,0-9.71,3.32,19.71,19.71,0,0,0-5.81,8.82,41.48,41.48,0,0,0,0,24.82,19.56,19.56,0,0,0,5.81,8.81,14.75,14.75,0,0,0,9.71,3.29,14.35,14.35,0,0,0,9.6-3.3,19.76,19.76,0,0,0,5.73-8.8,41.48,41.48,0,0,0,0-24.82Zm-.94,24.5a19,19,0,0,1-5.44,8.36,13.3,13.3,0,0,1-9,3.06,13.67,13.67,0,0,1-9.07-3.06,18.57,18.57,0,0,1-5.51-8.36,40.61,40.61,0,0,1,0-24.17,18.78,18.78,0,0,1,5.51-8.39,13.64,13.64,0,0,1,9.07-3.08,13.26,13.26,0,0,1,9,3.08,19.18,19.18,0,0,1,5.44,8.39,40.61,40.61,0,0,1,0,24.17Zm.94-24.5a20.06,20.06,0,0,0-5.73-8.82,14.28,14.28,0,0,0-9.6-3.32,14.63,14.63,0,0,0-9.71,3.32,19.71,19.71,0,0,0-5.81,8.82,41.48,41.48,0,0,0,0,24.82,19.56,19.56,0,0,0,5.81,8.81,14.75,14.75,0,0,0,9.71,3.29,14.35,14.35,0,0,0,9.6-3.3,19.76,19.76,0,0,0,5.73-8.8,41.48,41.48,0,0,0,0-24.82Zm-.94,24.5a19,19,0,0,1-5.44,8.36,13.3,13.3,0,0,1-9,3.06,13.67,13.67,0,0,1-9.07-3.06,18.57,18.57,0,0,1-5.51-8.36,40.61,40.61,0,0,1,0-24.17,18.78,18.78,0,0,1,5.51-8.39,13.64,13.64,0,0,1,9.07-3.08,13.26,13.26,0,0,1,9,3.08,19.18,19.18,0,0,1,5.44,8.39,40.61,40.61,0,0,1,0,24.17Zm.94-24.5a20.06,20.06,0,0,0-5.73-8.82,14.28,14.28,0,0,0-9.6-3.32,14.63,14.63,0,0,0-9.71,3.32,19.71,19.71,0,0,0-5.81,8.82,41.48,41.48,0,0,0,0,24.82,19.56,19.56,0,0,0,5.81,8.81,14.75,14.75,0,0,0,9.71,3.29,14.35,14.35,0,0,0,9.6-3.3,19.76,19.76,0,0,0,5.73-8.8,41.48,41.48,0,0,0,0-24.82Zm-.94,24.5a19,19,0,0,1-5.44,8.36,13.3,13.3,0,0,1-9,3.06,13.67,13.67,0,0,1-9.07-3.06,18.57,18.57,0,0,1-5.51-8.36,40.61,40.61,0,0,1,0-24.17,18.78,18.78,0,0,1,5.51-8.39,13.64,13.64,0,0,1,9.07-3.08,13.26,13.26,0,0,1,9,3.08,19.18,19.18,0,0,1,5.44,8.39,40.61,40.61,0,0,1,0,24.17Zm.94-24.5a20.06,20.06,0,0,0-5.73-8.82,14.28,14.28,0,0,0-9.6-3.32,14.63,14.63,0,0,0-9.71,3.32,19.71,19.71,0,0,0-5.81,8.82,41.48,41.48,0,0,0,0,24.82,19.56,19.56,0,0,0,5.81,8.81,14.75,14.75,0,0,0,9.71,3.29,14.35,14.35,0,0,0,9.6-3.3,19.76,19.76,0,0,0,5.73-8.8,41.48,41.48,0,0,0,0-24.82Zm-.94,24.5a19,19,0,0,1-5.44,8.36,13.3,13.3,0,0,1-9,3.06,13.67,13.67,0,0,1-9.07-3.06,18.57,18.57,0,0,1-5.51-8.36,40.61,40.61,0,0,1,0-24.17,18.78,18.78,0,0,1,5.51-8.39,13.64,13.64,0,0,1,9.07-3.08,13.26,13.26,0,0,1,9,3.08,19.18,19.18,0,0,1,5.44,8.39,40.61,40.61,0,0,1,0,24.17Zm.94-24.5a20.06,20.06,0,0,0-5.73-8.82,14.28,14.28,0,0,0-9.6-3.32,14.63,14.63,0,0,0-9.71,3.32,19.71,19.71,0,0,0-5.81,8.82,41.48,41.48,0,0,0,0,24.82,19.56,19.56,0,0,0,5.81,8.81,14.75,14.75,0,0,0,9.71,3.29,14.35,14.35,0,0,0,9.6-3.3,19.76,19.76,0,0,0,5.73-8.8,41.48,41.48,0,0,0,0-24.82Zm-.94,24.5a19,19,0,0,1-5.44,8.36,13.3,13.3,0,0,1-9,3.06,13.67,13.67,0,0,1-9.07-3.06,18.57,18.57,0,0,1-5.51-8.36,40.61,40.61,0,0,1,0-24.17,18.78,18.78,0,0,1,5.51-8.39,13.64,13.64,0,0,1,9.07-3.08,13.26,13.26,0,0,1,9,3.08,19.18,19.18,0,0,1,5.44,8.39,40.61,40.61,0,0,1,0,24.17Zm.94-24.5a20.06,20.06,0,0,0-5.73-8.82,14.28,14.28,0,0,0-9.6-3.32,14.63,14.63,0,0,0-9.71,3.32,19.71,19.71,0,0,0-5.81,8.82,41.48,41.48,0,0,0,0,24.82,19.56,19.56,0,0,0,5.81,8.81,14.75,14.75,0,0,0,9.71,3.29,14.35,14.35,0,0,0,9.6-3.3,19.76,19.76,0,0,0,5.73-8.8,41.48,41.48,0,0,0,0-24.82Zm-.94,24.5a19,19,0,0,1-5.44,8.36,13.3,13.3,0,0,1-9,3.06,13.67,13.67,0,0,1-9.07-3.06,18.57,18.57,0,0,1-5.51-8.36,40.61,40.61,0,0,1,0-24.17,18.78,18.78,0,0,1,5.51-8.39,13.64,13.64,0,0,1,9.07-3.08,13.26,13.26,0,0,1,9,3.08,19.18,19.18,0,0,1,5.44,8.39,40.61,40.61,0,0,1,0,24.17Zm19.08-33a34,34,0,0,0-13.22-14.05q-8.57-5-20.35-5t-20.34,5a34,34,0,0,0-13.22,14.05A45.4,45.4,0,0,0,875.19,121a45.13,45.13,0,0,0,4.65,21A34,34,0,0,0,893.06,156q8.57,5,20.34,5t20.35-5A34,34,0,0,0,947,141.94a45.13,45.13,0,0,0,4.65-21A45.4,45.4,0,0,0,947,99.93Zm-.89,41.55a33.16,33.16,0,0,1-12.84,13.65C927.71,158.37,921,160,913.4,160s-14.31-1.65-19.84-4.89a33.14,33.14,0,0,1-12.83-13.65A44.35,44.35,0,0,1,876.19,121a44.58,44.58,0,0,1,4.54-20.6,33.2,33.2,0,0,1,12.83-13.65c5.53-3.24,12.21-4.89,19.84-4.89s14.31,1.65,19.84,4.89a33.22,33.22,0,0,1,12.84,13.65,44.58,44.58,0,0,1,4.54,20.6A44.35,44.35,0,0,1,946.08,141.48Zm-23-41.88a14.28,14.28,0,0,0-9.6-3.32,14.63,14.63,0,0,0-9.71,3.32,19.71,19.71,0,0,0-5.81,8.82,41.48,41.48,0,0,0,0,24.82,19.56,19.56,0,0,0,5.81,8.81,14.75,14.75,0,0,0,9.71,3.29,14.35,14.35,0,0,0,9.6-3.3,19.76,19.76,0,0,0,5.73-8.8,41.48,41.48,0,0,0,0-24.82A20.06,20.06,0,0,0,923.1,99.6Zm4.79,33.32a19,19,0,0,1-5.44,8.36,13.3,13.3,0,0,1-9,3.06,13.67,13.67,0,0,1-9.07-3.06,18.57,18.57,0,0,1-5.51-8.36,40.61,40.61,0,0,1,0-24.17,18.78,18.78,0,0,1,5.51-8.39,13.64,13.64,0,0,1,9.07-3.08,13.26,13.26,0,0,1,9,3.08,19.18,19.18,0,0,1,5.44,8.39,40.61,40.61,0,0,1,0,24.17Zm.94-24.5a20.06,20.06,0,0,0-5.73-8.82,14.28,14.28,0,0,0-9.6-3.32,14.63,14.63,0,0,0-9.71,3.32,19.71,19.71,0,0,0-5.81,8.82,41.48,41.48,0,0,0,0,24.82,19.56,19.56,0,0,0,5.81,8.81,14.75,14.75,0,0,0,9.71,3.29,14.35,14.35,0,0,0,9.6-3.3,19.76,19.76,0,0,0,5.73-8.8,41.48,41.48,0,0,0,0-24.82Zm-.94,24.5a19,19,0,0,1-5.44,8.36,13.3,13.3,0,0,1-9,3.06,13.67,13.67,0,0,1-9.07-3.06,18.57,18.57,0,0,1-5.51-8.36,40.61,40.61,0,0,1,0-24.17,18.78,18.78,0,0,1,5.51-8.39,13.64,13.64,0,0,1,9.07-3.08,13.26,13.26,0,0,1,9,3.08,19.18,19.18,0,0,1,5.44,8.39,40.61,40.61,0,0,1,0,24.17Zm.94-24.5a20.06,20.06,0,0,0-5.73-8.82,14.28,14.28,0,0,0-9.6-3.32,14.63,14.63,0,0,0-9.71,3.32,19.71,19.71,0,0,0-5.81,8.82,41.48,41.48,0,0,0,0,24.82,19.56,19.56,0,0,0,5.81,8.81,14.75,14.75,0,0,0,9.71,3.29,14.35,14.35,0,0,0,9.6-3.3,19.76,19.76,0,0,0,5.73-8.8,41.48,41.48,0,0,0,0-24.82Zm-.94,24.5a19,19,0,0,1-5.44,8.36,13.3,13.3,0,0,1-9,3.06,13.67,13.67,0,0,1-9.07-3.06,18.57,18.57,0,0,1-5.51-8.36,40.61,40.61,0,0,1,0-24.17,18.78,18.78,0,0,1,5.51-8.39,13.64,13.64,0,0,1,9.07-3.08,13.26,13.26,0,0,1,9,3.08,19.18,19.18,0,0,1,5.44,8.39,40.61,40.61,0,0,1,0,24.17Zm.94-24.5a20.06,20.06,0,0,0-5.73-8.82,14.28,14.28,0,0,0-9.6-3.32,14.63,14.63,0,0,0-9.71,3.32,19.71,19.71,0,0,0-5.81,8.82,41.48,41.48,0,0,0,0,24.82,19.56,19.56,0,0,0,5.81,8.81,14.75,14.75,0,0,0,9.71,3.29,14.35,14.35,0,0,0,9.6-3.3,19.76,19.76,0,0,0,5.73-8.8,41.48,41.48,0,0,0,0-24.82Zm-.94,24.5a19,19,0,0,1-5.44,8.36,13.3,13.3,0,0,1-9,3.06,13.67,13.67,0,0,1-9.07-3.06,18.57,18.57,0,0,1-5.51-8.36,40.61,40.61,0,0,1,0-24.17,18.78,18.78,0,0,1,5.51-8.39,13.64,13.64,0,0,1,9.07-3.08,13.26,13.26,0,0,1,9,3.08,19.18,19.18,0,0,1,5.44,8.39,40.61,40.61,0,0,1,0,24.17Zm.94-24.5a20.06,20.06,0,0,0-5.73-8.82,14.28,14.28,0,0,0-9.6-3.32,14.63,14.63,0,0,0-9.71,3.32,19.71,19.71,0,0,0-5.81,8.82,41.48,41.48,0,0,0,0,24.82,19.56,19.56,0,0,0,5.81,8.81,14.75,14.75,0,0,0,9.71,3.29,14.35,14.35,0,0,0,9.6-3.3,19.76,19.76,0,0,0,5.73-8.8,41.48,41.48,0,0,0,0-24.82Zm-.94,24.5a19,19,0,0,1-5.44,8.36,13.3,13.3,0,0,1-9,3.06,13.67,13.67,0,0,1-9.07-3.06,18.57,18.57,0,0,1-5.51-8.36,40.61,40.61,0,0,1,0-24.17,18.78,18.78,0,0,1,5.51-8.39,13.64,13.64,0,0,1,9.07-3.08,13.26,13.26,0,0,1,9,3.08,19.18,19.18,0,0,1,5.44,8.39,40.61,40.61,0,0,1,0,24.17Zm.94-24.5a20.06,20.06,0,0,0-5.73-8.82,14.28,14.28,0,0,0-9.6-3.32,14.63,14.63,0,0,0-9.71,3.32,19.71,19.71,0,0,0-5.81,8.82,41.48,41.48,0,0,0,0,24.82,19.56,19.56,0,0,0,5.81,8.81,14.75,14.75,0,0,0,9.71,3.29,14.35,14.35,0,0,0,9.6-3.3,19.76,19.76,0,0,0,5.73-8.8,41.48,41.48,0,0,0,0-24.82Zm-.94,24.5a19,19,0,0,1-5.44,8.36,13.3,13.3,0,0,1-9,3.06,13.67,13.67,0,0,1-9.07-3.06,18.57,18.57,0,0,1-5.51-8.36,40.61,40.61,0,0,1,0-24.17,18.78,18.78,0,0,1,5.51-8.39,13.64,13.64,0,0,1,9.07-3.08,13.26,13.26,0,0,1,9,3.08,19.18,19.18,0,0,1,5.44,8.39,40.61,40.61,0,0,1,0,24.17Zm.94-24.5a20.06,20.06,0,0,0-5.73-8.82,14.28,14.28,0,0,0-9.6-3.32,14.63,14.63,0,0,0-9.71,3.32,19.71,19.71,0,0,0-5.81,8.82,41.48,41.48,0,0,0,0,24.82,19.56,19.56,0,0,0,5.81,8.81,14.75,14.75,0,0,0,9.71,3.29,14.35,14.35,0,0,0,9.6-3.3,19.76,19.76,0,0,0,5.73-8.8,41.48,41.48,0,0,0,0-24.82Zm-.94,24.5a19,19,0,0,1-5.44,8.36,13.3,13.3,0,0,1-9,3.06,13.67,13.67,0,0,1-9.07-3.06,18.57,18.57,0,0,1-5.51-8.36,40.61,40.61,0,0,1,0-24.17,18.78,18.78,0,0,1,5.51-8.39,13.64,13.64,0,0,1,9.07-3.08,13.26,13.26,0,0,1,9,3.08,19.18,19.18,0,0,1,5.44,8.39,40.61,40.61,0,0,1,0,24.17Zm.94-24.5a20.06,20.06,0,0,0-5.73-8.82,14.28,14.28,0,0,0-9.6-3.32,14.63,14.63,0,0,0-9.71,3.32,19.71,19.71,0,0,0-5.81,8.82,41.48,41.48,0,0,0,0,24.82,19.56,19.56,0,0,0,5.81,8.81,14.75,14.75,0,0,0,9.71,3.29,14.35,14.35,0,0,0,9.6-3.3,19.76,19.76,0,0,0,5.73-8.8,41.48,41.48,0,0,0,0-24.82Zm-.94,24.5a19,19,0,0,1-5.44,8.36,13.3,13.3,0,0,1-9,3.06,13.67,13.67,0,0,1-9.07-3.06,18.57,18.57,0,0,1-5.51-8.36,40.61,40.61,0,0,1,0-24.17,18.78,18.78,0,0,1,5.51-8.39,13.64,13.64,0,0,1,9.07-3.08,13.26,13.26,0,0,1,9,3.08,19.18,19.18,0,0,1,5.44,8.39,40.61,40.61,0,0,1,0,24.17Zm.94-24.5a20.06,20.06,0,0,0-5.73-8.82,14.28,14.28,0,0,0-9.6-3.32,14.63,14.63,0,0,0-9.71,3.32,19.71,19.71,0,0,0-5.81,8.82,41.48,41.48,0,0,0,0,24.82,19.56,19.56,0,0,0,5.81,8.81,14.75,14.75,0,0,0,9.71,3.29,14.35,14.35,0,0,0,9.6-3.3,19.76,19.76,0,0,0,5.73-8.8,41.48,41.48,0,0,0,0-24.82Zm-.94,24.5a19,19,0,0,1-5.44,8.36,13.3,13.3,0,0,1-9,3.06,13.67,13.67,0,0,1-9.07-3.06,18.57,18.57,0,0,1-5.51-8.36,40.61,40.61,0,0,1,0-24.17,18.78,18.78,0,0,1,5.51-8.39,13.64,13.64,0,0,1,9.07-3.08,13.26,13.26,0,0,1,9,3.08,19.18,19.18,0,0,1,5.44,8.39,40.61,40.61,0,0,1,0,24.17Zm.94-24.5a20.06,20.06,0,0,0-5.73-8.82,14.28,14.28,0,0,0-9.6-3.32,14.63,14.63,0,0,0-9.71,3.32,19.71,19.71,0,0,0-5.81,8.82,41.48,41.48,0,0,0,0,24.82,19.56,19.56,0,0,0,5.81,8.81,14.75,14.75,0,0,0,9.71,3.29,14.35,14.35,0,0,0,9.6-3.3,19.76,19.76,0,0,0,5.73-8.8,41.48,41.48,0,0,0,0-24.82Zm-.94,24.5a19,19,0,0,1-5.44,8.36,13.3,13.3,0,0,1-9,3.06,13.67,13.67,0,0,1-9.07-3.06,18.57,18.57,0,0,1-5.51-8.36,40.61,40.61,0,0,1,0-24.17,18.78,18.78,0,0,1,5.51-8.39,13.64,13.64,0,0,1,9.07-3.08,13.26,13.26,0,0,1,9,3.08,19.18,19.18,0,0,1,5.44,8.39,40.61,40.61,0,0,1,0,24.17Zm.94-24.5a20.06,20.06,0,0,0-5.73-8.82,14.28,14.28,0,0,0-9.6-3.32,14.63,14.63,0,0,0-9.71,3.32,19.71,19.71,0,0,0-5.81,8.82,41.48,41.48,0,0,0,0,24.82,19.56,19.56,0,0,0,5.81,8.81,14.75,14.75,0,0,0,9.71,3.29,14.35,14.35,0,0,0,9.6-3.3,19.76,19.76,0,0,0,5.73-8.8,41.48,41.48,0,0,0,0-24.82Zm-.94,24.5a19,19,0,0,1-5.44,8.36,13.3,13.3,0,0,1-9,3.06,13.67,13.67,0,0,1-9.07-3.06,18.57,18.57,0,0,1-5.51-8.36,40.61,40.61,0,0,1,0-24.17,18.78,18.78,0,0,1,5.51-8.39,13.64,13.64,0,0,1,9.07-3.08,13.26,13.26,0,0,1,9,3.08,19.18,19.18,0,0,1,5.44,8.39,40.61,40.61,0,0,1,0,24.17Zm.94-24.5a20.06,20.06,0,0,0-5.73-8.82,14.28,14.28,0,0,0-9.6-3.32,14.63,14.63,0,0,0-9.71,3.32,19.71,19.71,0,0,0-5.81,8.82,41.48,41.48,0,0,0,0,24.82,19.56,19.56,0,0,0,5.81,8.81,14.75,14.75,0,0,0,9.71,3.29,14.35,14.35,0,0,0,9.6-3.3,19.76,19.76,0,0,0,5.73-8.8,41.48,41.48,0,0,0,0-24.82Zm-.94,24.5a19,19,0,0,1-5.44,8.36,13.3,13.3,0,0,1-9,3.06,13.67,13.67,0,0,1-9.07-3.06,18.57,18.57,0,0,1-5.51-8.36,40.61,40.61,0,0,1,0-24.17,18.78,18.78,0,0,1,5.51-8.39,13.64,13.64,0,0,1,9.07-3.08,13.26,13.26,0,0,1,9,3.08,19.18,19.18,0,0,1,5.44,8.39,40.61,40.61,0,0,1,0,24.17Zm.94-24.5a20.06,20.06,0,0,0-5.73-8.82,14.28,14.28,0,0,0-9.6-3.32,14.63,14.63,0,0,0-9.71,3.32,19.71,19.71,0,0,0-5.81,8.82,41.48,41.48,0,0,0,0,24.82,19.56,19.56,0,0,0,5.81,8.81,14.75,14.75,0,0,0,9.71,3.29,14.35,14.35,0,0,0,9.6-3.3,19.76,19.76,0,0,0,5.73-8.8,41.48,41.48,0,0,0,0-24.82Zm-.94,24.5a19,19,0,0,1-5.44,8.36,13.3,13.3,0,0,1-9,3.06,13.67,13.67,0,0,1-9.07-3.06,18.57,18.57,0,0,1-5.51-8.36,40.61,40.61,0,0,1,0-24.17,18.78,18.78,0,0,1,5.51-8.39,13.64,13.64,0,0,1,9.07-3.08,13.26,13.26,0,0,1,9,3.08,19.18,19.18,0,0,1,5.44,8.39,40.61,40.61,0,0,1,0,24.17Zm.94-24.5a20.06,20.06,0,0,0-5.73-8.82,14.28,14.28,0,0,0-9.6-3.32,14.63,14.63,0,0,0-9.71,3.32,19.71,19.71,0,0,0-5.81,8.82,41.48,41.48,0,0,0,0,24.82,19.56,19.56,0,0,0,5.81,8.81,14.75,14.75,0,0,0,9.71,3.29,14.35,14.35,0,0,0,9.6-3.3,19.76,19.76,0,0,0,5.73-8.8,41.48,41.48,0,0,0,0-24.82Zm-.94,24.5a19,19,0,0,1-5.44,8.36,13.3,13.3,0,0,1-9,3.06,13.67,13.67,0,0,1-9.07-3.06,18.57,18.57,0,0,1-5.51-8.36,40.61,40.61,0,0,1,0-24.17,18.78,18.78,0,0,1,5.51-8.39,13.64,13.64,0,0,1,9.07-3.08,13.26,13.26,0,0,1,9,3.08,19.18,19.18,0,0,1,5.44,8.39,40.61,40.61,0,0,1,0,24.17Zm.94-24.5a20.06,20.06,0,0,0-5.73-8.82,14.28,14.28,0,0,0-9.6-3.32,14.63,14.63,0,0,0-9.71,3.32,19.71,19.71,0,0,0-5.81,8.82,41.48,41.48,0,0,0,0,24.82,19.56,19.56,0,0,0,5.81,8.81,14.75,14.75,0,0,0,9.71,3.29,14.35,14.35,0,0,0,9.6-3.3,19.76,19.76,0,0,0,5.73-8.8,41.48,41.48,0,0,0,0-24.82Zm-.94,24.5a19,19,0,0,1-5.44,8.36,13.3,13.3,0,0,1-9,3.06,13.67,13.67,0,0,1-9.07-3.06,18.57,18.57,0,0,1-5.51-8.36,40.61,40.61,0,0,1,0-24.17,18.78,18.78,0,0,1,5.51-8.39,13.64,13.64,0,0,1,9.07-3.08,13.26,13.26,0,0,1,9,3.08,19.18,19.18,0,0,1,5.44,8.39,40.61,40.61,0,0,1,0,24.17Z"/><path class="cls-4" d="M1104.7,87.75q-6.79-6.9-17.66-6.9a26.71,26.71,0,0,0-14.79,4,20.78,20.78,0,0,0-8.62,10.69h-.81a18.88,18.88,0,0,0-7.48-10.74,22.91,22.91,0,0,0-13.6-4,23.15,23.15,0,0,0-13.54,3.94,21.54,21.54,0,0,0-8.09,10.77h-.91V81.86H998.68V159.5h21.53V112.9a16.09,16.09,0,0,1,1.67-7.51,12.61,12.61,0,0,1,4.52-5,11.87,11.87,0,0,1,6.45-1.8,11.36,11.36,0,0,1,8.57,3.39,12.59,12.59,0,0,1,3.26,9.1V159.5h20.87V112.09a14.23,14.23,0,0,1,3.29-9.78q3.29-3.72,9.15-3.72a12,12,0,0,1,8.59,3.24q3.43,3.23,3.44,9.7v48h21.48V107.29Q1111.5,94.65,1104.7,87.75Zm5.8,70.75H1091v-47c0-4.58-1.26-8.09-3.75-10.43a13.08,13.08,0,0,0-9.28-3.51c-4.19,0-7.52,1.37-9.9,4.06a15.21,15.21,0,0,0-3.54,10.44V158.5h-18.87V111.08a13.57,13.57,0,0,0-3.54-9.79,12.38,12.38,0,0,0-9.29-3.7,13,13,0,0,0-7,2,13.71,13.71,0,0,0-4.88,5.39,17.15,17.15,0,0,0-1.78,8v45.6H999.68V82.86h18.52v13.7h2.62l.23-.66a20.71,20.71,0,0,1,7.72-10.29,22.26,22.26,0,0,1,13-3.76,22,22,0,0,1,13,3.79,18,18,0,0,1,7.1,10.19l.2.73h2.28l.23-.66a19.84,19.84,0,0,1,8.22-10.19A25.87,25.87,0,0,1,1087,81.85c6.93,0,12.63,2.22,17,6.6s6.51,10.73,6.51,18.84Z"/><path class="cls-5" d="M1175.24,81.86l-16.22,57h-.81l-16.08-57h-22.64l27.85,79.87-1.26,3.28a10.65,10.65,0,0,1-3.67,5.16,8.6,8.6,0,0,1-4.93,1.42h-.38a26.11,26.11,0,0,1-6.85-1.26l-4.85,16.08a29.44,29.44,0,0,0,5.89,1.59,44.07,44.07,0,0,0,7.66.63,33.13,33.13,0,0,0,13.65-2.55,24.89,24.89,0,0,0,9.37-7.23,36.81,36.81,0,0,0,5.89-11l30.18-86Zm-8.32,85.71a36.08,36.08,0,0,1-5.73,10.65,23.94,23.94,0,0,1-9,6.94,32.33,32.33,0,0,1-13.24,2.46,43.08,43.08,0,0,1-7.49-.62,31.12,31.12,0,0,1-4.83-1.21l4.3-14.23a26.27,26.27,0,0,0,6.14,1h.41A9.6,9.6,0,0,0,1143,171a11.75,11.75,0,0,0,4-5.63l1.26-3.28.13-.35-.12-.34L1120.9,82.86h20.48l15.87,56.29.2.73h2.32l.21-.73,16-56.29h20.63Z"/><path class="cls-6" d="M1302,84.71a29.26,29.26,0,0,0-15.67-4.42,24.09,24.09,0,0,0-10.89,2.2,21.51,21.51,0,0,0-7.07,5.46,28.06,28.06,0,0,0-4.12,6.39h-1v-13h-21.23V188.05h21.53V146.5h.66a25.67,25.67,0,0,0,4.24,6.39,22,22,0,0,0,7.15,5.24,24.77,24.77,0,0,0,10.64,2.07,29.07,29.07,0,0,0,16-4.58,31.1,31.1,0,0,0,11.32-13.49q4.17-8.92,4.17-21.91,0-13.35-4.29-22.21A30.9,30.9,0,0,0,1302,84.71Zm-8.11,47.36a18,18,0,0,1-5.53,8.09,15.12,15.12,0,0,1-17.74.05,17.74,17.74,0,0,1-5.56-8,34.6,34.6,0,0,1-1.92-12.08,34.12,34.12,0,0,1,1.92-12,17.41,17.41,0,0,1,5.53-7.89,14.14,14.14,0,0,1,8.87-2.78,14,14,0,0,1,9,2.88,17.77,17.77,0,0,1,5.51,8,34.48,34.48,0,0,1,1.87,11.83A34.76,34.76,0,0,1,1293.9,132.07Z"/><path class="cls-7" d="M1372.42,80.19a18.88,18.88,0,0,0-11.53,3.71,20.2,20.2,0,0,0-7.12,10.95H1353V81.3h-20.88v77.63h21.53V115a16.24,16.24,0,0,1,2.15-8.39,15.26,15.26,0,0,1,5.87-5.68,17.15,17.15,0,0,1,8.46-2,38.62,38.62,0,0,1,4.9.35,29,29,0,0,1,4.2.81V81a24.58,24.58,0,0,0-3.29-.56A33.72,33.72,0,0,0,1372.42,80.19Z"/><path class="cls-8" d="M1442,85.32q-8.57-5-20.35-5t-20.34,5a34,34,0,0,0-13.22,14.05,45.32,45.32,0,0,0-4.65,21,45.1,45.1,0,0,0,4.65,21,34,34,0,0,0,13.22,14q8.57,5,20.34,5t20.35-5a34,34,0,0,0,13.21-14,45.1,45.1,0,0,0,4.65-21,45.32,45.32,0,0,0-4.65-21A34,34,0,0,0,1442,85.32Zm-5.87,47a18.75,18.75,0,0,1-5.43,8.36,13.29,13.29,0,0,1-8.94,3.06,13.7,13.7,0,0,1-9.08-3.06,18.46,18.46,0,0,1-5.51-8.36,40.57,40.57,0,0,1,0-24.16,18.72,18.72,0,0,1,5.51-8.39,13.61,13.61,0,0,1,9.08-3.08,13.2,13.2,0,0,1,8.94,3.08,19,19,0,0,1,5.43,8.39,40.36,40.36,0,0,1,0,24.16Z"/><path class="cls-9" d="M1502.11,70q1.86-2.19,6.62-2.19a19.56,19.56,0,0,1,3.76.35,27.88,27.88,0,0,1,3.11.76l3.84-16.18q-2-.6-6.14-1.36a49.77,49.77,0,0,0-9.07-.76,29.78,29.78,0,0,0-13.09,2.78,20.88,20.88,0,0,0-9.07,8.34q-3.32,5.57-3.31,14V81.3h-11V97.47h11v61.46h21.48V97.47h15.46V81.3h-15.46V76.1A9.21,9.21,0,0,1,1502.11,70Z"/><rect class="cls-10" x="1528.84" y="81.3" width="21.53" height="77.63"/><path class="cls-11" d="M1539.66,49.51a11.58,11.58,0,0,0-8.19,3.21,10.35,10.35,0,0,0,0,15.39,12.15,12.15,0,0,0,16.42,0,10.39,10.39,0,0,0,0-15.39A11.61,11.61,0,0,0,1539.66,49.51Z"/><rect class="cls-12" x="1567.56" y="55.42" width="21.53" height="103.51"/><path class="cls-13" d="M1677.28,125.63v-5.92a49,49,0,0,0-2.78-17.31,33.4,33.4,0,0,0-7.76-12.3,32.28,32.28,0,0,0-11.62-7.36,41.19,41.19,0,0,0-14.33-2.45,38.19,38.19,0,0,0-19.89,5,34.31,34.31,0,0,0-13.11,14.11,45.37,45.37,0,0,0-4.65,21q0,12.28,4.65,21.25a33,33,0,0,0,13.26,13.85q8.63,4.89,20.6,4.88a45.08,45.08,0,0,0,17-3,31.09,31.09,0,0,0,12-8.29,27.17,27.17,0,0,0,6.19-12.5l-19.92-1.32a13.1,13.1,0,0,1-3.23,5,13.75,13.75,0,0,1-5.11,3,20.4,20.4,0,0,1-6.57,1,18.38,18.38,0,0,1-9.35-2.28,15.3,15.3,0,0,1-6.09-6.47,21.57,21.57,0,0,1-2.15-9.95v-.05Zm-44.8-27a16.56,16.56,0,0,1,8.66-2.25,16.36,16.36,0,0,1,8.27,2,14.68,14.68,0,0,1,5.58,5.64,16.43,16.43,0,0,1,2,8.23h-32.57a16.9,16.9,0,0,1,2.15-7.65A16.12,16.12,0,0,1,1632.48,98.61Z"/></svg>