<?xml version="1.0" encoding="UTF-8"?>
<svg id="Warstwa_1" data-name="Warstwa 1" xmlns="http://www.w3.org/2000/svg" xmlns:xlink="http://www.w3.org/1999/xlink" viewBox="0 0 1741.71 240">
  <defs>
    <style>
      .cls-1, .cls-2 {
        fill: none;
      }

      .cls-3 {
        clip-path: url(#clippath);
      }

      .cls-4 {
        fill: #f9c2d2;
      }

      .cls-5 {
        fill: #fff;
      }

      .cls-6 {
        fill: #fbb9e4;
      }

      .cls-2 {
        stroke: url(#Gradient_bez_nazwy_43);
      }

      .cls-7 {
        opacity: .71;
      }

      .cls-8 {
        fill: url(#Gradient_bez_nazwy_11-2);
      }

      .cls-9 {
        fill: url(#Gradient_bez_nazwy_23-2);
      }

      .cls-10 {
        fill: url(#Gradient_bez_nazwy_36);
      }

      .cls-11 {
        fill: url(#Gradient_bez_nazwy_23);
      }

      .cls-12 {
        fill: url(#Gradient_bez_nazwy_20);
      }

      .cls-13 {
        fill: url(#Gradient_bez_nazwy_42);
      }

      .cls-14 {
        fill: url(#Gradient_bez_nazwy_11);
      }
    </style>
    <clipPath id="clippath">
      <rect class="cls-1" width="864.07" height="240"/>
    </clipPath>
    <radialGradient id="Gradient_bez_nazwy_20" data-name="Gradient bez nazwy 20" cx="594.24" cy="326.6" fx="594.24" fy="326.6" r="726.97" gradientTransform="scale(.45 .22)" gradientUnits="userSpaceOnUse">
      <stop offset="0" stop-color="#ffc1c3"/>
      <stop offset="1" stop-color="#ffc1c3" stop-opacity="0"/>
    </radialGradient>
    <radialGradient id="Gradient_bez_nazwy_11" data-name="Gradient bez nazwy 11" cx="1231.04" cy="547.32" fx="1231.04" fy="547.32" r="624.11" gradientTransform="scale(.45 .22)" gradientUnits="userSpaceOnUse">
      <stop offset="0" stop-color="#bab8ed"/>
      <stop offset="1" stop-color="#bab8ed" stop-opacity="0"/>
    </radialGradient>
    <radialGradient id="Gradient_bez_nazwy_11-2" data-name="Gradient bez nazwy 11" cx="1603.06" cy="1194.88" fx="1603.06" fy="1194.88" r="738.99" xlink:href="#Gradient_bez_nazwy_11"/>
    <radialGradient id="Gradient_bez_nazwy_23" data-name="Gradient bez nazwy 23" cx="1613.18" cy="0" fx="1613.18" fy="0" r="624.11" gradientTransform="scale(.45 .22)" gradientUnits="userSpaceOnUse">
      <stop offset="0" stop-color="#d79cdd"/>
      <stop offset="1" stop-color="#d79cdc" stop-opacity="0"/>
    </radialGradient>
    <radialGradient id="Gradient_bez_nazwy_23-2" data-name="Gradient bez nazwy 23" cx="-100.81" cy="1098.25" fx="-100.81" fy="1098.25" r="624.11" xlink:href="#Gradient_bez_nazwy_23"/>
    <linearGradient id="Gradient_bez_nazwy_42" data-name="Gradient bez nazwy 42" x1="1270.4" y1="32.18" x2="1621.68" y2="234.99" gradientUnits="userSpaceOnUse">
      <stop offset="0" stop-color="#d08bc2"/>
      <stop offset="1" stop-color="#fbb9e4"/>
    </linearGradient>
    <linearGradient id="Gradient_bez_nazwy_43" data-name="Gradient bez nazwy 43" x1="849.93" y1="21.68" x2="1156.53" y2="198.69" gradientUnits="userSpaceOnUse">
      <stop offset="0" stop-color="#beb8ec"/>
      <stop offset="1" stop-color="#c2b9ec" stop-opacity="0"/>
    </linearGradient>
    <linearGradient id="Gradient_bez_nazwy_36" data-name="Gradient bez nazwy 36" x1="1270.4" y1="32.18" x2="1621.68" y2="234.99" gradientUnits="userSpaceOnUse">
      <stop offset="0" stop-color="#fbb9e4"/>
      <stop offset="1" stop-color="#ffc0c4" stop-opacity="0"/>
    </linearGradient>
  </defs>
  <g>
    <rect class="cls-6" width="864.07" height="240"/>
    <g class="cls-3">
      <rect class="cls-12" x="-59.74" y="-88.97" width="654.33" height="323.1"/>
      <rect class="cls-14" x="273.14" y="-17.06" width="561.74" height="277.38"/>
      <rect class="cls-8" x="388.86" y="101.31" width="665.14" height="328.44"/>
      <rect class="cls-11" x="445.12" y="-138.69" width="561.74" height="277.38"/>
      <rect class="cls-9" x="-326.24" y="105.36" width="561.74" height="277.38"/>
    </g>
  </g>
  <g>
    <polygon class="cls-5" points="148.02 135.34 147.36 135.34 134.62 83.48 113.24 83.48 100.7 135.64 100 135.64 87.97 83.48 66.18 83.48 87.31 161.12 110.06 161.12 123.4 112.29 124.36 112.29 137.7 161.12 160.5 161.12 181.58 83.48 159.85 83.48 148.02 135.34"/>
    <path class="cls-5" d="M251.56,92.27c-3.32-3.27-7.2-5.72-11.63-7.36-4.43-1.63-9.21-2.45-14.33-2.45-7.62,0-14.25,1.69-19.89,5.05-5.65,3.37-10.02,8.07-13.12,14.1-3.1,6.03-4.65,13.04-4.65,21.03s1.55,15.27,4.65,21.25c3.1,5.98,7.52,10.6,13.27,13.85,5.75,3.25,12.61,4.88,20.6,4.88,6.4,0,12.06-.99,16.96-2.96,4.9-1.97,8.91-4.73,12.03-8.29,3.12-3.55,5.18-7.73,6.19-12.51l-19.92-1.31c-.74,1.96-1.82,3.61-3.23,4.95-1.42,1.35-3.12,2.36-5.11,3.03-1.99,.67-4.18,1.01-6.57,1.01-3.61,0-6.72-.76-9.35-2.27-2.63-1.52-4.66-3.67-6.09-6.47-1.43-2.8-2.15-6.12-2.15-9.96v-.05h52.87v-5.91c0-6.6-.93-12.38-2.78-17.31-1.85-4.94-4.44-9.04-7.76-12.31Zm-42.31,22.19c.13-2.79,.84-5.34,2.15-7.66,1.42-2.51,3.38-4.52,5.89-6.02,2.51-1.5,5.4-2.25,8.67-2.25s5.89,.68,8.26,2.05c2.38,1.37,4.24,3.24,5.58,5.64s2.02,5.14,2.02,8.24h-32.58Z"/>
    <rect class="cls-5" x="276.15" y="57.59" width="21.53" height="103.52"/>
    <path class="cls-5" d="M341.49,101.95c2.48-1.8,5.38-2.7,8.72-2.7,3.94,0,7.14,1.19,9.58,3.56,2.44,2.38,3.95,5.5,4.52,9.38h20.32c-.3-6-1.94-11.22-4.9-15.67-2.97-4.45-6.99-7.9-12.08-10.36-5.09-2.46-11.02-3.69-17.79-3.69-7.85,0-14.63,1.69-20.32,5.08-5.7,3.39-10.08,8.09-13.17,14.1-3.08,6.02-4.62,13-4.62,20.95s1.52,14.79,4.57,20.83,7.43,10.74,13.14,14.13,12.54,5.08,20.5,5.08c6.91,0,12.89-1.26,17.95-3.79s9.02-6.04,11.9-10.54c2.88-4.5,4.49-9.71,4.83-15.65h-20.32c-.4,2.73-1.26,5.06-2.55,7-1.3,1.94-2.93,3.41-4.9,4.42-1.97,1.01-4.19,1.52-6.65,1.52-3.34,0-6.25-.91-8.74-2.73-2.5-1.82-4.42-4.46-5.79-7.94-1.37-3.47-2.05-7.68-2.05-12.64s.69-9.05,2.07-12.48c1.38-3.44,3.31-6.06,5.79-7.86Z"/>
    <path class="cls-5" d="M453.9,87.49c-5.71-3.35-12.49-5.03-20.35-5.03s-14.63,1.68-20.35,5.03c-5.71,3.35-10.12,8.04-13.22,14.05-3.1,6.01-4.65,13.03-4.65,21.05s1.55,14.94,4.65,20.95,7.51,10.7,13.22,14.05,12.49,5.03,20.35,5.03,14.63-1.68,20.35-5.03,10.12-8.04,13.22-14.05,4.65-13,4.65-20.95-1.55-15.04-4.65-21.05c-3.1-6.02-7.51-10.7-13.22-14.05Zm-5.86,47.04c-1.23,3.54-3.04,6.33-5.43,8.37-2.39,2.04-5.38,3.06-8.95,3.06s-6.63-1.02-9.07-3.06c-2.44-2.04-4.28-4.83-5.51-8.37-1.23-3.54-1.84-7.57-1.84-12.08s.61-8.54,1.84-12.08,3.07-6.33,5.51-8.39,5.47-3.08,9.07-3.08,6.55,1.03,8.95,3.08,4.2,4.85,5.43,8.39,1.85,7.57,1.85,12.08-.62,8.54-1.85,12.08Z"/>
    <path class="cls-5" d="M574.18,82.46c-5.7,0-10.62,1.34-14.79,4.02-4.16,2.68-7.04,6.24-8.62,10.69h-.81c-1.25-4.51-3.74-8.1-7.48-10.74-3.74-2.64-8.27-3.97-13.6-3.97s-9.77,1.31-13.55,3.94c-3.77,2.63-6.47,6.22-8.09,10.77h-.91v-13.7h-20.52v77.64h21.53v-46.61c0-2.86,.56-5.37,1.67-7.51,1.11-2.14,2.62-3.81,4.52-5,1.9-1.2,4.05-1.79,6.44-1.79,3.54,0,6.39,1.13,8.57,3.39,2.17,2.26,3.26,5.29,3.26,9.1v48.42h20.88v-47.41c0-4.04,1.09-7.3,3.29-9.78,2.19-2.48,5.24-3.71,9.15-3.71,3.44,0,6.3,1.08,8.59,3.24s3.44,5.39,3.44,9.71v47.97h21.48v-52.22c0-8.42-2.27-14.94-6.8-19.54-4.53-4.6-10.42-6.9-17.67-6.9Z"/>
    <path class="cls-5" d="M676.11,92.27c-3.32-3.27-7.19-5.72-11.63-7.36-4.43-1.63-9.21-2.45-14.33-2.45-7.62,0-14.25,1.69-19.89,5.05-5.64,3.37-10.02,8.07-13.12,14.1-3.1,6.03-4.65,13.04-4.65,21.03s1.55,15.27,4.65,21.25c3.1,5.98,7.52,10.6,13.27,13.85s12.61,4.88,20.6,4.88c6.4,0,12.06-.99,16.96-2.96,4.9-1.97,8.91-4.73,12.03-8.29,3.12-3.55,5.18-7.73,6.19-12.51l-19.92-1.31c-.74,1.96-1.82,3.61-3.24,4.95s-3.12,2.36-5.11,3.03-4.18,1.01-6.57,1.01c-3.61,0-6.72-.76-9.35-2.27-2.63-1.52-4.66-3.67-6.09-6.47-1.43-2.8-2.15-6.12-2.15-9.96v-.05h52.87v-5.91c0-6.6-.93-12.38-2.78-17.31-1.85-4.94-4.44-9.04-7.76-12.31Zm-42.31,22.19c.13-2.79,.84-5.34,2.15-7.66,1.42-2.51,3.38-4.52,5.89-6.02,2.51-1.5,5.4-2.25,8.67-2.25s5.89,.68,8.26,2.05c2.38,1.37,4.24,3.24,5.59,5.64,1.35,2.39,2.02,5.14,2.02,8.24h-32.58Z"/>
  </g>
  <rect class="cls-5" x="752.83" y="-19" width="998.17" height="278"/>
  <g>
    <g>
      <g>
        <path class="cls-6" d="M1302.01,84.66c-4.78-2.95-10.01-4.42-15.67-4.42-4.35,0-7.98,.73-10.89,2.2-2.91,1.47-5.27,3.29-7.08,5.46-1.8,2.17-3.18,4.31-4.12,6.39h-.96v-13.04h-21.23v106.75h21.53v-41.55h.66c.98,2.16,2.39,4.29,4.25,6.39,1.85,2.11,4.24,3.85,7.15,5.23,2.91,1.38,6.46,2.07,10.64,2.07,5.9,0,11.23-1.52,16-4.57,4.77-3.05,8.54-7.55,11.32-13.49,2.78-5.95,4.17-13.25,4.17-21.91s-1.43-16.3-4.3-22.21c-2.86-5.91-6.69-10.34-11.47-13.29Zm-8.11,47.36c-1.26,3.45-3.11,6.15-5.53,8.09-2.43,1.94-5.39,2.91-8.9,2.91s-6.42-.95-8.84-2.86c-2.43-1.9-4.28-4.57-5.56-8.01-1.28-3.44-1.92-7.46-1.92-12.08s.64-8.63,1.92-12.03c1.28-3.4,3.13-6.03,5.53-7.88,2.41-1.85,5.37-2.78,8.87-2.78s6.52,.96,8.95,2.88c2.43,1.92,4.26,4.58,5.51,7.99,1.25,3.4,1.87,7.35,1.87,11.83s-.63,8.5-1.9,11.95Z"/>
        <path class="cls-6" d="M1372.42,80.14c-4.35,0-8.19,1.24-11.52,3.71-3.33,2.48-5.71,6.12-7.13,10.94h-.81v-13.55h-20.87v77.63h21.53v-43.92c0-3.17,.72-5.96,2.15-8.39,1.43-2.43,3.39-4.32,5.86-5.69,2.48-1.36,5.3-2.05,8.47-2.05,1.48,0,3.12,.12,4.9,.35,1.79,.24,3.18,.51,4.2,.81v-19.11c-.94-.24-2.04-.42-3.29-.56-1.25-.13-2.41-.2-3.49-.2Z"/>
        <path class="cls-6" d="M1442.04,85.27c-5.71-3.35-12.49-5.03-20.34-5.03s-14.63,1.68-20.34,5.03c-5.71,3.35-10.12,8.04-13.22,14.05-3.1,6.01-4.65,13.03-4.65,21.05s1.55,14.94,4.65,20.95c3.1,6.01,7.5,10.7,13.22,14.05,5.71,3.35,12.49,5.03,20.34,5.03s14.63-1.68,20.34-5.03c5.71-3.35,10.12-8.04,13.22-14.05,3.1-6.01,4.65-13,4.65-20.95s-1.55-15.04-4.65-21.05c-3.1-6.01-7.5-10.7-13.22-14.05Zm-5.86,47.03c-1.23,3.54-3.04,6.33-5.43,8.36-2.39,2.04-5.37,3.06-8.95,3.06s-6.63-1.02-9.07-3.06c-2.44-2.04-4.28-4.83-5.51-8.36-1.23-3.54-1.84-7.56-1.84-12.08s.61-8.54,1.84-12.08c1.23-3.54,3.07-6.33,5.51-8.39,2.44-2.05,5.47-3.08,9.07-3.08s6.55,1.03,8.95,3.08c2.39,2.06,4.2,4.85,5.43,8.39,1.23,3.54,1.84,7.56,1.84,12.08s-.61,8.54-1.84,12.08Z"/>
        <path class="cls-6" d="M1502.11,69.9c1.25-1.47,3.45-2.2,6.62-2.2,1.28,0,2.54,.12,3.77,.35,1.23,.24,2.27,.49,3.11,.76l3.84-16.17c-1.35-.4-3.4-.86-6.14-1.36-2.75-.51-5.77-.76-9.07-.76-4.89,0-9.25,.93-13.09,2.78-3.84,1.85-6.87,4.63-9.07,8.34-2.21,3.71-3.31,8.37-3.31,14v5.61h-10.97v16.17h10.97v61.46h21.48v-61.46h15.47v-16.17h-15.47v-5.21c0-2.63,.62-4.68,1.87-6.14Z"/>
        <rect class="cls-6" x="1528.84" y="81.25" width="21.53" height="77.63"/>
        <path class="cls-6" d="M1539.66,49.46c-3.17,0-5.9,1.07-8.19,3.21-2.29,2.14-3.44,4.71-3.44,7.71s1.14,5.56,3.41,7.68c2.27,2.12,5.01,3.18,8.21,3.18s5.94-1.07,8.21-3.21c2.27-2.14,3.41-4.71,3.41-7.71s-1.14-5.56-3.41-7.68c-2.27-2.12-5.01-3.18-8.21-3.18Z"/>
        <rect class="cls-6" x="1567.56" y="55.37" width="21.53" height="103.51"/>
        <path class="cls-6" d="M1677.28,125.57v-5.91c0-6.6-.93-12.37-2.78-17.31-1.85-4.94-4.44-9.04-7.76-12.31-3.32-3.27-7.19-5.72-11.62-7.35-4.43-1.63-9.21-2.45-14.33-2.45-7.62,0-14.24,1.69-19.89,5.05-5.64,3.37-10.02,8.07-13.12,14.1-3.1,6.03-4.65,13.04-4.65,21.03s1.55,15.27,4.65,21.25c3.1,5.98,7.52,10.6,13.27,13.85,5.74,3.25,12.61,4.88,20.6,4.88,6.4,0,12.05-.99,16.96-2.96,4.9-1.97,8.91-4.73,12.03-8.29,3.12-3.55,5.18-7.72,6.19-12.51l-19.91-1.31c-.74,1.95-1.82,3.61-3.23,4.95-1.42,1.35-3.12,2.36-5.1,3.03-1.99,.67-4.18,1.01-6.57,1.01-3.61,0-6.72-.76-9.35-2.27-2.63-1.52-4.66-3.67-6.09-6.47-1.43-2.8-2.15-6.12-2.15-9.96v-.05h52.87Zm-44.81-27.01c2.51-1.5,5.4-2.25,8.67-2.25s5.89,.68,8.26,2.05c2.38,1.36,4.24,3.24,5.58,5.64,1.35,2.39,2.02,5.14,2.02,8.24h-32.57c.13-2.79,.84-5.34,2.15-7.66,1.42-2.51,3.38-4.52,5.89-6.01Z"/>
      </g>
      <g>
        <path class="cls-13" d="M1302.01,84.66c-4.78-2.95-10.01-4.42-15.67-4.42-4.35,0-7.98,.73-10.89,2.2-2.91,1.47-5.27,3.29-7.08,5.46-1.8,2.17-3.18,4.31-4.12,6.39h-.96v-13.04h-21.23v106.75h21.53v-41.55h.66c.98,2.16,2.39,4.29,4.25,6.39,1.85,2.11,4.24,3.85,7.15,5.23,2.91,1.38,6.46,2.07,10.64,2.07,5.9,0,11.23-1.52,16-4.57,4.77-3.05,8.54-7.55,11.32-13.49,2.78-5.95,4.17-13.25,4.17-21.91s-1.43-16.3-4.3-22.21c-2.86-5.91-6.69-10.34-11.47-13.29Zm-8.11,47.36c-1.26,3.45-3.11,6.15-5.53,8.09-2.43,1.94-5.39,2.91-8.9,2.91s-6.42-.95-8.84-2.86c-2.43-1.9-4.28-4.57-5.56-8.01-1.28-3.44-1.92-7.46-1.92-12.08s.64-8.63,1.92-12.03c1.28-3.4,3.13-6.03,5.53-7.88,2.41-1.85,5.37-2.78,8.87-2.78s6.52,.96,8.95,2.88c2.43,1.92,4.26,4.58,5.51,7.99,1.25,3.4,1.87,7.35,1.87,11.83s-.63,8.5-1.9,11.95Z"/>
        <path class="cls-13" d="M1372.42,80.14c-4.35,0-8.19,1.24-11.52,3.71-3.33,2.48-5.71,6.12-7.13,10.94h-.81v-13.55h-20.87v77.63h21.53v-43.92c0-3.17,.72-5.96,2.15-8.39,1.43-2.43,3.39-4.32,5.86-5.69,2.48-1.36,5.3-2.05,8.47-2.05,1.48,0,3.12,.12,4.9,.35,1.79,.24,3.18,.51,4.2,.81v-19.11c-.94-.24-2.04-.42-3.29-.56-1.25-.13-2.41-.2-3.49-.2Z"/>
        <path class="cls-13" d="M1442.04,85.27c-5.71-3.35-12.49-5.03-20.34-5.03s-14.63,1.68-20.34,5.03c-5.71,3.35-10.12,8.04-13.22,14.05-3.1,6.01-4.65,13.03-4.65,21.05s1.55,14.94,4.65,20.95c3.1,6.01,7.5,10.7,13.22,14.05,5.71,3.35,12.49,5.03,20.34,5.03s14.63-1.68,20.34-5.03c5.71-3.35,10.12-8.04,13.22-14.05,3.1-6.01,4.65-13,4.65-20.95s-1.55-15.04-4.65-21.05c-3.1-6.01-7.5-10.7-13.22-14.05Zm-5.86,47.03c-1.23,3.54-3.04,6.33-5.43,8.36-2.39,2.04-5.37,3.06-8.95,3.06s-6.63-1.02-9.07-3.06c-2.44-2.04-4.28-4.83-5.51-8.36-1.23-3.54-1.84-7.56-1.84-12.08s.61-8.54,1.84-12.08c1.23-3.54,3.07-6.33,5.51-8.39,2.44-2.05,5.47-3.08,9.07-3.08s6.55,1.03,8.95,3.08c2.39,2.06,4.2,4.85,5.43,8.39,1.23,3.54,1.84,7.56,1.84,12.08s-.61,8.54-1.84,12.08Z"/>
        <path class="cls-13" d="M1502.11,69.9c1.25-1.47,3.45-2.2,6.62-2.2,1.28,0,2.54,.12,3.77,.35,1.23,.24,2.27,.49,3.11,.76l3.84-16.17c-1.35-.4-3.4-.86-6.14-1.36-2.75-.51-5.77-.76-9.07-.76-4.89,0-9.25,.93-13.09,2.78-3.84,1.85-6.87,4.63-9.07,8.34-2.21,3.71-3.31,8.37-3.31,14v5.61h-10.97v16.17h10.97v61.46h21.48v-61.46h15.47v-16.17h-15.47v-5.21c0-2.63,.62-4.68,1.87-6.14Z"/>
        <rect class="cls-13" x="1528.84" y="81.25" width="21.53" height="77.63"/>
        <path class="cls-13" d="M1539.66,49.46c-3.17,0-5.9,1.07-8.19,3.21-2.29,2.14-3.44,4.71-3.44,7.71s1.14,5.56,3.41,7.68c2.27,2.12,5.01,3.18,8.21,3.18s5.94-1.07,8.21-3.21c2.27-2.14,3.41-4.71,3.41-7.71s-1.14-5.56-3.41-7.68c-2.27-2.12-5.01-3.18-8.21-3.18Z"/>
        <rect class="cls-13" x="1567.56" y="55.37" width="21.53" height="103.51"/>
        <path class="cls-13" d="M1677.28,125.57v-5.91c0-6.6-.93-12.37-2.78-17.31-1.85-4.94-4.44-9.04-7.76-12.31-3.32-3.27-7.19-5.72-11.62-7.35-4.43-1.63-9.21-2.45-14.33-2.45-7.62,0-14.24,1.69-19.89,5.05-5.64,3.37-10.02,8.07-13.12,14.1-3.1,6.03-4.65,13.04-4.65,21.03s1.55,15.27,4.65,21.25c3.1,5.98,7.52,10.6,13.27,13.85,5.74,3.25,12.61,4.88,20.6,4.88,6.4,0,12.05-.99,16.96-2.96,4.9-1.97,8.91-4.73,12.03-8.29,3.12-3.55,5.18-7.72,6.19-12.51l-19.91-1.31c-.74,1.95-1.82,3.61-3.23,4.95-1.42,1.35-3.12,2.36-5.1,3.03-1.99,.67-4.18,1.01-6.57,1.01-3.61,0-6.72-.76-9.35-2.27-2.63-1.52-4.66-3.67-6.09-6.47-1.43-2.8-2.15-6.12-2.15-9.96v-.05h52.87Zm-44.81-27.01c2.51-1.5,5.4-2.25,8.67-2.25s5.89,.68,8.26,2.05c2.38,1.36,4.24,3.24,5.58,5.64,1.35,2.39,2.02,5.14,2.02,8.24h-32.57c.13-2.79,.84-5.34,2.15-7.66,1.42-2.51,3.38-4.52,5.89-6.01Z"/>
      </g>
    </g>
    <g>
      <g>
        <path class="cls-4" d="M850.83,63.19v18.9h14.73v16.43h-14.73v38.21c0,2.02,.31,3.59,.92,4.7,.61,1.11,1.47,1.89,2.57,2.34,1.1,.45,2.39,.67,3.85,.67,1.02,0,2.04-.09,3.06-.28,1.02-.19,1.8-.33,2.34-.44l3.41,16.28c-1.09,.34-2.62,.74-4.59,1.21-1.97,.46-4.37,.74-7.19,.85-.59,.02-1.18,.04-1.76,.04-4.51,0-8.5-.71-11.98-2.14-3.92-1.61-6.97-4.11-9.15-7.5-2.17-3.39-3.25-7.67-3.21-12.84v-41.08h-10.7v-16.43h10.7v-18.9h21.71m2-2h-25.71v18.9h-10.7v20.43h10.7v39.08c-.04,5.53,1.15,10.21,3.53,13.92,2.39,3.73,5.78,6.51,10.07,8.27,3.71,1.52,7.99,2.29,12.74,2.29,.6,0,1.22-.01,1.83-.04,2.93-.11,5.48-.41,7.56-.9,2.05-.48,3.6-.89,4.73-1.25l1.73-.54-.37-1.77-3.41-16.28-.4-1.92-1.93,.36c-.54,.1-1.32,.25-2.34,.44-.89,.17-1.8,.25-2.69,.25-1.2,0-2.24-.18-3.1-.52-.68-.27-1.18-.73-1.57-1.45-.31-.56-.67-1.65-.67-3.74v-36.21h14.73v-20.43h-14.73v-18.9h0Z"/>
        <path class="cls-4" d="M914.08,81.06c7.92,0,14.75,1.7,20.51,5.11,5.76,3.41,10.2,8.17,13.33,14.28,3.13,6.11,4.69,13.24,4.69,21.39s-1.56,15.17-4.69,21.29c-3.13,6.11-7.57,10.87-13.33,14.28-5.76,3.41-12.6,5.11-20.51,5.11s-14.75-1.7-20.51-5.11c-5.76-3.41-10.2-8.16-13.33-14.28-3.13-6.11-4.69-13.21-4.69-21.29s1.56-15.28,4.69-21.39c3.13-6.11,7.57-10.87,13.33-14.28,5.76-3.41,12.6-5.11,20.51-5.11m.1,64.5c3.6,0,6.61-1.04,9.02-3.11,2.41-2.07,4.24-4.9,5.48-8.5,1.24-3.59,1.86-7.69,1.86-12.27s-.62-8.68-1.86-12.27c-1.24-3.59-3.07-6.44-5.48-8.52-2.41-2.09-5.42-3.13-9.02-3.13s-6.68,1.04-9.15,3.13c-2.46,2.09-4.31,4.93-5.55,8.52-1.24,3.59-1.86,7.69-1.86,12.27s.62,8.68,1.86,12.27c1.24,3.59,3.09,6.43,5.55,8.5,2.46,2.07,5.51,3.11,9.15,3.11m-.1-66.5c-8.24,0-15.49,1.81-21.53,5.39-6.06,3.59-10.8,8.66-14.09,15.09-3.26,6.37-4.91,13.87-4.91,22.3s1.65,15.83,4.91,22.2c3.29,6.43,8.03,11.5,14.09,15.09,6.04,3.58,13.29,5.39,21.53,5.39s15.49-1.81,21.53-5.39c6.06-3.58,10.8-8.66,14.09-15.09,3.26-6.37,4.91-13.84,4.91-22.2s-1.65-15.93-4.91-22.3c-3.29-6.42-8.03-11.5-14.09-15.09-6.05-3.58-13.29-5.39-21.53-5.39h0Zm.1,64.5c-3.18,0-5.75-.86-7.86-2.64-2.17-1.82-3.84-4.39-4.95-7.62-1.16-3.37-1.75-7.28-1.75-11.62s.59-8.25,1.75-11.62c1.12-3.23,2.78-5.81,4.96-7.65,2.11-1.79,4.68-2.66,7.85-2.66s5.66,.87,7.71,2.64c2.13,1.84,3.78,4.42,4.9,7.66,1.16,3.37,1.75,7.28,1.75,11.62s-.59,8.25-1.75,11.62c-1.12,3.24-2.76,5.81-4.89,7.63-2.06,1.77-4.58,2.63-7.72,2.63h0Z"/>
        <path class="cls-4" d="M1088.85,81.06c7.3,0,13.24,2.34,17.81,7.01,4.57,4.67,6.85,11.29,6.85,19.85v53.05h-21.66v-48.73c0-4.38-1.16-7.67-3.47-9.86-2.31-2.19-5.2-3.29-8.66-3.29-3.94,0-7.02,1.26-9.22,3.77-2.21,2.52-3.31,5.83-3.31,9.94v48.17h-21.05v-49.19c0-3.87-1.1-6.95-3.29-9.24-2.19-2.29-5.07-3.44-8.64-3.44-2.41,0-4.58,.61-6.5,1.82-1.92,1.22-3.44,2.91-4.56,5.08-1.12,2.17-1.68,4.72-1.68,7.63v47.35h-21.71V82.09h20.69v13.92h.92c1.63-4.62,4.35-8.27,8.15-10.94,3.8-2.67,8.36-4.01,13.66-4.01s9.94,1.34,13.71,4.03c3.77,2.69,6.29,6.33,7.54,10.91h.82c1.6-4.52,4.49-8.14,8.69-10.86s9.17-4.08,14.91-4.08m0-2c-6.11,0-11.49,1.48-16,4.4-3.39,2.2-6.02,4.97-7.86,8.27-1.56-3.32-3.88-6.09-6.94-8.27-4.1-2.92-9.1-4.4-14.87-4.4s-10.68,1.47-14.81,4.37c-2.35,1.65-4.33,3.65-5.92,5.99v-9.33h-24.69v82.88h25.71v-49.35c0-2.57,.49-4.83,1.46-6.71,.96-1.87,2.22-3.28,3.85-4.31,1.61-1.02,3.38-1.51,5.43-1.51,3.03,0,5.38,.92,7.19,2.82,1.84,1.92,2.73,4.5,2.73,7.86v51.19h25.05v-50.17c0-3.64,.92-6.46,2.82-8.62,1.83-2.08,4.35-3.09,7.72-3.09,2.96,0,5.34,.9,7.29,2.74,1.89,1.79,2.84,4.62,2.84,8.41v50.73h25.66v-55.05c0-9.06-2.5-16.21-7.42-21.25-4.94-5.05-11.41-7.61-19.24-7.61h0Z"/>
        <path class="cls-4" d="M1200.62,82.09l-30.42,87.4c-1.46,4.24-3.44,7.95-5.94,11.12-2.5,3.17-5.65,5.61-9.45,7.34-3.81,1.73-8.39,2.59-13.76,2.59-2.75,0-5.33-.21-7.72-.64-2.39-.43-4.37-.97-5.94-1.62l4.89-16.33c2.55,.79,4.85,1.21,6.91,1.28,.13,0,.25,0,.38,0,1.9,0,3.55-.48,4.97-1.44,1.51-1.03,2.74-2.77,3.7-5.24l1.27-3.34-28.08-81.14h22.83l16.21,57.93h.82l16.36-57.93h22.98m2.81-2h-27.31l-.41,1.46-14.84,52.53-14.69-52.52-.41-1.46h-27.16l.92,2.65,27.84,80.45-1.01,2.66c-.8,2.06-1.79,3.51-2.95,4.3-1.09,.74-2.35,1.1-3.85,1.1-.1,0-.21,0-.31,0-1.87-.06-4.02-.47-6.38-1.2l-1.93-.6-.58,1.93-4.89,16.33-.52,1.73,1.67,.69c1.69,.7,3.83,1.29,6.35,1.74,2.5,.45,5.22,.67,8.07,.67,5.63,0,10.54-.93,14.59-2.77,4.08-1.86,7.51-4.52,10.2-7.93,2.63-3.33,4.73-7.27,6.26-11.7l30.42-87.39,.93-2.66h0Z"/>
      </g>
      <g>
        <g>
          <path class="cls-2" d="M853.45,163.08c-4.62,0-8.77-.75-12.36-2.22-4.1-1.68-7.33-4.33-9.61-7.88-2.27-3.54-3.4-8.04-3.37-13.38v-40.07h-10.7v-18.43h10.7v-18.9h23.71v18.9h14.73v18.43h-14.73v37.21c0,1.84,.27,3.26,.79,4.22,.5,.91,1.18,1.53,2.07,1.89,.98,.4,2.15,.6,3.47,.6,.96,0,1.92-.09,2.88-.27l3.3-.62,3.8,18.12-.86,.27c-1.11,.35-2.63,.75-4.66,1.23-2.02,.47-4.51,.77-7.38,.87-.6,.02-1.2,.04-1.79,.04Z"/>
          <path class="cls-2" d="M850.83,63.19v18.9h14.73v16.43h-14.73v38.21c0,2.02,.31,3.59,.92,4.7,.61,1.11,1.47,1.89,2.57,2.34,1.1,.45,2.39,.67,3.85,.67,1.02,0,2.04-.09,3.06-.28,1.02-.19,1.8-.33,2.34-.44l3.41,16.28c-1.09,.34-2.62,.74-4.59,1.21-1.97,.46-4.37,.74-7.19,.85-.59,.02-1.18,.04-1.76,.04-4.51,0-8.5-.71-11.98-2.14-3.92-1.61-6.97-4.11-9.15-7.5-2.17-3.39-3.25-7.67-3.21-12.84v-41.08h-10.7v-16.43h10.7v-18.9h21.71m2-2h-25.71v18.9h-10.7v20.43h10.7v39.08c-.04,5.53,1.15,10.21,3.53,13.92,2.39,3.73,5.78,6.51,10.07,8.27,3.71,1.52,7.99,2.29,12.74,2.29,.6,0,1.22-.01,1.83-.04,2.93-.11,5.48-.41,7.56-.9,2.05-.48,3.6-.89,4.73-1.25l1.73-.54-.37-1.77-3.41-16.28-.4-1.92-1.93,.36c-.54,.1-1.32,.25-2.34,.44-.89,.17-1.8,.25-2.69,.25-1.2,0-2.24-.18-3.1-.52-.68-.27-1.18-.73-1.57-1.45-.31-.56-.67-1.65-.67-3.74v-36.21h14.73v-20.43h-14.73v-18.9h0Z"/>
        </g>
        <g>
          <path class="cls-2" d="M914.08,163.51c-8.06,0-15.13-1.77-21.02-5.25-5.9-3.49-10.51-8.43-13.71-14.68-3.18-6.22-4.8-13.54-4.8-21.74s1.61-15.62,4.8-21.84c3.2-6.25,7.81-11.19,13.71-14.68,5.89-3.48,12.96-5.25,21.02-5.25s15.13,1.77,21.02,5.25c5.9,3.49,10.51,8.43,13.71,14.68,3.18,6.23,4.8,13.57,4.8,21.84s-1.61,15.51-4.8,21.74c-3.2,6.25-7.81,11.19-13.71,14.68-5.89,3.48-12.96,5.25-21.02,5.25Zm.1-64.75c-3.37,0-6.23,.97-8.5,2.9-2.31,1.96-4.08,4.68-5.26,8.09-1.2,3.47-1.81,7.49-1.81,11.95s.61,8.48,1.81,11.95c1.17,3.41,2.94,6.12,5.25,8.06,2.27,1.91,5.13,2.87,8.5,2.87s6.15-.96,8.37-2.87c2.26-1.94,4.01-4.66,5.18-8.07,1.2-3.47,1.81-7.49,1.81-11.95s-.61-8.47-1.81-11.95c-1.18-3.41-2.92-6.13-5.19-8.09-2.21-1.92-5.03-2.89-8.37-2.89Z"/>
          <path class="cls-2" d="M914.08,81.06c7.92,0,14.75,1.7,20.51,5.11,5.76,3.41,10.2,8.17,13.33,14.28,3.13,6.11,4.69,13.24,4.69,21.39s-1.56,15.17-4.69,21.29c-3.13,6.11-7.57,10.87-13.33,14.28-5.76,3.41-12.6,5.11-20.51,5.11s-14.75-1.7-20.51-5.11c-5.76-3.41-10.2-8.16-13.33-14.28-3.13-6.11-4.69-13.21-4.69-21.29s1.56-15.28,4.69-21.39c3.13-6.11,7.57-10.87,13.33-14.28,5.76-3.41,12.6-5.11,20.51-5.11m.1,64.5c3.6,0,6.61-1.04,9.02-3.11,2.41-2.07,4.24-4.9,5.48-8.5,1.24-3.59,1.86-7.69,1.86-12.27s-.62-8.68-1.86-12.27c-1.24-3.59-3.07-6.44-5.48-8.52-2.41-2.09-5.42-3.13-9.02-3.13s-6.68,1.04-9.15,3.13c-2.46,2.09-4.31,4.93-5.55,8.52-1.24,3.59-1.86,7.69-1.86,12.27s.62,8.68,1.86,12.27c1.24,3.59,3.09,6.43,5.55,8.5,2.46,2.07,5.51,3.11,9.15,3.11m-.1-66.5c-8.24,0-15.49,1.81-21.53,5.39-6.06,3.59-10.8,8.66-14.09,15.09-3.26,6.37-4.91,13.87-4.91,22.3s1.65,15.83,4.91,22.2c3.29,6.43,8.03,11.5,14.09,15.09,6.04,3.58,13.29,5.39,21.53,5.39s15.49-1.81,21.53-5.39c6.06-3.58,10.8-8.66,14.09-15.09,3.26-6.37,4.91-13.84,4.91-22.2s-1.65-15.93-4.91-22.3c-3.29-6.42-8.03-11.5-14.09-15.09-6.05-3.58-13.29-5.39-21.53-5.39h0Zm.1,64.5c-3.18,0-5.75-.86-7.86-2.64-2.17-1.82-3.84-4.39-4.95-7.62-1.16-3.37-1.75-7.28-1.75-11.62s.59-8.25,1.75-11.62c1.12-3.23,2.78-5.81,4.96-7.65,2.11-1.79,4.68-2.66,7.85-2.66s5.66,.87,7.71,2.64c2.13,1.84,3.78,4.42,4.9,7.66,1.16,3.37,1.75,7.28,1.75,11.62s-.59,8.25-1.75,11.62c-1.12,3.24-2.76,5.81-4.89,7.63-2.06,1.77-4.58,2.63-7.72,2.63h0Z"/>
        </g>
        <g>
          <path class="cls-2" d="M1090.86,161.97v-49.73c0-4.08-1.06-7.15-3.15-9.13-2.14-2.03-4.75-3.01-7.97-3.01-3.67,0-6.45,1.12-8.47,3.43-2.03,2.32-3.06,5.44-3.06,9.28v49.17h-23.05v-50.19c0-3.58-1.01-6.46-3.01-8.55-2.01-2.11-4.6-3.13-7.92-3.13-2.21,0-4.21,.56-5.96,1.67-1.76,1.11-3.17,2.69-4.21,4.7-1.04,2.02-1.57,4.43-1.57,7.17v48.35h-23.71V81.09h22.69v12.09c1.73-3.65,4.25-6.65,7.5-8.93,3.96-2.78,8.75-4.19,14.23-4.19s10.36,1.42,14.29,4.22c3.5,2.5,6,5.81,7.43,9.88,1.75-4.02,4.6-7.33,8.49-9.85,4.34-2.82,9.54-4.24,15.45-4.24,7.55,0,13.78,2.46,18.53,7.31,4.74,4.84,7.14,11.76,7.14,20.55v54.05h-23.66Z"/>
          <path class="cls-2" d="M1088.85,81.06c7.3,0,13.24,2.34,17.81,7.01,4.57,4.67,6.85,11.29,6.85,19.85v53.05h-21.66v-48.73c0-4.38-1.16-7.67-3.47-9.86-2.31-2.19-5.2-3.29-8.66-3.29-3.94,0-7.02,1.26-9.22,3.77-2.21,2.52-3.31,5.83-3.31,9.94v48.17h-21.05v-49.19c0-3.87-1.1-6.95-3.29-9.24-2.19-2.29-5.07-3.44-8.64-3.44-2.41,0-4.58,.61-6.5,1.82-1.92,1.22-3.44,2.91-4.56,5.08-1.12,2.17-1.68,4.72-1.68,7.63v47.35h-21.71V82.09h20.69v13.92h.92c1.63-4.62,4.35-8.27,8.15-10.94,3.8-2.67,8.36-4.01,13.66-4.01s9.94,1.34,13.71,4.03c3.77,2.69,6.29,6.33,7.54,10.91h.82c1.6-4.52,4.49-8.14,8.69-10.86s9.17-4.08,14.91-4.08m0-2c-6.11,0-11.49,1.48-16,4.4-3.39,2.2-6.02,4.97-7.86,8.27-1.56-3.32-3.88-6.09-6.94-8.27-4.1-2.92-9.1-4.4-14.87-4.4s-10.68,1.47-14.81,4.37c-2.35,1.65-4.33,3.65-5.92,5.99v-9.33h-24.69v82.88h25.71v-49.35c0-2.57,.49-4.83,1.46-6.71,.96-1.87,2.22-3.28,3.85-4.31,1.61-1.02,3.38-1.51,5.43-1.51,3.03,0,5.38,.92,7.19,2.82,1.84,1.92,2.73,4.5,2.73,7.86v51.19h25.05v-50.17c0-3.64,.92-6.46,2.82-8.62,1.83-2.08,4.35-3.09,7.72-3.09,2.96,0,5.34,.9,7.29,2.74,1.89,1.79,2.84,4.62,2.84,8.41v50.73h25.66v-55.05c0-9.06-2.5-16.21-7.42-21.25-4.94-5.05-11.41-7.61-19.24-7.61h0Z"/>
        </g>
        <g>
          <path class="cls-2" d="M1141.05,191.54c-2.8,0-5.46-.22-7.9-.66-2.46-.44-4.52-1-6.14-1.68l-.83-.35,5.44-18.16,.96,.3c2.45,.76,4.69,1.17,6.64,1.24,.11,0,.23,0,.34,0,1.71,0,3.15-.42,4.41-1.27,1.33-.91,2.45-2.51,3.33-4.77l1.14-2.99-28.42-82.12h24.99l15.86,56.68,16.01-56.68h25.15l-30.89,88.73c-1.49,4.33-3.54,8.17-6.1,11.41-2.58,3.28-5.89,5.85-9.82,7.63-3.92,1.78-8.69,2.68-14.17,2.68Z"/>
          <path class="cls-2" d="M1200.62,82.09l-30.42,87.4c-1.46,4.24-3.44,7.95-5.94,11.12-2.5,3.17-5.65,5.61-9.45,7.34-3.81,1.73-8.39,2.59-13.76,2.59-2.75,0-5.33-.21-7.72-.64-2.39-.43-4.37-.97-5.94-1.62l4.89-16.33c2.55,.79,4.85,1.21,6.91,1.28,.13,0,.25,0,.38,0,1.9,0,3.55-.48,4.97-1.44,1.51-1.03,2.74-2.77,3.7-5.24l1.27-3.34-28.08-81.14h22.83l16.21,57.93h.82l16.36-57.93h22.98m2.81-2h-27.31l-.41,1.46-14.84,52.53-14.69-52.52-.41-1.46h-27.16l.92,2.65,27.84,80.45-1.01,2.66c-.8,2.06-1.79,3.51-2.95,4.3-1.09,.74-2.35,1.1-3.85,1.1-.1,0-.21,0-.31,0-1.87-.06-4.02-.47-6.38-1.2l-1.93-.6-.58,1.93-4.89,16.33-.52,1.73,1.67,.69c1.69,.7,3.83,1.29,6.35,1.74,2.5,.45,5.22,.67,8.07,.67,5.63,0,10.54-.93,14.59-2.77,4.08-1.86,7.51-4.52,10.2-7.93,2.63-3.33,4.73-7.27,6.26-11.7l30.42-87.39,.93-2.66h0Z"/>
        </g>
      </g>
    </g>
    <g class="cls-7">
      <g>
        <path class="cls-6" d="M1302.01,84.66c-4.78-2.95-10.01-4.42-15.67-4.42-4.35,0-7.98,.73-10.89,2.2-2.91,1.47-5.27,3.29-7.08,5.46-1.8,2.17-3.18,4.31-4.12,6.39h-.96v-13.04h-21.23v106.75h21.53v-41.55h.66c.98,2.16,2.39,4.29,4.25,6.39,1.85,2.11,4.24,3.85,7.15,5.23,2.91,1.38,6.46,2.07,10.64,2.07,5.9,0,11.23-1.52,16-4.57,4.77-3.05,8.54-7.55,11.32-13.49,2.78-5.95,4.17-13.25,4.17-21.91s-1.43-16.3-4.3-22.21c-2.86-5.91-6.69-10.34-11.47-13.29Zm-8.11,47.36c-1.26,3.45-3.11,6.15-5.53,8.09-2.43,1.94-5.39,2.91-8.9,2.91s-6.42-.95-8.84-2.86c-2.43-1.9-4.28-4.57-5.56-8.01-1.28-3.44-1.92-7.46-1.92-12.08s.64-8.63,1.92-12.03c1.28-3.4,3.13-6.03,5.53-7.88,2.41-1.85,5.37-2.78,8.87-2.78s6.52,.96,8.95,2.88c2.43,1.92,4.26,4.58,5.51,7.99,1.25,3.4,1.87,7.35,1.87,11.83s-.63,8.5-1.9,11.95Z"/>
        <path class="cls-6" d="M1372.42,80.14c-4.35,0-8.19,1.24-11.52,3.71-3.33,2.48-5.71,6.12-7.13,10.94h-.81v-13.55h-20.87v77.63h21.53v-43.92c0-3.17,.72-5.96,2.15-8.39,1.43-2.43,3.39-4.32,5.86-5.69,2.48-1.36,5.3-2.05,8.47-2.05,1.48,0,3.12,.12,4.9,.35,1.79,.24,3.18,.51,4.2,.81v-19.11c-.94-.24-2.04-.42-3.29-.56-1.25-.13-2.41-.2-3.49-.2Z"/>
        <path class="cls-6" d="M1442.04,85.27c-5.71-3.35-12.49-5.03-20.34-5.03s-14.63,1.68-20.34,5.03c-5.71,3.35-10.12,8.04-13.22,14.05-3.1,6.01-4.65,13.03-4.65,21.05s1.55,14.94,4.65,20.95c3.1,6.01,7.5,10.7,13.22,14.05,5.71,3.35,12.49,5.03,20.34,5.03s14.63-1.68,20.34-5.03c5.71-3.35,10.12-8.04,13.22-14.05,3.1-6.01,4.65-13,4.65-20.95s-1.55-15.04-4.65-21.05c-3.1-6.01-7.5-10.7-13.22-14.05Zm-5.86,47.03c-1.23,3.54-3.04,6.33-5.43,8.36-2.39,2.04-5.37,3.06-8.95,3.06s-6.63-1.02-9.07-3.06c-2.44-2.04-4.28-4.83-5.51-8.36-1.23-3.54-1.84-7.56-1.84-12.08s.61-8.54,1.84-12.08c1.23-3.54,3.07-6.33,5.51-8.39,2.44-2.05,5.47-3.08,9.07-3.08s6.55,1.03,8.95,3.08c2.39,2.06,4.2,4.85,5.43,8.39,1.23,3.54,1.84,7.56,1.84,12.08s-.61,8.54-1.84,12.08Z"/>
        <path class="cls-6" d="M1502.11,69.9c1.25-1.47,3.45-2.2,6.62-2.2,1.28,0,2.54,.12,3.77,.35,1.23,.24,2.27,.49,3.11,.76l3.84-16.17c-1.35-.4-3.4-.86-6.14-1.36-2.75-.51-5.77-.76-9.07-.76-4.89,0-9.25,.93-13.09,2.78-3.84,1.85-6.87,4.63-9.07,8.34-2.21,3.71-3.31,8.37-3.31,14v5.61h-10.97v16.17h10.97v61.46h21.48v-61.46h15.47v-16.17h-15.47v-5.21c0-2.63,.62-4.68,1.87-6.14Z"/>
        <rect class="cls-6" x="1528.84" y="81.25" width="21.53" height="77.63"/>
        <path class="cls-6" d="M1539.66,49.46c-3.17,0-5.9,1.07-8.19,3.21-2.29,2.14-3.44,4.71-3.44,7.71s1.14,5.56,3.41,7.68c2.27,2.12,5.01,3.18,8.21,3.18s5.94-1.07,8.21-3.21c2.27-2.14,3.41-4.71,3.41-7.71s-1.14-5.56-3.41-7.68c-2.27-2.12-5.01-3.18-8.21-3.18Z"/>
        <rect class="cls-6" x="1567.56" y="55.37" width="21.53" height="103.51"/>
        <path class="cls-6" d="M1677.28,125.57v-5.91c0-6.6-.93-12.37-2.78-17.31-1.85-4.94-4.44-9.04-7.76-12.31-3.32-3.27-7.19-5.72-11.62-7.35-4.43-1.63-9.21-2.45-14.33-2.45-7.62,0-14.24,1.69-19.89,5.05-5.64,3.37-10.02,8.07-13.12,14.1-3.1,6.03-4.65,13.04-4.65,21.03s1.55,15.27,4.65,21.25c3.1,5.98,7.52,10.6,13.27,13.85,5.74,3.25,12.61,4.88,20.6,4.88,6.4,0,12.05-.99,16.96-2.96,4.9-1.97,8.91-4.73,12.03-8.29,3.12-3.55,5.18-7.72,6.19-12.51l-19.91-1.31c-.74,1.95-1.82,3.61-3.23,4.95-1.42,1.35-3.12,2.36-5.1,3.03-1.99,.67-4.18,1.01-6.57,1.01-3.61,0-6.72-.76-9.35-2.27-2.63-1.52-4.66-3.67-6.09-6.47-1.43-2.8-2.15-6.12-2.15-9.96v-.05h52.87Zm-44.81-27.01c2.51-1.5,5.4-2.25,8.67-2.25s5.89,.68,8.26,2.05c2.38,1.36,4.24,3.24,5.58,5.64,1.35,2.39,2.02,5.14,2.02,8.24h-32.57c.13-2.79,.84-5.34,2.15-7.66,1.42-2.51,3.38-4.52,5.89-6.01Z"/>
      </g>
      <g>
        <path class="cls-10" d="M1302.01,84.66c-4.78-2.95-10.01-4.42-15.67-4.42-4.35,0-7.98,.73-10.89,2.2-2.91,1.47-5.27,3.29-7.08,5.46-1.8,2.17-3.18,4.31-4.12,6.39h-.96v-13.04h-21.23v106.75h21.53v-41.55h.66c.98,2.16,2.39,4.29,4.25,6.39,1.85,2.11,4.24,3.85,7.15,5.23,2.91,1.38,6.46,2.07,10.64,2.07,5.9,0,11.23-1.52,16-4.57,4.77-3.05,8.54-7.55,11.32-13.49,2.78-5.95,4.17-13.25,4.17-21.91s-1.43-16.3-4.3-22.21c-2.86-5.91-6.69-10.34-11.47-13.29Zm-8.11,47.36c-1.26,3.45-3.11,6.15-5.53,8.09-2.43,1.94-5.39,2.91-8.9,2.91s-6.42-.95-8.84-2.86c-2.43-1.9-4.28-4.57-5.56-8.01-1.28-3.44-1.92-7.46-1.92-12.08s.64-8.63,1.92-12.03c1.28-3.4,3.13-6.03,5.53-7.88,2.41-1.85,5.37-2.78,8.87-2.78s6.52,.96,8.95,2.88c2.43,1.92,4.26,4.58,5.51,7.99,1.25,3.4,1.87,7.35,1.87,11.83s-.63,8.5-1.9,11.95Z"/>
        <path class="cls-10" d="M1372.42,80.14c-4.35,0-8.19,1.24-11.52,3.71-3.33,2.48-5.71,6.12-7.13,10.94h-.81v-13.55h-20.87v77.63h21.53v-43.92c0-3.17,.72-5.96,2.15-8.39,1.43-2.43,3.39-4.32,5.86-5.69,2.48-1.36,5.3-2.05,8.47-2.05,1.48,0,3.12,.12,4.9,.35,1.79,.24,3.18,.51,4.2,.81v-19.11c-.94-.24-2.04-.42-3.29-.56-1.25-.13-2.41-.2-3.49-.2Z"/>
        <path class="cls-10" d="M1442.04,85.27c-5.71-3.35-12.49-5.03-20.34-5.03s-14.63,1.68-20.34,5.03c-5.71,3.35-10.12,8.04-13.22,14.05-3.1,6.01-4.65,13.03-4.65,21.05s1.55,14.94,4.65,20.95c3.1,6.01,7.5,10.7,13.22,14.05,5.71,3.35,12.49,5.03,20.34,5.03s14.63-1.68,20.34-5.03c5.71-3.35,10.12-8.04,13.22-14.05,3.1-6.01,4.65-13,4.65-20.95s-1.55-15.04-4.65-21.05c-3.1-6.01-7.5-10.7-13.22-14.05Zm-5.86,47.03c-1.23,3.54-3.04,6.33-5.43,8.36-2.39,2.04-5.37,3.06-8.95,3.06s-6.63-1.02-9.07-3.06c-2.44-2.04-4.28-4.83-5.51-8.36-1.23-3.54-1.84-7.56-1.84-12.08s.61-8.54,1.84-12.08c1.23-3.54,3.07-6.33,5.51-8.39,2.44-2.05,5.47-3.08,9.07-3.08s6.55,1.03,8.95,3.08c2.39,2.06,4.2,4.85,5.43,8.39,1.23,3.54,1.84,7.56,1.84,12.08s-.61,8.54-1.84,12.08Z"/>
        <path class="cls-10" d="M1502.11,69.9c1.25-1.47,3.45-2.2,6.62-2.2,1.28,0,2.54,.12,3.77,.35,1.23,.24,2.27,.49,3.11,.76l3.84-16.17c-1.35-.4-3.4-.86-6.14-1.36-2.75-.51-5.77-.76-9.07-.76-4.89,0-9.25,.93-13.09,2.78-3.84,1.85-6.87,4.63-9.07,8.34-2.21,3.71-3.31,8.37-3.31,14v5.61h-10.97v16.17h10.97v61.46h21.48v-61.46h15.47v-16.17h-15.47v-5.21c0-2.63,.62-4.68,1.87-6.14Z"/>
        <rect class="cls-10" x="1528.84" y="81.25" width="21.53" height="77.63"/>
        <path class="cls-10" d="M1539.66,49.46c-3.17,0-5.9,1.07-8.19,3.21-2.29,2.14-3.44,4.71-3.44,7.71s1.14,5.56,3.41,7.68c2.27,2.12,5.01,3.18,8.21,3.18s5.94-1.07,8.21-3.21c2.27-2.14,3.41-4.71,3.41-7.71s-1.14-5.56-3.41-7.68c-2.27-2.12-5.01-3.18-8.21-3.18Z"/>
        <rect class="cls-10" x="1567.56" y="55.37" width="21.53" height="103.51"/>
        <path class="cls-10" d="M1677.28,125.57v-5.91c0-6.6-.93-12.37-2.78-17.31-1.85-4.94-4.44-9.04-7.76-12.31-3.32-3.27-7.19-5.72-11.62-7.35-4.43-1.63-9.21-2.45-14.33-2.45-7.62,0-14.24,1.69-19.89,5.05-5.64,3.37-10.02,8.07-13.12,14.1-3.1,6.03-4.65,13.04-4.65,21.03s1.55,15.27,4.65,21.25c3.1,5.98,7.52,10.6,13.27,13.85,5.74,3.25,12.61,4.88,20.6,4.88,6.4,0,12.05-.99,16.96-2.96,4.9-1.97,8.91-4.73,12.03-8.29,3.12-3.55,5.18-7.72,6.19-12.51l-19.91-1.31c-.74,1.95-1.82,3.61-3.23,4.95-1.42,1.35-3.12,2.36-5.1,3.03-1.99,.67-4.18,1.01-6.57,1.01-3.61,0-6.72-.76-9.35-2.27-2.63-1.52-4.66-3.67-6.09-6.47-1.43-2.8-2.15-6.12-2.15-9.96v-.05h52.87Zm-44.81-27.01c2.51-1.5,5.4-2.25,8.67-2.25s5.89,.68,8.26,2.05c2.38,1.36,4.24,3.24,5.58,5.64,1.35,2.39,2.02,5.14,2.02,8.24h-32.57c.13-2.79,.84-5.34,2.15-7.66,1.42-2.51,3.38-4.52,5.89-6.01Z"/>
      </g>
    </g>
  </g>
</svg>