<?xml version="1.0" encoding="UTF-8"?>
<svg id="Warstwa_1" data-name="Warstwa 1" xmlns="http://www.w3.org/2000/svg" xmlns:xlink="http://www.w3.org/1999/xlink" viewBox="0 0 1741.71 240">
  <defs>
    <style>
      .cls-1, .cls-2, .cls-3 {
        fill: none;
      }

      .cls-4 {
        font-family: Inter-Bold, Inter;
        font-size: 142.11px;
        font-variation-settings: 'wght' 700, 'slnt' 0;
        font-weight: 700;
      }

      .cls-4, .cls-5 {
        fill: #fff;
      }

      .cls-6 {
        clip-path: url(#clippath);
      }

      .cls-7 {
        fill: #fbb9e4;
      }

      .cls-8 {
        clip-path: url(#clippath-1);
      }

      .cls-9 {
        clip-path: url(#clippath-4);
      }

      .cls-10 {
        clip-path: url(#clippath-3);
      }

      .cls-11 {
        clip-path: url(#clippath-2);
      }

      .cls-12 {
        letter-spacing: -.02em;
      }

      .cls-2 {
        stroke: #f9c2d2;
        stroke-miterlimit: 10;
        stroke-width: 2px;
      }

      .cls-3 {
        stroke: url(#Gradient_bez_nazwy_43);
      }

      .cls-13 {
        fill: url(#Gradient_bez_nazwy_11-6);
      }

      .cls-14 {
        fill: url(#Gradient_bez_nazwy_11-5);
      }

      .cls-15 {
        fill: url(#Gradient_bez_nazwy_11-2);
      }

      .cls-16 {
        fill: url(#Gradient_bez_nazwy_11-3);
      }

      .cls-17 {
        fill: url(#Gradient_bez_nazwy_11-4);
      }

      .cls-18 {
        fill: url(#Gradient_bez_nazwy_23-3);
      }

      .cls-19 {
        fill: url(#Gradient_bez_nazwy_23-4);
      }

      .cls-20 {
        fill: url(#Gradient_bez_nazwy_23-2);
      }

      .cls-21 {
        fill: url(#Gradient_bez_nazwy_7);
      }

      .cls-22 {
        fill: url(#Gradient_bez_nazwy_3);
      }

      .cls-23 {
        fill: url(#Gradient_bez_nazwy_23);
      }

      .cls-24 {
        fill: url(#Gradient_bez_nazwy_20);
      }

      .cls-25 {
        fill: url(#Gradient_bez_nazwy_11);
      }
    </style>
    <clipPath id="clippath">
      <rect class="cls-1" width="864.07" height="240"/>
    </clipPath>
    <radialGradient id="Gradient_bez_nazwy_20" data-name="Gradient bez nazwy 20" cx="594.24" cy="2128.33" fx="594.24" fy="2128.33" r="726.97" gradientTransform="translate(0 -400.38) scale(.45 .22)" gradientUnits="userSpaceOnUse">
      <stop offset="0" stop-color="#ffc1c3"/>
      <stop offset="1" stop-color="#ffc1c3" stop-opacity="0"/>
    </radialGradient>
    <radialGradient id="Gradient_bez_nazwy_11" data-name="Gradient bez nazwy 11" cx="1231.04" cy="2349.05" fx="1231.04" fy="2349.05" r="624.11" gradientTransform="translate(0 -400.38) scale(.45 .22)" gradientUnits="userSpaceOnUse">
      <stop offset="0" stop-color="#bab8ed"/>
      <stop offset="1" stop-color="#bab8ed" stop-opacity="0"/>
    </radialGradient>
    <radialGradient id="Gradient_bez_nazwy_11-2" data-name="Gradient bez nazwy 11" cx="1603.06" cy="2996.61" fx="1603.06" fy="2996.61" r="738.99" xlink:href="#Gradient_bez_nazwy_11"/>
    <radialGradient id="Gradient_bez_nazwy_23" data-name="Gradient bez nazwy 23" cx="1613.18" cy="1801.73" fx="1613.18" fy="1801.73" r="624.11" gradientTransform="translate(0 -400.38) scale(.45 .22)" gradientUnits="userSpaceOnUse">
      <stop offset="0" stop-color="#d79cdd"/>
      <stop offset="1" stop-color="#d79cdc" stop-opacity="0"/>
    </radialGradient>
    <radialGradient id="Gradient_bez_nazwy_23-2" data-name="Gradient bez nazwy 23" cx="-100.81" cy="2899.98" fx="-100.81" fy="2899.98" xlink:href="#Gradient_bez_nazwy_23"/>
    <clipPath id="clippath-1">
      <rect class="cls-1" x="462.44" y="-257.32" width="240" height="240"/>
    </clipPath>
    <clipPath id="clippath-2">
      <rect class="cls-1" x="1.44" y="-257.32" width="864.07" height="240"/>
    </clipPath>
    <radialGradient id="Gradient_bez_nazwy_11-3" data-name="Gradient bez nazwy 11" cx="1234.23" cy="1191.13" fx="1234.23" fy="1191.13" r="624.11" xlink:href="#Gradient_bez_nazwy_11"/>
    <radialGradient id="Gradient_bez_nazwy_11-4" data-name="Gradient bez nazwy 11" cx="1606.25" cy="1838.69" fx="1606.25" fy="1838.69" r="738.99" xlink:href="#Gradient_bez_nazwy_11"/>
    <radialGradient id="Gradient_bez_nazwy_23-3" data-name="Gradient bez nazwy 23" cx="-97.62" cy="1742.06" fx="-97.62" fy="1742.06" r="624.11" xlink:href="#Gradient_bez_nazwy_23"/>
    <clipPath id="clippath-3">
      <rect class="cls-1" x="1.44" y="-257.32" width="395.56" height="240"/>
    </clipPath>
    <clipPath id="clippath-4">
      <rect class="cls-1" y="-257.32" width="864.07" height="240"/>
    </clipPath>
    <radialGradient id="Gradient_bez_nazwy_11-5" data-name="Gradient bez nazwy 11" cy="1191.13" fy="1191.13" xlink:href="#Gradient_bez_nazwy_11"/>
    <radialGradient id="Gradient_bez_nazwy_11-6" data-name="Gradient bez nazwy 11" cx="1603.06" cy="1838.69" fx="1603.06" fy="1838.69" r="738.99" xlink:href="#Gradient_bez_nazwy_11"/>
    <radialGradient id="Gradient_bez_nazwy_23-4" data-name="Gradient bez nazwy 23" cx="-100.81" cy="1742.06" fx="-100.81" fy="1742.06" xlink:href="#Gradient_bez_nazwy_23"/>
    <linearGradient id="Gradient_bez_nazwy_43" data-name="Gradient bez nazwy 43" x1="834.49" y1="120" x2="1250.42" y2="120" gradientUnits="userSpaceOnUse">
      <stop offset="0" stop-color="#beb8ec"/>
      <stop offset="1" stop-color="#c2b9ec" stop-opacity="0"/>
    </linearGradient>
    <linearGradient id="Gradient_bez_nazwy_3" data-name="Gradient bez nazwy 3" x1="1553.04" y1="12.98" x2="1412.51" y2="256.39" gradientUnits="userSpaceOnUse">
      <stop offset="0" stop-color="#d08bc2"/>
      <stop offset=".04" stop-color="#d28dc3"/>
      <stop offset="1" stop-color="#fbb9e4"/>
    </linearGradient>
    <linearGradient id="Gradient_bez_nazwy_7" data-name="Gradient bez nazwy 7" x1="1553.04" y1="12.98" x2="1412.51" y2="256.39" gradientUnits="userSpaceOnUse">
      <stop offset="0" stop-color="#fbb9e4"/>
      <stop offset="1" stop-color="#ffc0c4" stop-opacity="0"/>
    </linearGradient>
  </defs>
  <g>
    <rect class="cls-7" width="864.07" height="240"/>
    <g class="cls-6">
      <rect class="cls-24" x="-59.74" y="-88.97" width="654.33" height="323.1"/>
      <rect class="cls-25" x="273.14" y="-17.06" width="561.74" height="277.38"/>
      <rect class="cls-15" x="388.86" y="101.31" width="665.14" height="328.44"/>
      <rect class="cls-23" x="445.12" y="-138.69" width="561.74" height="277.38"/>
      <rect class="cls-20" x="-326.24" y="105.36" width="561.74" height="277.38"/>
    </g>
  </g>
  <rect class="cls-5" x="753.89" width="987.82" height="240"/>
  <g class="cls-8">
    <g class="cls-11">
      <rect class="cls-16" x="274.58" y="-274.38" width="561.74" height="277.38"/>
      <rect class="cls-17" x="390.3" y="-156.01" width="665.14" height="328.44"/>
      <rect class="cls-18" x="-324.8" y="-151.95" width="561.74" height="277.38"/>
    </g>
  </g>
  <g class="cls-10">
    <g class="cls-9">
      <rect class="cls-14" x="273.14" y="-274.38" width="561.74" height="277.38"/>
      <rect class="cls-13" x="388.86" y="-156.01" width="665.14" height="328.44"/>
      <rect class="cls-19" x="-326.24" y="-151.95" width="561.74" height="277.38"/>
    </g>
  </g>
  <text class="cls-4" transform="translate(66.18 162.63)"><tspan x="0" y="0">bpLob</tspan><tspan class="cls-12" x="438.29" y="0">b</tspan><tspan x="526" y="0">y</tspan></text>
  <g>
    <g>
      <g>
        <path class="cls-5" d="M869.55,81.9c9.51,0,17,2.01,22.47,6.03s8.67,9.49,9.58,16.42l-19.11,1.18c-.33-1.63-1.03-3.11-2.11-4.43-1.08-1.32-2.49-2.38-4.24-3.19-1.75-.8-3.83-1.2-6.25-1.2-3.23,0-5.96,.68-8.18,2.03-2.22,1.36-3.33,3.16-3.33,5.42,0,1.8,.72,3.32,2.16,4.56,1.44,1.24,3.9,2.24,7.4,2.99l13.62,2.74c7.32,1.5,12.77,3.92,16.37,7.25,3.59,3.33,5.39,7.71,5.39,13.13,0,4.93-1.45,9.26-4.34,12.99-2.89,3.72-6.84,6.62-11.86,8.7-5.02,2.07-10.79,3.11-17.32,3.11-9.97,0-17.9-2.08-23.79-6.25-5.9-4.17-9.35-9.84-10.36-17.03l20.53-1.08c.62,3.04,2.12,5.35,4.51,6.93,2.38,1.58,5.44,2.38,9.16,2.38s6.61-.71,8.85-2.13c2.24-1.42,3.37-3.26,3.41-5.51-.03-1.89-.83-3.46-2.4-4.68-1.57-1.23-3.99-2.16-7.25-2.82l-13.04-2.6c-7.35-1.47-12.81-4.02-16.39-7.65-3.58-3.63-5.37-8.25-5.37-13.87,0-4.83,1.31-9,3.94-12.5,2.63-3.5,6.34-6.19,11.12-8.09,4.79-1.89,10.4-2.84,16.83-2.84m0-1c-6.53,0-12.32,.98-17.2,2.91-4.94,1.96-8.83,4.79-11.56,8.41-2.75,3.66-4.15,8.06-4.15,13.1,0,5.87,1.9,10.77,5.65,14.57,3.7,3.75,9.39,6.42,16.91,7.92l13.04,2.6c3.1,.62,5.4,1.5,6.83,2.63,1.33,1.04,1.99,2.32,2.02,3.91-.03,1.88-.99,3.41-2.94,4.65-2.07,1.31-4.86,1.98-8.31,1.98s-6.4-.74-8.61-2.21c-2.18-1.45-3.51-3.51-4.08-6.3l-.17-.84-.86,.05-20.53,1.08-1.09,.06,.15,1.08c1.05,7.44,4.67,13.4,10.78,17.71,6.04,4.27,14.24,6.43,24.37,6.43,6.63,0,12.59-1.07,17.71-3.19,5.15-2.13,9.28-5.16,12.27-9.01,3.02-3.89,4.55-8.46,4.55-13.6,0-5.69-1.92-10.35-5.71-13.87-3.71-3.44-9.38-5.97-16.85-7.5l-13.63-2.74c-3.3-.71-5.64-1.64-6.94-2.77-1.22-1.05-1.81-2.29-1.81-3.8,0-1.9,.93-3.39,2.85-4.56,2.05-1.25,4.63-1.89,7.66-1.89,2.26,0,4.22,.37,5.83,1.11,1.6,.73,2.91,1.71,3.88,2.91,.97,1.19,1.61,2.53,1.9,4l.17,.86,.87-.05,19.11-1.18,1.07-.07-.14-1.06c-.95-7.17-4.31-12.92-9.98-17.09-5.62-4.13-13.38-6.22-23.06-6.22h0Z"/>
        <path class="cls-5" d="M958.32,81.9c5.49,0,10.55,1.43,15.19,4.29,4.64,2.86,8.35,7.16,11.12,12.89,2.78,5.73,4.17,12.91,4.17,21.54s-1.35,15.48-4.04,21.24-6.36,10.13-10.98,13.08c-4.62,2.96-9.79,4.44-15.51,4.44-4.05,0-7.49-.67-10.32-2.01-2.83-1.34-5.14-3.03-6.93-5.07-1.8-2.04-3.17-4.11-4.12-6.2h-.64v40.28h-20.88V82.88h20.58v12.64h.93c.91-2.03,2.25-4.09,3.99-6.2,1.75-2.11,4.03-3.87,6.86-5.29,2.83-1.42,6.35-2.13,10.56-2.13m-6.66,60.87c3.4,0,6.27-.94,8.62-2.82,2.35-1.88,4.14-4.49,5.37-7.84,1.23-3.35,1.84-7.21,1.84-11.59s-.6-8.17-1.81-11.47c-1.21-3.3-2.99-5.88-5.34-7.74-2.35-1.86-5.24-2.79-8.67-2.79s-6.27,.9-8.6,2.7c-2.34,1.8-4.12,4.35-5.37,7.64-1.24,3.3-1.86,7.19-1.86,11.66s.62,8.38,1.86,11.71c1.24,3.33,3.04,5.92,5.39,7.77,2.35,1.85,5.21,2.77,8.58,2.77m6.66-61.87c-4.35,0-8.06,.75-11.01,2.24-2.94,1.48-5.35,3.34-7.18,5.55-1.25,1.51-2.31,3.02-3.16,4.51v-11.31h-22.58v105.5h22.88v-38.47c.83,1.36,1.83,2.72,3,4.04,1.88,2.14,4.32,3.92,7.26,5.32,2.95,1.4,6.56,2.11,10.74,2.11,5.88,0,11.28-1.55,16.05-4.59,4.76-3.05,8.58-7.59,11.34-13.5,2.75-5.87,4.14-13.16,4.14-21.67s-1.44-16.13-4.27-21.97c-2.85-5.88-6.72-10.36-11.5-13.3-4.78-2.94-10.07-4.44-15.72-4.44h0Zm-6.66,60.87c-3.12,0-5.8-.86-7.96-2.56-2.19-1.72-3.9-4.19-5.07-7.33-1.19-3.2-1.8-7.03-1.8-11.36s.61-8.14,1.8-11.31c1.17-3.11,2.86-5.53,5.04-7.2,2.15-1.65,4.83-2.49,7.99-2.49s5.89,.87,8.05,2.58c2.19,1.74,3.88,4.19,5.02,7.3,1.16,3.17,1.75,6.92,1.75,11.12s-.6,8.03-1.78,11.25c-1.16,3.16-2.85,5.65-5.05,7.4-2.16,1.73-4.85,2.6-8,2.6h0Z"/>
        <path class="cls-5" d="M1022.44,82.88v75.27h-20.88V82.88h20.88m1-1h-22.88v77.27h22.88V81.88h0Z"/>
        <path class="cls-5" d="M1012.05,52.05c3.1,0,5.76,1.03,7.96,3.09,2.21,2.06,3.31,4.54,3.31,7.45s-1.1,5.4-3.31,7.47c-2.21,2.08-4.86,3.11-7.96,3.11s-5.76-1.03-7.96-3.09c-2.21-2.06-3.31-4.54-3.31-7.45s1.11-5.4,3.33-7.47c2.22-2.07,4.87-3.11,7.94-3.11m0-1c-3.32,0-6.22,1.14-8.62,3.38-2.42,2.26-3.65,5.02-3.65,8.2s1.22,5.93,3.63,8.18c2.39,2.23,5.29,3.36,8.65,3.36s6.26-1.14,8.65-3.38c2.4-2.26,3.62-5.02,3.62-8.2s-1.22-5.93-3.63-8.18c-2.39-2.23-5.3-3.36-8.65-3.36h0Z"/>
        <path class="cls-5" d="M1065.68,81.9c4.21,0,7.74,.71,10.59,2.13,2.84,1.42,5.14,3.19,6.88,5.29s3.1,4.17,4.04,6.2h.78v-12.64h20.73v76.01c0,6.4-1.57,11.76-4.7,16.07-3.14,4.31-7.47,7.55-13.01,9.73-5.54,2.17-11.9,3.26-19.09,3.26-6.76,0-12.55-.92-17.37-2.77-4.82-1.85-8.65-4.35-11.49-7.52-2.84-3.17-4.69-6.73-5.54-10.68l19.31-2.6c.59,1.5,1.52,2.91,2.79,4.21,1.27,1.31,2.96,2.36,5.07,3.16,2.11,.8,4.68,1.2,7.72,1.2,4.54,0,8.29-1.1,11.25-3.31,2.96-2.21,4.43-5.89,4.43-11.05v-13.77h-.88c-.92,2.09-2.29,4.07-4.12,5.93-1.83,1.86-4.18,3.38-7.06,4.56-2.88,1.18-6.31,1.76-10.29,1.76-5.65,0-10.79-1.31-15.41-3.95-4.62-2.63-8.3-6.66-11.03-12.1-2.73-5.44-4.09-12.32-4.09-20.66s1.39-15.65,4.17-21.37c2.78-5.72,6.48-10,11.1-12.84,4.62-2.84,9.69-4.26,15.22-4.26m6.67,59.49c3.36,0,6.22-.84,8.55-2.52,2.33-1.68,4.13-4.1,5.39-7.25,1.26-3.15,1.89-6.93,1.89-11.35s-.62-8.24-1.86-11.49c-1.24-3.25-3.04-5.77-5.39-7.57s-5.21-2.7-8.58-2.7-6.32,.92-8.67,2.77c-2.35,1.85-4.13,4.4-5.34,7.67-1.21,3.27-1.81,7.04-1.81,11.32s.61,8.09,1.84,11.25c1.23,3.15,3.01,5.59,5.34,7.3,2.34,1.72,5.22,2.57,8.65,2.57m-6.67-60.49c-5.68,0-10.98,1.48-15.74,4.41-4.77,2.93-8.63,7.39-11.48,13.25-2.83,5.83-4.27,13.16-4.27,21.8s1.41,15.55,4.2,21.1c2.81,5.6,6.65,9.81,11.43,12.53,4.75,2.7,10.1,4.08,15.91,4.08,4.1,0,7.69-.62,10.67-1.84,2.99-1.22,5.47-2.83,7.39-4.78,1.32-1.34,2.41-2.75,3.29-4.22v11.36c0,4.8-1.36,8.25-4.03,10.25-2.77,2.06-6.35,3.11-10.65,3.11-2.9,0-5.38-.38-7.36-1.14-1.96-.74-3.55-1.73-4.71-2.92-1.17-1.2-2.04-2.51-2.58-3.88l-.29-.73-.78,.1-19.31,2.6-1.07,.14,.23,1.06c.88,4.11,2.82,7.85,5.77,11.14,2.94,3.27,6.93,5.89,11.88,7.79,4.91,1.88,10.88,2.84,17.73,2.84,7.28,0,13.82-1.12,19.45-3.33,5.69-2.23,10.22-5.62,13.46-10.07,3.25-4.47,4.9-10.07,4.9-16.66V81.88h-22.73v11.1c-.84-1.42-1.86-2.86-3.06-4.3-1.83-2.2-4.25-4.07-7.21-5.55-2.97-1.48-6.68-2.24-11.03-2.24h0Zm6.67,59.49c-3.2,0-5.91-.8-8.06-2.38-2.17-1.59-3.85-3.9-5-6.86-1.17-3.02-1.77-6.69-1.77-10.88s.59-7.83,1.75-10.97c1.14-3.07,2.83-5.51,5.02-7.23,2.16-1.7,4.87-2.56,8.06-2.56s5.81,.84,7.97,2.49c2.19,1.67,3.89,4.07,5.06,7.13,1.19,3.12,1.8,6.87,1.8,11.13s-.61,7.95-1.82,10.98c-1.18,2.96-2.88,5.25-5.05,6.81-2.15,1.55-4.83,2.34-7.97,2.34h0Z"/>
        <path class="cls-5" d="M1158.28,81.9c7.61,0,14.19,1.63,19.73,4.88,5.54,3.25,9.81,7.79,12.81,13.62s4.51,12.64,4.51,20.41-1.5,14.48-4.51,20.31c-3.01,5.83-7.28,10.37-12.81,13.62-5.54,3.25-12.11,4.88-19.73,4.88s-14.19-1.62-19.72-4.88c-5.54-3.25-9.81-7.79-12.81-13.62-3.01-5.83-4.51-12.6-4.51-20.31s1.5-14.58,4.51-20.41c3-5.83,7.28-10.37,12.81-13.62,5.54-3.25,12.11-4.88,19.72-4.88m.1,61.55c3.46,0,6.35-.99,8.67-2.96,2.32-1.98,4.08-4.68,5.27-8.11,1.19-3.43,1.79-7.33,1.79-11.71s-.6-8.28-1.79-11.71c-1.19-3.43-2.95-6.14-5.27-8.13-2.32-1.99-5.21-2.99-8.67-2.99s-6.43,1-8.8,2.99c-2.37,1.99-4.15,4.7-5.34,8.13-1.19,3.43-1.79,7.33-1.79,11.71s.6,8.28,1.79,11.71c1.19,3.43,2.97,6.13,5.34,8.11,2.37,1.98,5.3,2.96,8.8,2.96m-.1-62.55c-7.76,0-14.56,1.69-20.23,5.01-5.68,3.34-10.12,8.06-13.2,14.03-3.07,5.95-4.62,12.97-4.62,20.87s1.55,14.83,4.62,20.77c3.08,5.98,7.52,10.69,13.2,14.03,5.67,3.33,12.47,5.01,20.23,5.01s14.57-1.69,20.23-5.01c5.68-3.33,10.12-8.05,13.2-14.03,3.07-5.95,4.62-12.94,4.62-20.77s-1.55-14.92-4.62-20.87c-3.08-5.97-7.52-10.69-13.2-14.03-5.67-3.33-12.48-5.01-20.23-5.01h0Zm.1,61.55c-3.24,0-5.98-.92-8.16-2.73-2.22-1.85-3.91-4.43-5.04-7.67-1.15-3.31-1.73-7.14-1.73-11.38s.58-8.08,1.73-11.38c1.13-3.24,2.82-5.83,5.04-7.7,2.17-1.83,4.92-2.76,8.15-2.76s5.9,.92,8.02,2.75c2.17,1.87,3.85,4.46,4.97,7.7,1.15,3.31,1.73,7.14,1.73,11.38s-.58,8.07-1.73,11.38c-1.13,3.25-2.8,5.83-4.97,7.68-2.12,1.81-4.82,2.73-8.03,2.73h0Z"/>
        <path class="cls-5" d="M1233.72,64.84v18.03h14.16v15.68h-14.16v36.46c0,1.93,.29,3.42,.88,4.48,.59,1.06,1.41,1.81,2.48,2.23,1.06,.42,2.29,.64,3.7,.64,.98,0,1.96-.09,2.94-.27,.98-.18,1.73-.32,2.25-.42l3.28,15.54c-1.05,.33-2.52,.71-4.41,1.15-1.89,.44-4.2,.71-6.91,.81-.57,.02-1.13,.03-1.68,.03-4.34,0-8.18-.68-11.52-2.04-3.77-1.54-6.71-3.92-8.8-7.15s-3.12-7.32-3.09-12.25v-39.2h-10.29v-15.68h10.29v-18.03h20.88m1-1h-22.88v18.03h-10.29v17.68h10.29v38.2c-.03,5.1,1.06,9.41,3.25,12.79,2.19,3.39,5.31,5.93,9.26,7.54,3.45,1.4,7.46,2.12,11.9,2.12,.56,0,1.14-.01,1.72-.03,2.76-.1,5.15-.38,7.1-.83,1.91-.45,3.42-.84,4.48-1.17l.87-.27-.19-.89-3.28-15.54-.2-.96-.96,.18c-.52,.1-1.27,.24-2.25,.42-.91,.17-1.84,.25-2.76,.25-1.27,0-2.39-.19-3.33-.57-.85-.34-1.49-.92-1.97-1.79-.5-.91-.76-2.25-.76-4v-35.46h14.16v-17.68h-14.16v-18.03h0Z"/>
      </g>
      <g>
        <g>
          <path class="cls-2" d="M869.79,160.12c-10.02,0-18.13-2.13-24.08-6.34-5.99-4.23-9.54-10.07-10.57-17.37l-.08-.54,21.51-1.13,.09,.42c.59,2.89,2.04,5.12,4.3,6.62,2.29,1.52,5.28,2.29,8.89,2.29s6.43-.69,8.58-2.05c2.1-1.34,3.14-3.01,3.17-5.1-.03-1.74-.75-3.14-2.21-4.28-1.5-1.17-3.87-2.09-7.04-2.72l-13.04-2.6c-7.42-1.48-13.02-4.1-16.65-7.78-3.66-3.71-5.51-8.49-5.51-14.22,0-4.92,1.36-9.23,4.05-12.8,2.67-3.55,6.49-6.33,11.34-8.25,4.82-1.91,10.55-2.88,17.02-2.88,9.57,0,17.23,2.06,22.76,6.12,5.56,4.08,8.85,9.72,9.78,16.75l.07,.53-20.08,1.24-.09-.43c-.31-1.55-.98-2.97-2-4.22-1.02-1.26-2.39-2.28-4.06-3.05-1.67-.77-3.71-1.16-6.04-1.16-3.12,0-5.79,.66-7.92,1.96-2.08,1.27-3.09,2.9-3.09,4.99,0,1.66,.65,3.03,1.98,4.18,1.37,1.18,3.78,2.15,7.18,2.88l13.62,2.74c7.38,1.51,12.96,4,16.61,7.38,3.68,3.41,5.55,7.96,5.55,13.5,0,5.02-1.49,9.5-4.44,13.29-2.93,3.78-6.99,6.76-12.06,8.85-5.05,2.09-10.95,3.15-17.51,3.15Z"/>
          <path class="cls-2" d="M869.55,81.9c9.51,0,17,2.01,22.47,6.03s8.67,9.49,9.58,16.42l-19.11,1.18c-.33-1.63-1.03-3.11-2.11-4.43-1.08-1.32-2.49-2.38-4.24-3.19-1.75-.8-3.83-1.2-6.25-1.2-3.23,0-5.96,.68-8.18,2.03-2.22,1.36-3.33,3.16-3.33,5.42,0,1.8,.72,3.32,2.16,4.56,1.44,1.24,3.9,2.24,7.4,2.99l13.62,2.74c7.32,1.5,12.77,3.92,16.37,7.25,3.59,3.33,5.39,7.71,5.39,13.13,0,4.93-1.45,9.26-4.34,12.99-2.89,3.72-6.84,6.62-11.86,8.7-5.02,2.07-10.79,3.11-17.32,3.11-9.97,0-17.9-2.08-23.79-6.25-5.9-4.17-9.35-9.84-10.36-17.03l20.53-1.08c.62,3.04,2.12,5.35,4.51,6.93,2.38,1.58,5.44,2.38,9.16,2.38s6.61-.71,8.85-2.13c2.24-1.42,3.37-3.26,3.41-5.51-.03-1.89-.83-3.46-2.4-4.68-1.57-1.23-3.99-2.16-7.25-2.82l-13.04-2.6c-7.35-1.47-12.81-4.02-16.39-7.65-3.58-3.63-5.37-8.25-5.37-13.87,0-4.83,1.31-9,3.94-12.5,2.63-3.5,6.34-6.19,11.12-8.09,4.79-1.89,10.4-2.84,16.83-2.84m0-1c-6.53,0-12.32,.98-17.2,2.91-4.94,1.96-8.83,4.79-11.56,8.41-2.75,3.66-4.15,8.06-4.15,13.1,0,5.87,1.9,10.77,5.65,14.57,3.7,3.75,9.39,6.42,16.91,7.92l13.04,2.6c3.1,.62,5.4,1.5,6.83,2.63,1.33,1.04,1.99,2.32,2.02,3.91-.03,1.88-.99,3.41-2.94,4.65-2.07,1.31-4.86,1.98-8.31,1.98s-6.4-.74-8.61-2.21c-2.18-1.45-3.51-3.51-4.08-6.3l-.17-.84-.86,.05-20.53,1.08-1.09,.06,.15,1.08c1.05,7.44,4.67,13.4,10.78,17.71,6.04,4.27,14.24,6.43,24.37,6.43,6.63,0,12.59-1.07,17.71-3.19,5.15-2.13,9.28-5.16,12.27-9.01,3.02-3.89,4.55-8.46,4.55-13.6,0-5.69-1.92-10.35-5.71-13.87-3.71-3.44-9.38-5.97-16.85-7.5l-13.63-2.74c-3.3-.71-5.64-1.64-6.94-2.77-1.22-1.05-1.81-2.29-1.81-3.8,0-1.9,.93-3.39,2.85-4.56,2.05-1.25,4.63-1.89,7.66-1.89,2.26,0,4.22,.37,5.83,1.11,1.6,.73,2.91,1.71,3.88,2.91,.97,1.19,1.61,2.53,1.9,4l.17,.86,.87-.05,19.11-1.18,1.07-.07-.14-1.06c-.95-7.17-4.31-12.92-9.98-17.09-5.62-4.13-13.38-6.22-23.06-6.22h0Z"/>
        </g>
        <g>
          <path class="cls-2" d="M914.89,186.88V82.38h21.58v12.64h.11c.92-1.96,2.24-3.99,3.93-6.02,1.78-2.15,4.14-3.97,7.02-5.42,2.88-1.45,6.51-2.19,10.79-2.19,5.56,0,10.76,1.47,15.45,4.36,4.7,2.9,8.51,7.3,11.31,13.1,2.8,5.78,4.22,13.1,4.22,21.76s-1.38,15.65-4.09,21.46c-2.72,5.83-6.48,10.3-11.16,13.29-4.68,3-9.99,4.51-15.78,4.51-4.11,0-7.65-.69-10.53-2.06-2.87-1.36-5.26-3.11-7.1-5.19-1.63-1.85-2.93-3.75-3.88-5.65v39.91h-21.88Zm36.76-87.87c-3.27,0-6.06,.87-8.3,2.59-2.25,1.73-4,4.23-5.2,7.42-1.21,3.23-1.83,7.09-1.83,11.49s.62,8.28,1.83,11.54c1.2,3.23,2.96,5.77,5.23,7.55,2.25,1.77,5.03,2.66,8.27,2.66s6.06-.91,8.31-2.71c2.27-1.81,4.02-4.38,5.21-7.62,1.2-3.28,1.81-7.12,1.81-11.42s-.6-8.06-1.78-11.29c-1.17-3.2-2.92-5.73-5.18-7.52-2.25-1.78-5.06-2.68-8.36-2.68Z"/>
          <path class="cls-2" d="M958.32,81.9c5.49,0,10.55,1.43,15.19,4.29,4.64,2.86,8.35,7.16,11.12,12.89,2.78,5.73,4.17,12.91,4.17,21.54s-1.35,15.48-4.04,21.24-6.36,10.13-10.98,13.08c-4.62,2.96-9.79,4.44-15.51,4.44-4.05,0-7.49-.67-10.32-2.01-2.83-1.34-5.14-3.03-6.93-5.07-1.8-2.04-3.17-4.11-4.12-6.2h-.64v40.28h-20.88V82.88h20.58v12.64h.93c.91-2.03,2.25-4.09,3.99-6.2,1.75-2.11,4.03-3.87,6.86-5.29,2.83-1.42,6.35-2.13,10.56-2.13m-6.66,60.87c3.4,0,6.27-.94,8.62-2.82,2.35-1.88,4.14-4.49,5.37-7.84,1.23-3.35,1.84-7.21,1.84-11.59s-.6-8.17-1.81-11.47c-1.21-3.3-2.99-5.88-5.34-7.74-2.35-1.86-5.24-2.79-8.67-2.79s-6.27,.9-8.6,2.7c-2.34,1.8-4.12,4.35-5.37,7.64-1.24,3.3-1.86,7.19-1.86,11.66s.62,8.38,1.86,11.71c1.24,3.33,3.04,5.92,5.39,7.77,2.35,1.85,5.21,2.77,8.58,2.77m6.66-61.87c-4.35,0-8.06,.75-11.01,2.24-2.94,1.48-5.35,3.34-7.18,5.55-1.25,1.51-2.31,3.02-3.16,4.51v-11.31h-22.58v105.5h22.88v-38.47c.83,1.36,1.83,2.72,3,4.04,1.88,2.14,4.32,3.92,7.26,5.32,2.95,1.4,6.56,2.11,10.74,2.11,5.88,0,11.28-1.55,16.05-4.59,4.76-3.05,8.58-7.59,11.34-13.5,2.75-5.87,4.14-13.16,4.14-21.67s-1.44-16.13-4.27-21.97c-2.85-5.88-6.72-10.36-11.5-13.3-4.78-2.94-10.07-4.44-15.72-4.44h0Zm-6.66,60.87c-3.12,0-5.8-.86-7.96-2.56-2.19-1.72-3.9-4.19-5.07-7.33-1.19-3.2-1.8-7.03-1.8-11.36s.61-8.14,1.8-11.31c1.17-3.11,2.86-5.53,5.04-7.2,2.15-1.65,4.83-2.49,7.99-2.49s5.89,.87,8.05,2.58c2.19,1.74,3.88,4.19,5.02,7.3,1.16,3.17,1.75,6.92,1.75,11.12s-.6,8.03-1.78,11.25c-1.16,3.16-2.85,5.65-5.05,7.4-2.16,1.73-4.85,2.6-8,2.6h0Z"/>
        </g>
        <g>
          <rect class="cls-2" x="1001.06" y="82.38" width="21.88" height="76.27"/>
          <path class="cls-2" d="M1022.44,82.88v75.27h-20.88V82.88h20.88m1-1h-22.88v77.27h22.88V81.88h0Z"/>
        </g>
        <g>
          <path class="cls-2" d="M1012.05,73.68c-3.22,0-6.01-1.08-8.3-3.22-2.3-2.15-3.47-4.78-3.47-7.81s1.17-5.68,3.49-7.84c2.31-2.15,5.09-3.25,8.28-3.25s6.01,1.08,8.3,3.22c2.3,2.15,3.47,4.78,3.47,7.81s-1.17,5.67-3.47,7.84c-2.29,2.16-5.08,3.25-8.31,3.25Z"/>
          <path class="cls-2" d="M1012.05,52.05c3.1,0,5.76,1.03,7.96,3.09,2.21,2.06,3.31,4.54,3.31,7.45s-1.1,5.4-3.31,7.47c-2.21,2.08-4.86,3.11-7.96,3.11s-5.76-1.03-7.96-3.09c-2.21-2.06-3.31-4.54-3.31-7.45s1.11-5.4,3.33-7.47c2.22-2.07,4.87-3.11,7.94-3.11m0-1c-3.32,0-6.22,1.14-8.62,3.38-2.42,2.26-3.65,5.02-3.65,8.2s1.22,5.93,3.63,8.18c2.39,2.23,5.29,3.36,8.65,3.36s6.26-1.14,8.65-3.38c2.4-2.26,3.62-5.02,3.62-8.2s-1.22-5.93-3.63-8.18c-2.39-2.23-5.3-3.36-8.65-3.36h0Z"/>
        </g>
        <g>
          <path class="cls-2" d="M1071.91,188.45c-6.79,0-12.7-.94-17.55-2.8-4.87-1.87-8.8-4.44-11.69-7.66-2.89-3.22-4.79-6.89-5.65-10.91l-.11-.53,20.23-2.72,.14,.37c.56,1.44,1.47,2.8,2.69,4.05,1.22,1.25,2.86,2.27,4.89,3.04,2.04,.78,4.58,1.17,7.54,1.17,4.41,0,8.09-1.08,10.95-3.21,2.81-2.1,4.23-5.68,4.23-10.65v-13.27h-.06c-.94,2.03-2.31,3.97-4.08,5.78-1.87,1.9-4.3,3.47-7.22,4.67-2.92,1.2-6.45,1.8-10.48,1.8-5.71,0-10.98-1.35-15.66-4.01-4.69-2.67-8.47-6.81-11.23-12.31-2.75-5.49-4.14-12.51-4.14-20.88s1.42-15.83,4.22-21.58c2.81-5.78,6.61-10.17,11.29-13.05s9.89-4.34,15.48-4.34c4.27,0,7.91,.74,10.81,2.18,2.89,1.45,5.26,3.27,7.05,5.42,1.67,2.01,2.99,4.01,3.94,5.95v-12.58h21.73v76.51c0,6.48-1.62,11.99-4.8,16.37-3.18,4.37-7.63,7.7-13.23,9.9-5.57,2.19-12.05,3.29-19.27,3.29Zm.44-89.44c-3.3,0-6.11,.9-8.37,2.66-2.27,1.78-4.01,4.29-5.18,7.45-1.18,3.19-1.78,6.94-1.78,11.15s.61,7.98,1.8,11.07c1.18,3.05,2.92,5.43,5.17,7.08,2.24,1.64,5.05,2.48,8.35,2.48s6.02-.82,8.26-2.43c2.25-1.62,4-3.99,5.22-7.03,1.23-3.08,1.85-6.84,1.85-11.16s-.62-8.13-1.83-11.31c-1.2-3.15-2.96-5.62-5.23-7.35-2.25-1.72-5.03-2.59-8.27-2.59Z"/>
          <path class="cls-2" d="M1065.68,81.9c4.21,0,7.74,.71,10.59,2.13,2.84,1.42,5.14,3.19,6.88,5.29s3.1,4.17,4.04,6.2h.78v-12.64h20.73v76.01c0,6.4-1.57,11.76-4.7,16.07-3.14,4.31-7.47,7.55-13.01,9.73-5.54,2.17-11.9,3.26-19.09,3.26-6.76,0-12.55-.92-17.37-2.77-4.82-1.85-8.65-4.35-11.49-7.52-2.84-3.17-4.69-6.73-5.54-10.68l19.31-2.6c.59,1.5,1.52,2.91,2.79,4.21,1.27,1.31,2.96,2.36,5.07,3.16,2.11,.8,4.68,1.2,7.72,1.2,4.54,0,8.29-1.1,11.25-3.31,2.96-2.21,4.43-5.89,4.43-11.05v-13.77h-.88c-.92,2.09-2.29,4.07-4.12,5.93-1.83,1.86-4.18,3.38-7.06,4.56-2.88,1.18-6.31,1.76-10.29,1.76-5.65,0-10.79-1.31-15.41-3.95-4.62-2.63-8.3-6.66-11.03-12.1-2.73-5.44-4.09-12.32-4.09-20.66s1.39-15.65,4.17-21.37c2.78-5.72,6.48-10,11.1-12.84,4.62-2.84,9.69-4.26,15.22-4.26m6.67,59.49c3.36,0,6.22-.84,8.55-2.52,2.33-1.68,4.13-4.1,5.39-7.25,1.26-3.15,1.89-6.93,1.89-11.35s-.62-8.24-1.86-11.49c-1.24-3.25-3.04-5.77-5.39-7.57s-5.21-2.7-8.58-2.7-6.32,.92-8.67,2.77c-2.35,1.85-4.13,4.4-5.34,7.67-1.21,3.27-1.81,7.04-1.81,11.32s.61,8.09,1.84,11.25c1.23,3.15,3.01,5.59,5.34,7.3,2.34,1.72,5.22,2.57,8.65,2.57m-6.67-60.49c-5.68,0-10.98,1.48-15.74,4.41-4.77,2.93-8.63,7.39-11.48,13.25-2.83,5.83-4.27,13.16-4.27,21.8s1.41,15.55,4.2,21.1c2.81,5.6,6.65,9.81,11.43,12.53,4.75,2.7,10.1,4.08,15.91,4.08,4.1,0,7.69-.62,10.67-1.84,2.99-1.22,5.47-2.83,7.39-4.78,1.32-1.34,2.41-2.75,3.29-4.22v11.36c0,4.8-1.36,8.25-4.03,10.25-2.77,2.06-6.35,3.11-10.65,3.11-2.9,0-5.38-.38-7.36-1.14-1.96-.74-3.55-1.73-4.71-2.92-1.17-1.2-2.04-2.51-2.58-3.88l-.29-.73-.78,.1-19.31,2.6-1.07,.14,.23,1.06c.88,4.11,2.82,7.85,5.77,11.14,2.94,3.27,6.93,5.89,11.88,7.79,4.91,1.88,10.88,2.84,17.73,2.84,7.28,0,13.82-1.12,19.45-3.33,5.69-2.23,10.22-5.62,13.46-10.07,3.25-4.47,4.9-10.07,4.9-16.66V81.88h-22.73v11.1c-.84-1.42-1.86-2.86-3.06-4.3-1.83-2.2-4.25-4.07-7.21-5.55-2.97-1.48-6.68-2.24-11.03-2.24h0Zm6.67,59.49c-3.2,0-5.91-.8-8.06-2.38-2.17-1.59-3.85-3.9-5-6.86-1.17-3.02-1.77-6.69-1.77-10.88s.59-7.83,1.75-10.97c1.14-3.07,2.83-5.51,5.02-7.23,2.16-1.7,4.87-2.56,8.06-2.56s5.81,.84,7.97,2.49c2.19,1.67,3.89,4.07,5.06,7.13,1.19,3.12,1.8,6.87,1.8,11.13s-.61,7.95-1.82,10.98c-1.18,2.96-2.88,5.25-5.05,6.81-2.15,1.55-4.83,2.34-7.97,2.34h0Z"/>
        </g>
        <g>
          <path class="cls-2" d="M1158.28,160.12c-7.67,0-14.39-1.66-19.98-4.94-5.59-3.28-9.97-7.93-13.01-13.83-3.03-5.88-4.56-12.79-4.56-20.54s1.54-14.76,4.56-20.64c3.04-5.89,7.41-10.54,13.01-13.83,5.59-3.28,12.31-4.95,19.98-4.95s14.39,1.66,19.98,4.94c5.6,3.29,9.97,7.94,13.01,13.83,3.03,5.88,4.56,12.82,4.56,20.64s-1.54,14.67-4.56,20.54c-3.04,5.89-7.41,10.54-13.01,13.83-5.59,3.28-12.31,4.94-19.98,4.94Zm.1-61.8c-3.36,0-6.21,.97-8.47,2.87-2.29,1.93-4.04,4.59-5.19,7.92-1.17,3.36-1.76,7.24-1.76,11.55s.59,8.19,1.76,11.55c1.16,3.33,2.9,5.98,5.19,7.89,2.26,1.89,5.11,2.85,8.48,2.85s6.13-.96,8.35-2.85c2.24-1.91,3.96-4.56,5.12-7.89,1.17-3.36,1.76-7.25,1.76-11.55s-.59-8.18-1.76-11.55c-1.16-3.33-2.88-5.99-5.12-7.92-2.22-1.9-5.02-2.87-8.35-2.87Z"/>
          <path class="cls-2" d="M1158.28,81.9c7.61,0,14.19,1.63,19.73,4.88,5.54,3.25,9.81,7.79,12.81,13.62s4.51,12.64,4.51,20.41-1.5,14.48-4.51,20.31c-3.01,5.83-7.28,10.37-12.81,13.62-5.54,3.25-12.11,4.88-19.73,4.88s-14.19-1.62-19.72-4.88c-5.54-3.25-9.81-7.79-12.81-13.62-3.01-5.83-4.51-12.6-4.51-20.31s1.5-14.58,4.51-20.41c3-5.83,7.28-10.37,12.81-13.62,5.54-3.25,12.11-4.88,19.72-4.88m.1,61.55c3.46,0,6.35-.99,8.67-2.96,2.32-1.98,4.08-4.68,5.27-8.11,1.19-3.43,1.79-7.33,1.79-11.71s-.6-8.28-1.79-11.71c-1.19-3.43-2.95-6.14-5.27-8.13-2.32-1.99-5.21-2.99-8.67-2.99s-6.43,1-8.8,2.99c-2.37,1.99-4.15,4.7-5.34,8.13-1.19,3.43-1.79,7.33-1.79,11.71s.6,8.28,1.79,11.71c1.19,3.43,2.97,6.13,5.34,8.11,2.37,1.98,5.3,2.96,8.8,2.96m-.1-62.55c-7.76,0-14.56,1.69-20.23,5.01-5.68,3.34-10.12,8.06-13.2,14.03-3.07,5.95-4.62,12.97-4.62,20.87s1.55,14.83,4.62,20.77c3.08,5.98,7.52,10.69,13.2,14.03,5.67,3.33,12.47,5.01,20.23,5.01s14.57-1.69,20.23-5.01c5.68-3.33,10.12-8.05,13.2-14.03,3.07-5.95,4.62-12.94,4.62-20.77s-1.55-14.92-4.62-20.87c-3.08-5.97-7.52-10.69-13.2-14.03-5.67-3.33-12.48-5.01-20.23-5.01h0Zm.1,61.55c-3.24,0-5.98-.92-8.16-2.73-2.22-1.85-3.91-4.43-5.04-7.67-1.15-3.31-1.73-7.14-1.73-11.38s.58-8.08,1.73-11.38c1.13-3.24,2.82-5.83,5.04-7.7,2.17-1.83,4.92-2.76,8.15-2.76s5.9,.92,8.02,2.75c2.17,1.87,3.85,4.46,4.97,7.7,1.15,3.31,1.73,7.14,1.73,11.38s-.58,8.07-1.73,11.38c-1.13,3.25-2.8,5.83-4.97,7.68-2.12,1.81-4.82,2.73-8.03,2.73h0Z"/>
        </g>
        <g>
          <path class="cls-2" d="M1236.25,159.71c-4.38,0-8.32-.7-11.71-2.08-3.85-1.57-6.89-4.04-9.03-7.35-2.14-3.3-3.2-7.52-3.17-12.53v-38.7h-10.29v-16.68h10.29v-18.03h21.88v18.03h14.16v16.68h-14.16v35.96c0,1.83,.28,3.26,.82,4.24,.54,.97,1.27,1.62,2.22,2.01,1,.4,2.18,.6,3.51,.6,.95,0,1.91-.09,2.85-.26l2.74-.51,3.48,16.46-.43,.14c-1.05,.33-2.55,.72-4.45,1.16-1.92,.45-4.27,.72-7,.82-.58,.02-1.14,.03-1.7,.03Z"/>
          <path class="cls-2" d="M1233.72,64.84v18.03h14.16v15.68h-14.16v36.46c0,1.93,.29,3.42,.88,4.48,.59,1.06,1.41,1.81,2.48,2.23,1.06,.42,2.29,.64,3.7,.64,.98,0,1.96-.09,2.94-.27,.98-.18,1.73-.32,2.25-.42l3.28,15.54c-1.05,.33-2.52,.71-4.41,1.15-1.89,.44-4.2,.71-6.91,.81-.57,.02-1.13,.03-1.68,.03-4.34,0-8.18-.68-11.52-2.04-3.77-1.54-6.71-3.92-8.8-7.15s-3.12-7.32-3.09-12.25v-39.2h-10.29v-15.68h10.29v-18.03h20.88m1-1h-22.88v18.03h-10.29v17.68h10.29v38.2c-.03,5.1,1.06,9.41,3.25,12.79,2.19,3.39,5.31,5.93,9.26,7.54,3.45,1.4,7.46,2.12,11.9,2.12,.56,0,1.14-.01,1.72-.03,2.76-.1,5.15-.38,7.1-.83,1.91-.45,3.42-.84,4.48-1.17l.87-.27-.19-.89-3.28-15.54-.2-.96-.96,.18c-.52,.1-1.27,.24-2.25,.42-.91,.17-1.84,.25-2.76,.25-1.27,0-2.39-.19-3.33-.57-.85-.34-1.49-.92-1.97-1.79-.5-.91-.76-2.25-.76-4v-35.46h14.16v-17.68h-14.16v-18.03h0Z"/>
        </g>
      </g>
      <g>
        <g>
          <path class="cls-3" d="M869.79,160.12c-10.02,0-18.13-2.13-24.08-6.34-5.99-4.23-9.54-10.07-10.57-17.37l-.08-.54,21.51-1.13,.09,.42c.59,2.89,2.04,5.12,4.3,6.62,2.29,1.52,5.28,2.29,8.89,2.29s6.43-.69,8.58-2.05c2.1-1.34,3.14-3.01,3.17-5.1-.03-1.74-.75-3.14-2.21-4.28-1.5-1.17-3.87-2.09-7.04-2.72l-13.04-2.6c-7.42-1.48-13.02-4.1-16.65-7.78-3.66-3.71-5.51-8.49-5.51-14.22,0-4.92,1.36-9.23,4.05-12.8,2.67-3.55,6.49-6.33,11.34-8.25,4.82-1.91,10.55-2.88,17.02-2.88,9.57,0,17.23,2.06,22.76,6.12,5.56,4.08,8.85,9.72,9.78,16.75l.07,.53-20.08,1.24-.09-.43c-.31-1.55-.98-2.97-2-4.22-1.02-1.26-2.39-2.28-4.06-3.05-1.67-.77-3.71-1.16-6.04-1.16-3.12,0-5.79,.66-7.92,1.96-2.08,1.27-3.09,2.9-3.09,4.99,0,1.66,.65,3.03,1.98,4.18,1.37,1.18,3.78,2.15,7.18,2.88l13.62,2.74c7.38,1.51,12.96,4,16.61,7.38,3.68,3.41,5.55,7.96,5.55,13.5,0,5.02-1.49,9.5-4.44,13.29-2.93,3.78-6.99,6.76-12.06,8.85-5.05,2.09-10.95,3.15-17.51,3.15Z"/>
          <path class="cls-3" d="M869.55,81.9c9.51,0,17,2.01,22.47,6.03s8.67,9.49,9.58,16.42l-19.11,1.18c-.33-1.63-1.03-3.11-2.11-4.43-1.08-1.32-2.49-2.38-4.24-3.19-1.75-.8-3.83-1.2-6.25-1.2-3.23,0-5.96,.68-8.18,2.03-2.22,1.36-3.33,3.16-3.33,5.42,0,1.8,.72,3.32,2.16,4.56,1.44,1.24,3.9,2.24,7.4,2.99l13.62,2.74c7.32,1.5,12.77,3.92,16.37,7.25,3.59,3.33,5.39,7.71,5.39,13.13,0,4.93-1.45,9.26-4.34,12.99-2.89,3.72-6.84,6.62-11.86,8.7-5.02,2.07-10.79,3.11-17.32,3.11-9.97,0-17.9-2.08-23.79-6.25-5.9-4.17-9.35-9.84-10.36-17.03l20.53-1.08c.62,3.04,2.12,5.35,4.51,6.93,2.38,1.58,5.44,2.38,9.16,2.38s6.61-.71,8.85-2.13c2.24-1.42,3.37-3.26,3.41-5.51-.03-1.89-.83-3.46-2.4-4.68-1.57-1.23-3.99-2.16-7.25-2.82l-13.04-2.6c-7.35-1.47-12.81-4.02-16.39-7.65-3.58-3.63-5.37-8.25-5.37-13.87,0-4.83,1.31-9,3.94-12.5,2.63-3.5,6.34-6.19,11.12-8.09,4.79-1.89,10.4-2.84,16.83-2.84m0-1c-6.53,0-12.32,.98-17.2,2.91-4.94,1.96-8.83,4.79-11.56,8.41-2.75,3.66-4.15,8.06-4.15,13.1,0,5.87,1.9,10.77,5.65,14.57,3.7,3.75,9.39,6.42,16.91,7.92l13.04,2.6c3.1,.62,5.4,1.5,6.83,2.63,1.33,1.04,1.99,2.32,2.02,3.91-.03,1.88-.99,3.41-2.94,4.65-2.07,1.31-4.86,1.98-8.31,1.98s-6.4-.74-8.61-2.21c-2.18-1.45-3.51-3.51-4.08-6.3l-.17-.84-.86,.05-20.53,1.08-1.09,.06,.15,1.08c1.05,7.44,4.67,13.4,10.78,17.71,6.04,4.27,14.24,6.43,24.37,6.43,6.63,0,12.59-1.07,17.71-3.19,5.15-2.13,9.28-5.16,12.27-9.01,3.02-3.89,4.55-8.46,4.55-13.6,0-5.69-1.92-10.35-5.71-13.87-3.71-3.44-9.38-5.97-16.85-7.5l-13.63-2.74c-3.3-.71-5.64-1.64-6.94-2.77-1.22-1.05-1.81-2.29-1.81-3.8,0-1.9,.93-3.39,2.85-4.56,2.05-1.25,4.63-1.89,7.66-1.89,2.26,0,4.22,.37,5.83,1.11,1.6,.73,2.91,1.71,3.88,2.91,.97,1.19,1.61,2.53,1.9,4l.17,.86,.87-.05,19.11-1.18,1.07-.07-.14-1.06c-.95-7.17-4.31-12.92-9.98-17.09-5.62-4.13-13.38-6.22-23.06-6.22h0Z"/>
        </g>
        <g>
          <path class="cls-3" d="M914.89,186.88V82.38h21.58v12.64h.11c.92-1.96,2.24-3.99,3.93-6.02,1.78-2.15,4.14-3.97,7.02-5.42,2.88-1.45,6.51-2.19,10.79-2.19,5.56,0,10.76,1.47,15.45,4.36,4.7,2.9,8.51,7.3,11.31,13.1,2.8,5.78,4.22,13.1,4.22,21.76s-1.38,15.65-4.09,21.46c-2.72,5.83-6.48,10.3-11.16,13.29-4.68,3-9.99,4.51-15.78,4.51-4.11,0-7.65-.69-10.53-2.06-2.87-1.36-5.26-3.11-7.1-5.19-1.63-1.85-2.93-3.75-3.88-5.65v39.91h-21.88Zm36.76-87.87c-3.27,0-6.06,.87-8.3,2.59-2.25,1.73-4,4.23-5.2,7.42-1.21,3.23-1.83,7.09-1.83,11.49s.62,8.28,1.83,11.54c1.2,3.23,2.96,5.77,5.23,7.55,2.25,1.77,5.03,2.66,8.27,2.66s6.06-.91,8.31-2.71c2.27-1.81,4.02-4.38,5.21-7.62,1.2-3.28,1.81-7.12,1.81-11.42s-.6-8.06-1.78-11.29c-1.17-3.2-2.92-5.73-5.18-7.52-2.25-1.78-5.06-2.68-8.36-2.68Z"/>
          <path class="cls-3" d="M958.32,81.9c5.49,0,10.55,1.43,15.19,4.29,4.64,2.86,8.35,7.16,11.12,12.89,2.78,5.73,4.17,12.91,4.17,21.54s-1.35,15.48-4.04,21.24-6.36,10.13-10.98,13.08c-4.62,2.96-9.79,4.44-15.51,4.44-4.05,0-7.49-.67-10.32-2.01-2.83-1.34-5.14-3.03-6.93-5.07-1.8-2.04-3.17-4.11-4.12-6.2h-.64v40.28h-20.88V82.88h20.58v12.64h.93c.91-2.03,2.25-4.09,3.99-6.2,1.75-2.11,4.03-3.87,6.86-5.29,2.83-1.42,6.35-2.13,10.56-2.13m-6.66,60.87c3.4,0,6.27-.94,8.62-2.82,2.35-1.88,4.14-4.49,5.37-7.84,1.23-3.35,1.84-7.21,1.84-11.59s-.6-8.17-1.81-11.47c-1.21-3.3-2.99-5.88-5.34-7.74-2.35-1.86-5.24-2.79-8.67-2.79s-6.27,.9-8.6,2.7c-2.34,1.8-4.12,4.35-5.37,7.64-1.24,3.3-1.86,7.19-1.86,11.66s.62,8.38,1.86,11.71c1.24,3.33,3.04,5.92,5.39,7.77,2.35,1.85,5.21,2.77,8.58,2.77m6.66-61.87c-4.35,0-8.06,.75-11.01,2.24-2.94,1.48-5.35,3.34-7.18,5.55-1.25,1.51-2.31,3.02-3.16,4.51v-11.31h-22.58v105.5h22.88v-38.47c.83,1.36,1.83,2.72,3,4.04,1.88,2.14,4.32,3.92,7.26,5.32,2.95,1.4,6.56,2.11,10.74,2.11,5.88,0,11.28-1.55,16.05-4.59,4.76-3.05,8.58-7.59,11.34-13.5,2.75-5.87,4.14-13.16,4.14-21.67s-1.44-16.13-4.27-21.97c-2.85-5.88-6.72-10.36-11.5-13.3-4.78-2.94-10.07-4.44-15.72-4.44h0Zm-6.66,60.87c-3.12,0-5.8-.86-7.96-2.56-2.19-1.72-3.9-4.19-5.07-7.33-1.19-3.2-1.8-7.03-1.8-11.36s.61-8.14,1.8-11.31c1.17-3.11,2.86-5.53,5.04-7.2,2.15-1.65,4.83-2.49,7.99-2.49s5.89,.87,8.05,2.58c2.19,1.74,3.88,4.19,5.02,7.3,1.16,3.17,1.75,6.92,1.75,11.12s-.6,8.03-1.78,11.25c-1.16,3.16-2.85,5.65-5.05,7.4-2.16,1.73-4.85,2.6-8,2.6h0Z"/>
        </g>
        <g>
          <rect class="cls-3" x="1001.06" y="82.38" width="21.88" height="76.27"/>
          <path class="cls-3" d="M1022.44,82.88v75.27h-20.88V82.88h20.88m1-1h-22.88v77.27h22.88V81.88h0Z"/>
        </g>
        <g>
          <path class="cls-3" d="M1012.05,73.68c-3.22,0-6.01-1.08-8.3-3.22-2.3-2.15-3.47-4.78-3.47-7.81s1.17-5.68,3.49-7.84c2.31-2.15,5.09-3.25,8.28-3.25s6.01,1.08,8.3,3.22c2.3,2.15,3.47,4.78,3.47,7.81s-1.17,5.67-3.47,7.84c-2.29,2.16-5.08,3.25-8.31,3.25Z"/>
          <path class="cls-3" d="M1012.05,52.05c3.1,0,5.76,1.03,7.96,3.09,2.21,2.06,3.31,4.54,3.31,7.45s-1.1,5.4-3.31,7.47c-2.21,2.08-4.86,3.11-7.96,3.11s-5.76-1.03-7.96-3.09c-2.21-2.06-3.31-4.54-3.31-7.45s1.11-5.4,3.33-7.47c2.22-2.07,4.87-3.11,7.94-3.11m0-1c-3.32,0-6.22,1.14-8.62,3.38-2.42,2.26-3.65,5.02-3.65,8.2s1.22,5.93,3.63,8.18c2.39,2.23,5.29,3.36,8.65,3.36s6.26-1.14,8.65-3.38c2.4-2.26,3.62-5.02,3.62-8.2s-1.22-5.93-3.63-8.18c-2.39-2.23-5.3-3.36-8.65-3.36h0Z"/>
        </g>
        <g>
          <path class="cls-3" d="M1071.91,188.45c-6.79,0-12.7-.94-17.55-2.8-4.87-1.87-8.8-4.44-11.69-7.66-2.89-3.22-4.79-6.89-5.65-10.91l-.11-.53,20.23-2.72,.14,.37c.56,1.44,1.47,2.8,2.69,4.05,1.22,1.25,2.86,2.27,4.89,3.04,2.04,.78,4.58,1.17,7.54,1.17,4.41,0,8.09-1.08,10.95-3.21,2.81-2.1,4.23-5.68,4.23-10.65v-13.27h-.06c-.94,2.03-2.31,3.97-4.08,5.78-1.87,1.9-4.3,3.47-7.22,4.67-2.92,1.2-6.45,1.8-10.48,1.8-5.71,0-10.98-1.35-15.66-4.01-4.69-2.67-8.47-6.81-11.23-12.31-2.75-5.49-4.14-12.51-4.14-20.88s1.42-15.83,4.22-21.58c2.81-5.78,6.61-10.17,11.29-13.05s9.89-4.34,15.48-4.34c4.27,0,7.91,.74,10.81,2.18,2.89,1.45,5.26,3.27,7.05,5.42,1.67,2.01,2.99,4.01,3.94,5.95v-12.58h21.73v76.51c0,6.48-1.62,11.99-4.8,16.37-3.18,4.37-7.63,7.7-13.23,9.9-5.57,2.19-12.05,3.29-19.27,3.29Zm.44-89.44c-3.3,0-6.11,.9-8.37,2.66-2.27,1.78-4.01,4.29-5.18,7.45-1.18,3.19-1.78,6.94-1.78,11.15s.61,7.98,1.8,11.07c1.18,3.05,2.92,5.43,5.17,7.08,2.24,1.64,5.05,2.48,8.35,2.48s6.02-.82,8.26-2.43c2.25-1.62,4-3.99,5.22-7.03,1.23-3.08,1.85-6.84,1.85-11.16s-.62-8.13-1.83-11.31c-1.2-3.15-2.96-5.62-5.23-7.35-2.25-1.72-5.03-2.59-8.27-2.59Z"/>
          <path class="cls-3" d="M1065.68,81.9c4.21,0,7.74,.71,10.59,2.13,2.84,1.42,5.14,3.19,6.88,5.29s3.1,4.17,4.04,6.2h.78v-12.64h20.73v76.01c0,6.4-1.57,11.76-4.7,16.07-3.14,4.31-7.47,7.55-13.01,9.73-5.54,2.17-11.9,3.26-19.09,3.26-6.76,0-12.55-.92-17.37-2.77-4.82-1.85-8.65-4.35-11.49-7.52-2.84-3.17-4.69-6.73-5.54-10.68l19.31-2.6c.59,1.5,1.52,2.91,2.79,4.21,1.27,1.31,2.96,2.36,5.07,3.16,2.11,.8,4.68,1.2,7.72,1.2,4.54,0,8.29-1.1,11.25-3.31,2.96-2.21,4.43-5.89,4.43-11.05v-13.77h-.88c-.92,2.09-2.29,4.07-4.12,5.93-1.83,1.86-4.18,3.38-7.06,4.56-2.88,1.18-6.31,1.76-10.29,1.76-5.65,0-10.79-1.31-15.41-3.95-4.62-2.63-8.3-6.66-11.03-12.1-2.73-5.44-4.09-12.32-4.09-20.66s1.39-15.65,4.17-21.37c2.78-5.72,6.48-10,11.1-12.84,4.62-2.84,9.69-4.26,15.22-4.26m6.67,59.49c3.36,0,6.22-.84,8.55-2.52,2.33-1.68,4.13-4.1,5.39-7.25,1.26-3.15,1.89-6.93,1.89-11.35s-.62-8.24-1.86-11.49c-1.24-3.25-3.04-5.77-5.39-7.57s-5.21-2.7-8.58-2.7-6.32,.92-8.67,2.77c-2.35,1.85-4.13,4.4-5.34,7.67-1.21,3.27-1.81,7.04-1.81,11.32s.61,8.09,1.84,11.25c1.23,3.15,3.01,5.59,5.34,7.3,2.34,1.72,5.22,2.57,8.65,2.57m-6.67-60.49c-5.68,0-10.98,1.48-15.74,4.41-4.77,2.93-8.63,7.39-11.48,13.25-2.83,5.83-4.27,13.16-4.27,21.8s1.41,15.55,4.2,21.1c2.81,5.6,6.65,9.81,11.43,12.53,4.75,2.7,10.1,4.08,15.91,4.08,4.1,0,7.69-.62,10.67-1.84,2.99-1.22,5.47-2.83,7.39-4.78,1.32-1.34,2.41-2.75,3.29-4.22v11.36c0,4.8-1.36,8.25-4.03,10.25-2.77,2.06-6.35,3.11-10.65,3.11-2.9,0-5.38-.38-7.36-1.14-1.96-.74-3.55-1.73-4.71-2.92-1.17-1.2-2.04-2.51-2.58-3.88l-.29-.73-.78,.1-19.31,2.6-1.07,.14,.23,1.06c.88,4.11,2.82,7.85,5.77,11.14,2.94,3.27,6.93,5.89,11.88,7.79,4.91,1.88,10.88,2.84,17.73,2.84,7.28,0,13.82-1.12,19.45-3.33,5.69-2.23,10.22-5.62,13.46-10.07,3.25-4.47,4.9-10.07,4.9-16.66V81.88h-22.73v11.1c-.84-1.42-1.86-2.86-3.06-4.3-1.83-2.2-4.25-4.07-7.21-5.55-2.97-1.48-6.68-2.24-11.03-2.24h0Zm6.67,59.49c-3.2,0-5.91-.8-8.06-2.38-2.17-1.59-3.85-3.9-5-6.86-1.17-3.02-1.77-6.69-1.77-10.88s.59-7.83,1.75-10.97c1.14-3.07,2.83-5.51,5.02-7.23,2.16-1.7,4.87-2.56,8.06-2.56s5.81,.84,7.97,2.49c2.19,1.67,3.89,4.07,5.06,7.13,1.19,3.12,1.8,6.87,1.8,11.13s-.61,7.95-1.82,10.98c-1.18,2.96-2.88,5.25-5.05,6.81-2.15,1.55-4.83,2.34-7.97,2.34h0Z"/>
        </g>
        <g>
          <path class="cls-3" d="M1158.28,160.12c-7.67,0-14.39-1.66-19.98-4.94-5.59-3.28-9.97-7.93-13.01-13.83-3.03-5.88-4.56-12.79-4.56-20.54s1.54-14.76,4.56-20.64c3.04-5.89,7.41-10.54,13.01-13.83,5.59-3.28,12.31-4.95,19.98-4.95s14.39,1.66,19.98,4.94c5.6,3.29,9.97,7.94,13.01,13.83,3.03,5.88,4.56,12.82,4.56,20.64s-1.54,14.67-4.56,20.54c-3.04,5.89-7.41,10.54-13.01,13.83-5.59,3.28-12.31,4.94-19.98,4.94Zm.1-61.8c-3.36,0-6.21,.97-8.47,2.87-2.29,1.93-4.04,4.59-5.19,7.92-1.17,3.36-1.76,7.24-1.76,11.55s.59,8.19,1.76,11.55c1.16,3.33,2.9,5.98,5.19,7.89,2.26,1.89,5.11,2.85,8.48,2.85s6.13-.96,8.35-2.85c2.24-1.91,3.96-4.56,5.12-7.89,1.17-3.36,1.76-7.25,1.76-11.55s-.59-8.18-1.76-11.55c-1.16-3.33-2.88-5.99-5.12-7.92-2.22-1.9-5.02-2.87-8.35-2.87Z"/>
          <path class="cls-3" d="M1158.28,81.9c7.61,0,14.19,1.63,19.73,4.88,5.54,3.25,9.81,7.79,12.81,13.62s4.51,12.64,4.51,20.41-1.5,14.48-4.51,20.31c-3.01,5.83-7.28,10.37-12.81,13.62-5.54,3.25-12.11,4.88-19.73,4.88s-14.19-1.62-19.72-4.88c-5.54-3.25-9.81-7.79-12.81-13.62-3.01-5.83-4.51-12.6-4.51-20.31s1.5-14.58,4.51-20.41c3-5.83,7.28-10.37,12.81-13.62,5.54-3.25,12.11-4.88,19.72-4.88m.1,61.55c3.46,0,6.35-.99,8.67-2.96,2.32-1.98,4.08-4.68,5.27-8.11,1.19-3.43,1.79-7.33,1.79-11.71s-.6-8.28-1.79-11.71c-1.19-3.43-2.95-6.14-5.27-8.13-2.32-1.99-5.21-2.99-8.67-2.99s-6.43,1-8.8,2.99c-2.37,1.99-4.15,4.7-5.34,8.13-1.19,3.43-1.79,7.33-1.79,11.71s.6,8.28,1.79,11.71c1.19,3.43,2.97,6.13,5.34,8.11,2.37,1.98,5.3,2.96,8.8,2.96m-.1-62.55c-7.76,0-14.56,1.69-20.23,5.01-5.68,3.34-10.12,8.06-13.2,14.03-3.07,5.95-4.62,12.97-4.62,20.87s1.55,14.83,4.62,20.77c3.08,5.98,7.52,10.69,13.2,14.03,5.67,3.33,12.47,5.01,20.23,5.01s14.57-1.69,20.23-5.01c5.68-3.33,10.12-8.05,13.2-14.03,3.07-5.95,4.62-12.94,4.62-20.77s-1.55-14.92-4.62-20.87c-3.08-5.97-7.52-10.69-13.2-14.03-5.67-3.33-12.48-5.01-20.23-5.01h0Zm.1,61.55c-3.24,0-5.98-.92-8.16-2.73-2.22-1.85-3.91-4.43-5.04-7.67-1.15-3.31-1.73-7.14-1.73-11.38s.58-8.08,1.73-11.38c1.13-3.24,2.82-5.83,5.04-7.7,2.17-1.83,4.92-2.76,8.15-2.76s5.9,.92,8.02,2.75c2.17,1.87,3.85,4.46,4.97,7.7,1.15,3.31,1.73,7.14,1.73,11.38s-.58,8.07-1.73,11.38c-1.13,3.25-2.8,5.83-4.97,7.68-2.12,1.81-4.82,2.73-8.03,2.73h0Z"/>
        </g>
        <g>
          <path class="cls-3" d="M1236.25,159.71c-4.38,0-8.32-.7-11.71-2.08-3.85-1.57-6.89-4.04-9.03-7.35-2.14-3.3-3.2-7.52-3.17-12.53v-38.7h-10.29v-16.68h10.29v-18.03h21.88v18.03h14.16v16.68h-14.16v35.96c0,1.83,.28,3.26,.82,4.24,.54,.97,1.27,1.62,2.22,2.01,1,.4,2.18,.6,3.51,.6,.95,0,1.91-.09,2.85-.26l2.74-.51,3.48,16.46-.43,.14c-1.05,.33-2.55,.72-4.45,1.16-1.92,.45-4.27,.72-7,.82-.58,.02-1.14,.03-1.7,.03Z"/>
          <path class="cls-3" d="M1233.72,64.84v18.03h14.16v15.68h-14.16v36.46c0,1.93,.29,3.42,.88,4.48,.59,1.06,1.41,1.81,2.48,2.23,1.06,.42,2.29,.64,3.7,.64,.98,0,1.96-.09,2.94-.27,.98-.18,1.73-.32,2.25-.42l3.28,15.54c-1.05,.33-2.52,.71-4.41,1.15-1.89,.44-4.2,.71-6.91,.81-.57,.02-1.13,.03-1.68,.03-4.34,0-8.18-.68-11.52-2.04-3.77-1.54-6.71-3.92-8.8-7.15s-3.12-7.32-3.09-12.25v-39.2h-10.29v-15.68h10.29v-18.03h20.88m1-1h-22.88v18.03h-10.29v17.68h10.29v38.2c-.03,5.1,1.06,9.41,3.25,12.79,2.19,3.39,5.31,5.93,9.26,7.54,3.45,1.4,7.46,2.12,11.9,2.12,.56,0,1.14-.01,1.72-.03,2.76-.1,5.15-.38,7.1-.83,1.91-.45,3.42-.84,4.48-1.17l.87-.27-.19-.89-3.28-15.54-.2-.96-.96,.18c-.52,.1-1.27,.24-2.25,.42-.91,.17-1.84,.25-2.76,.25-1.27,0-2.39-.19-3.33-.57-.85-.34-1.49-.92-1.97-1.79-.5-.91-.76-2.25-.76-4v-35.46h14.16v-17.68h-14.16v-18.03h0Z"/>
        </g>
      </g>
    </g>
    <g>
      <g>
        <path class="cls-7" d="M1349.37,86.19c-4.64-2.86-9.7-4.29-15.19-4.29-4.21,0-7.74,.71-10.56,2.13-2.83,1.42-5.11,3.19-6.86,5.29s-3.08,4.17-3.99,6.2h-.93v-12.64h-20.58v103.5h20.88v-40.28h.64c.95,2.09,2.32,4.16,4.12,6.2,1.8,2.04,4.11,3.73,6.93,5.07s6.26,2.01,10.32,2.01c5.72,0,10.89-1.48,15.51-4.44,4.62-2.96,8.28-7.32,10.98-13.08s4.04-12.85,4.04-21.24-1.39-15.8-4.17-21.54c-2.78-5.73-6.49-10.03-11.12-12.89Zm-7.87,45.92c-1.22,3.35-3.01,5.96-5.37,7.84-2.35,1.88-5.23,2.82-8.62,2.82s-6.22-.92-8.58-2.77c-2.35-1.85-4.15-4.44-5.39-7.77-1.24-3.33-1.86-7.24-1.86-11.71s.62-8.36,1.86-11.66c1.24-3.3,3.03-5.85,5.37-7.64s5.2-2.7,8.6-2.7,6.32,.93,8.67,2.79c2.35,1.86,4.13,4.44,5.34,7.74s1.81,7.12,1.81,11.47-.61,8.24-1.84,11.59Z"/>
        <rect class="cls-7" x="1377.42" y="57.79" width="20.88" height="100.36"/>
        <path class="cls-7" d="M1462.13,126.1c.03,3.37-.63,6.19-1.98,8.48-1.36,2.29-3.13,4.01-5.32,5.17-2.19,1.16-4.54,1.74-7.06,1.74-3.95,0-7.11-1.29-9.46-3.87s-3.54-6.09-3.58-10.54v-44.2h-20.88v47.93c.03,5.88,1.12,10.93,3.26,15.14,2.14,4.21,5.12,7.47,8.94,9.75,3.82,2.29,8.25,3.43,13.28,3.43,5.65,0,10.45-1.34,14.38-4.02,3.94-2.68,6.75-6.22,8.45-10.63h.78v13.67h20.04V82.88h-20.88v43.22Z"/>
        <path class="cls-7" d="M1548.55,95.52h-.78c-.95-2.03-2.3-4.09-4.04-6.2-1.75-2.11-4.04-3.87-6.89-5.29-2.84-1.42-6.37-2.13-10.58-2.13-5.52,0-10.59,1.42-15.22,4.26-4.62,2.84-8.32,7.12-11.1,12.84-2.78,5.72-4.17,12.84-4.17,21.37s1.36,15.22,4.09,20.66c2.73,5.44,6.4,9.48,11.03,12.1,4.62,2.63,9.76,3.95,15.41,3.95,3.99,0,7.42-.59,10.29-1.76,2.88-1.18,5.23-2.7,7.06-4.56,1.83-1.86,3.2-3.84,4.12-5.93h.88v13.77c0,5.16-1.48,8.84-4.43,11.05-2.96,2.21-6.71,3.31-11.25,3.31-3.04,0-5.61-.4-7.72-1.2s-3.8-1.85-5.07-3.16c-1.27-1.31-2.21-2.71-2.79-4.21l-19.31,2.6c.85,3.95,2.7,7.51,5.54,10.68,2.84,3.17,6.67,5.68,11.49,7.52,4.82,1.85,10.61,2.77,17.37,2.77,7.19,0,13.55-1.09,19.09-3.26,5.54-2.17,9.87-5.42,13.01-9.73s4.71-9.67,4.71-16.07V82.88h-20.73v12.64Zm-1.69,36.09c-1.26,3.15-3.05,5.57-5.39,7.25-2.34,1.68-5.19,2.52-8.55,2.52s-6.31-.86-8.65-2.57c-2.34-1.71-4.12-4.15-5.34-7.3-1.23-3.15-1.84-6.9-1.84-11.25s.6-8.05,1.81-11.32c1.21-3.27,2.99-5.82,5.34-7.67,2.35-1.84,5.24-2.77,8.67-2.77s6.22,.9,8.58,2.7c2.35,1.8,4.15,4.32,5.39,7.57,1.24,3.25,1.86,7.08,1.86,11.49s-.63,8.19-1.89,11.35Z"/>
        <path class="cls-7" d="M1595.32,52.05c-3.07,0-5.72,1.04-7.94,3.11-2.22,2.08-3.33,4.57-3.33,7.47s1.1,5.39,3.31,7.45c2.21,2.06,4.86,3.09,7.96,3.09s5.76-1.04,7.96-3.11c2.21-2.07,3.31-4.56,3.31-7.47s-1.1-5.39-3.31-7.45c-2.21-2.06-4.86-3.09-7.96-3.09Z"/>
        <rect class="cls-7" x="1584.83" y="82.88" width="20.88" height="75.27"/>
        <path class="cls-7" d="M1687.42,95.1c-2.16-4.23-5.18-7.49-9.07-9.78-3.89-2.29-8.45-3.43-13.67-3.43-5.59,0-10.34,1.28-14.26,3.85-3.92,2.56-6.71,6.04-8.38,10.41h-.88v-13.28h-19.9v75.27h20.88v-43.52c.03-3.23,.64-6,1.84-8.31,1.19-2.3,2.86-4.06,5-5.27,2.14-1.21,4.61-1.81,7.42-1.81,4.18,0,7.46,1.3,9.85,3.9,2.38,2.6,3.56,6.2,3.53,10.81v44.2h20.88v-47.93c0-5.85-1.08-10.89-3.23-15.12Z"/>
      </g>
      <g>
        <path class="cls-22" d="M1349.37,86.19c-4.64-2.86-9.7-4.29-15.19-4.29-4.21,0-7.74,.71-10.56,2.13-2.83,1.42-5.11,3.19-6.86,5.29s-3.08,4.17-3.99,6.2h-.93v-12.64h-20.58v103.5h20.88v-40.28h.64c.95,2.09,2.32,4.16,4.12,6.2,1.8,2.04,4.11,3.73,6.93,5.07s6.26,2.01,10.32,2.01c5.72,0,10.89-1.48,15.51-4.44,4.62-2.96,8.28-7.32,10.98-13.08s4.04-12.85,4.04-21.24-1.39-15.8-4.17-21.54c-2.78-5.73-6.49-10.03-11.12-12.89Zm-7.87,45.92c-1.22,3.35-3.01,5.96-5.37,7.84-2.35,1.88-5.23,2.82-8.62,2.82s-6.22-.92-8.58-2.77c-2.35-1.85-4.15-4.44-5.39-7.77-1.24-3.33-1.86-7.24-1.86-11.71s.62-8.36,1.86-11.66c1.24-3.3,3.03-5.85,5.37-7.64s5.2-2.7,8.6-2.7,6.32,.93,8.67,2.79c2.35,1.86,4.13,4.44,5.34,7.74s1.81,7.12,1.81,11.47-.61,8.24-1.84,11.59Z"/>
        <rect class="cls-22" x="1377.42" y="57.79" width="20.88" height="100.36"/>
        <path class="cls-22" d="M1462.13,126.1c.03,3.37-.63,6.19-1.98,8.48-1.36,2.29-3.13,4.01-5.32,5.17-2.19,1.16-4.54,1.74-7.06,1.74-3.95,0-7.11-1.29-9.46-3.87s-3.54-6.09-3.58-10.54v-44.2h-20.88v47.93c.03,5.88,1.12,10.93,3.26,15.14,2.14,4.21,5.12,7.47,8.94,9.75,3.82,2.29,8.25,3.43,13.28,3.43,5.65,0,10.45-1.34,14.38-4.02,3.94-2.68,6.75-6.22,8.45-10.63h.78v13.67h20.04V82.88h-20.88v43.22Z"/>
        <path class="cls-22" d="M1548.55,95.52h-.78c-.95-2.03-2.3-4.09-4.04-6.2-1.75-2.11-4.04-3.87-6.89-5.29-2.84-1.42-6.37-2.13-10.58-2.13-5.52,0-10.59,1.42-15.22,4.26-4.62,2.84-8.32,7.12-11.1,12.84-2.78,5.72-4.17,12.84-4.17,21.37s1.36,15.22,4.09,20.66c2.73,5.44,6.4,9.48,11.03,12.1,4.62,2.63,9.76,3.95,15.41,3.95,3.99,0,7.42-.59,10.29-1.76,2.88-1.18,5.23-2.7,7.06-4.56,1.83-1.86,3.2-3.84,4.12-5.93h.88v13.77c0,5.16-1.48,8.84-4.43,11.05-2.96,2.21-6.71,3.31-11.25,3.31-3.04,0-5.61-.4-7.72-1.2s-3.8-1.85-5.07-3.16c-1.27-1.31-2.21-2.71-2.79-4.21l-19.31,2.6c.85,3.95,2.7,7.51,5.54,10.68,2.84,3.17,6.67,5.68,11.49,7.52,4.82,1.85,10.61,2.77,17.37,2.77,7.19,0,13.55-1.09,19.09-3.26,5.54-2.17,9.87-5.42,13.01-9.73s4.71-9.67,4.71-16.07V82.88h-20.73v12.64Zm-1.69,36.09c-1.26,3.15-3.05,5.57-5.39,7.25-2.34,1.68-5.19,2.52-8.55,2.52s-6.31-.86-8.65-2.57c-2.34-1.71-4.12-4.15-5.34-7.3-1.23-3.15-1.84-6.9-1.84-11.25s.6-8.05,1.81-11.32c1.21-3.27,2.99-5.82,5.34-7.67,2.35-1.84,5.24-2.77,8.67-2.77s6.22,.9,8.58,2.7c2.35,1.8,4.15,4.32,5.39,7.57,1.24,3.25,1.86,7.08,1.86,11.49s-.63,8.19-1.89,11.35Z"/>
        <path class="cls-22" d="M1595.32,52.05c-3.07,0-5.72,1.04-7.94,3.11-2.22,2.08-3.33,4.57-3.33,7.47s1.1,5.39,3.31,7.45c2.21,2.06,4.86,3.09,7.96,3.09s5.76-1.04,7.96-3.11c2.21-2.07,3.31-4.56,3.31-7.47s-1.1-5.39-3.31-7.45c-2.21-2.06-4.86-3.09-7.96-3.09Z"/>
        <rect class="cls-22" x="1584.83" y="82.88" width="20.88" height="75.27"/>
        <path class="cls-22" d="M1687.42,95.1c-2.16-4.23-5.18-7.49-9.07-9.78-3.89-2.29-8.45-3.43-13.67-3.43-5.59,0-10.34,1.28-14.26,3.85-3.92,2.56-6.71,6.04-8.38,10.41h-.88v-13.28h-19.9v75.27h20.88v-43.52c.03-3.23,.64-6,1.84-8.31,1.19-2.3,2.86-4.06,5-5.27,2.14-1.21,4.61-1.81,7.42-1.81,4.18,0,7.46,1.3,9.85,3.9,2.38,2.6,3.56,6.2,3.53,10.81v44.2h20.88v-47.93c0-5.85-1.08-10.89-3.23-15.12Z"/>
      </g>
    </g>
    <g>
      <g>
        <path class="cls-7" d="M1349.37,86.19c-4.64-2.86-9.7-4.29-15.19-4.29-4.21,0-7.74,.71-10.56,2.13-2.83,1.42-5.11,3.19-6.86,5.29s-3.08,4.17-3.99,6.2h-.93v-12.64h-20.58v103.5h20.88v-40.28h.64c.95,2.09,2.32,4.16,4.12,6.2,1.8,2.04,4.11,3.73,6.93,5.07s6.26,2.01,10.32,2.01c5.72,0,10.89-1.48,15.51-4.44,4.62-2.96,8.28-7.32,10.98-13.08s4.04-12.85,4.04-21.24-1.39-15.8-4.17-21.54c-2.78-5.73-6.49-10.03-11.12-12.89Zm-7.87,45.92c-1.22,3.35-3.01,5.96-5.37,7.84-2.35,1.88-5.23,2.82-8.62,2.82s-6.22-.92-8.58-2.77c-2.35-1.85-4.15-4.44-5.39-7.77-1.24-3.33-1.86-7.24-1.86-11.71s.62-8.36,1.86-11.66c1.24-3.3,3.03-5.85,5.37-7.64s5.2-2.7,8.6-2.7,6.32,.93,8.67,2.79c2.35,1.86,4.13,4.44,5.34,7.74s1.81,7.12,1.81,11.47-.61,8.24-1.84,11.59Z"/>
        <rect class="cls-7" x="1377.42" y="57.79" width="20.88" height="100.36"/>
        <path class="cls-7" d="M1462.13,126.1c.03,3.37-.63,6.19-1.98,8.48-1.36,2.29-3.13,4.01-5.32,5.17-2.19,1.16-4.54,1.74-7.06,1.74-3.95,0-7.11-1.29-9.46-3.87s-3.54-6.09-3.58-10.54v-44.2h-20.88v47.93c.03,5.88,1.12,10.93,3.26,15.14,2.14,4.21,5.12,7.47,8.94,9.75,3.82,2.29,8.25,3.43,13.28,3.43,5.65,0,10.45-1.34,14.38-4.02,3.94-2.68,6.75-6.22,8.45-10.63h.78v13.67h20.04V82.88h-20.88v43.22Z"/>
        <path class="cls-7" d="M1548.55,95.52h-.78c-.95-2.03-2.3-4.09-4.04-6.2-1.75-2.11-4.04-3.87-6.89-5.29-2.84-1.42-6.37-2.13-10.58-2.13-5.52,0-10.59,1.42-15.22,4.26-4.62,2.84-8.32,7.12-11.1,12.84-2.78,5.72-4.17,12.84-4.17,21.37s1.36,15.22,4.09,20.66c2.73,5.44,6.4,9.48,11.03,12.1,4.62,2.63,9.76,3.95,15.41,3.95,3.99,0,7.42-.59,10.29-1.76,2.88-1.18,5.23-2.7,7.06-4.56,1.83-1.86,3.2-3.84,4.12-5.93h.88v13.77c0,5.16-1.48,8.84-4.43,11.05-2.96,2.21-6.71,3.31-11.25,3.31-3.04,0-5.61-.4-7.72-1.2s-3.8-1.85-5.07-3.16c-1.27-1.31-2.21-2.71-2.79-4.21l-19.31,2.6c.85,3.95,2.7,7.51,5.54,10.68,2.84,3.17,6.67,5.68,11.49,7.52,4.82,1.85,10.61,2.77,17.37,2.77,7.19,0,13.55-1.09,19.09-3.26,5.54-2.17,9.87-5.42,13.01-9.73s4.71-9.67,4.71-16.07V82.88h-20.73v12.64Zm-1.69,36.09c-1.26,3.15-3.05,5.57-5.39,7.25-2.34,1.68-5.19,2.52-8.55,2.52s-6.31-.86-8.65-2.57c-2.34-1.71-4.12-4.15-5.34-7.3-1.23-3.15-1.84-6.9-1.84-11.25s.6-8.05,1.81-11.32c1.21-3.27,2.99-5.82,5.34-7.67,2.35-1.84,5.24-2.77,8.67-2.77s6.22,.9,8.58,2.7c2.35,1.8,4.15,4.32,5.39,7.57,1.24,3.25,1.86,7.08,1.86,11.49s-.63,8.19-1.89,11.35Z"/>
        <path class="cls-7" d="M1595.32,52.05c-3.07,0-5.72,1.04-7.94,3.11-2.22,2.08-3.33,4.57-3.33,7.47s1.1,5.39,3.31,7.45c2.21,2.06,4.86,3.09,7.96,3.09s5.76-1.04,7.96-3.11c2.21-2.07,3.31-4.56,3.31-7.47s-1.1-5.39-3.31-7.45c-2.21-2.06-4.86-3.09-7.96-3.09Z"/>
        <rect class="cls-7" x="1584.83" y="82.88" width="20.88" height="75.27"/>
        <path class="cls-7" d="M1687.42,95.1c-2.16-4.23-5.18-7.49-9.07-9.78-3.89-2.29-8.45-3.43-13.67-3.43-5.59,0-10.34,1.28-14.26,3.85-3.92,2.56-6.71,6.04-8.38,10.41h-.88v-13.28h-19.9v75.27h20.88v-43.52c.03-3.23,.64-6,1.84-8.31,1.19-2.3,2.86-4.06,5-5.27,2.14-1.21,4.61-1.81,7.42-1.81,4.18,0,7.46,1.3,9.85,3.9,2.38,2.6,3.56,6.2,3.53,10.81v44.2h20.88v-47.93c0-5.85-1.08-10.89-3.23-15.12Z"/>
      </g>
      <g>
        <path class="cls-21" d="M1349.37,86.19c-4.64-2.86-9.7-4.29-15.19-4.29-4.21,0-7.74,.71-10.56,2.13-2.83,1.42-5.11,3.19-6.86,5.29s-3.08,4.17-3.99,6.2h-.93v-12.64h-20.58v103.5h20.88v-40.28h.64c.95,2.09,2.32,4.16,4.12,6.2,1.8,2.04,4.11,3.73,6.93,5.07s6.26,2.01,10.32,2.01c5.72,0,10.89-1.48,15.51-4.44,4.62-2.96,8.28-7.32,10.98-13.08s4.04-12.85,4.04-21.24-1.39-15.8-4.17-21.54c-2.78-5.73-6.49-10.03-11.12-12.89Zm-7.87,45.92c-1.22,3.35-3.01,5.96-5.37,7.84-2.35,1.88-5.23,2.82-8.62,2.82s-6.22-.92-8.58-2.77c-2.35-1.85-4.15-4.44-5.39-7.77-1.24-3.33-1.86-7.24-1.86-11.71s.62-8.36,1.86-11.66c1.24-3.3,3.03-5.85,5.37-7.64s5.2-2.7,8.6-2.7,6.32,.93,8.67,2.79c2.35,1.86,4.13,4.44,5.34,7.74s1.81,7.12,1.81,11.47-.61,8.24-1.84,11.59Z"/>
        <rect class="cls-21" x="1377.42" y="57.79" width="20.88" height="100.36"/>
        <path class="cls-21" d="M1462.13,126.1c.03,3.37-.63,6.19-1.98,8.48-1.36,2.29-3.13,4.01-5.32,5.17-2.19,1.16-4.54,1.74-7.06,1.74-3.95,0-7.11-1.29-9.46-3.87s-3.54-6.09-3.58-10.54v-44.2h-20.88v47.93c.03,5.88,1.12,10.93,3.26,15.14,2.14,4.21,5.12,7.47,8.94,9.75,3.82,2.29,8.25,3.43,13.28,3.43,5.65,0,10.45-1.34,14.38-4.02,3.94-2.68,6.75-6.22,8.45-10.63h.78v13.67h20.04V82.88h-20.88v43.22Z"/>
        <path class="cls-21" d="M1548.55,95.52h-.78c-.95-2.03-2.3-4.09-4.04-6.2-1.75-2.11-4.04-3.87-6.89-5.29-2.84-1.42-6.37-2.13-10.58-2.13-5.52,0-10.59,1.42-15.22,4.26-4.62,2.84-8.32,7.12-11.1,12.84-2.78,5.72-4.17,12.84-4.17,21.37s1.36,15.22,4.09,20.66c2.73,5.44,6.4,9.48,11.03,12.1,4.62,2.63,9.76,3.95,15.41,3.95,3.99,0,7.42-.59,10.29-1.76,2.88-1.18,5.23-2.7,7.06-4.56,1.83-1.86,3.2-3.84,4.12-5.93h.88v13.77c0,5.16-1.48,8.84-4.43,11.05-2.96,2.21-6.71,3.31-11.25,3.31-3.04,0-5.61-.4-7.72-1.2s-3.8-1.85-5.07-3.16c-1.27-1.31-2.21-2.71-2.79-4.21l-19.31,2.6c.85,3.95,2.7,7.51,5.54,10.68,2.84,3.17,6.67,5.68,11.49,7.52,4.82,1.85,10.61,2.77,17.37,2.77,7.19,0,13.55-1.09,19.09-3.26,5.54-2.17,9.87-5.42,13.01-9.73s4.71-9.67,4.71-16.07V82.88h-20.73v12.64Zm-1.69,36.09c-1.26,3.15-3.05,5.57-5.39,7.25-2.34,1.68-5.19,2.52-8.55,2.52s-6.31-.86-8.65-2.57c-2.34-1.71-4.12-4.15-5.34-7.3-1.23-3.15-1.84-6.9-1.84-11.25s.6-8.05,1.81-11.32c1.21-3.27,2.99-5.82,5.34-7.67,2.35-1.84,5.24-2.77,8.67-2.77s6.22,.9,8.58,2.7c2.35,1.8,4.15,4.32,5.39,7.57,1.24,3.25,1.86,7.08,1.86,11.49s-.63,8.19-1.89,11.35Z"/>
        <path class="cls-21" d="M1595.32,52.05c-3.07,0-5.72,1.04-7.94,3.11-2.22,2.08-3.33,4.57-3.33,7.47s1.1,5.39,3.31,7.45c2.21,2.06,4.86,3.09,7.96,3.09s5.76-1.04,7.96-3.11c2.21-2.07,3.31-4.56,3.31-7.47s-1.1-5.39-3.31-7.45c-2.21-2.06-4.86-3.09-7.96-3.09Z"/>
        <rect class="cls-21" x="1584.83" y="82.88" width="20.88" height="75.27"/>
        <path class="cls-21" d="M1687.42,95.1c-2.16-4.23-5.18-7.49-9.07-9.78-3.89-2.29-8.45-3.43-13.67-3.43-5.59,0-10.34,1.28-14.26,3.85-3.92,2.56-6.71,6.04-8.38,10.41h-.88v-13.28h-19.9v75.27h20.88v-43.52c.03-3.23,.64-6,1.84-8.31,1.19-2.3,2.86-4.06,5-5.27,2.14-1.21,4.61-1.81,7.42-1.81,4.18,0,7.46,1.3,9.85,3.9,2.38,2.6,3.56,6.2,3.53,10.81v44.2h20.88v-47.93c0-5.85-1.08-10.89-3.23-15.12Z"/>
      </g>
    </g>
  </g>
</svg>