<?xml version="1.0" encoding="utf-8"?>
<!-- Generator: Adobe Illustrator 27.0.0, SVG Export Plug-In . SVG Version: 6.00 Build 0)  -->
<svg version="1.1" id="Warstwa_1" xmlns="http://www.w3.org/2000/svg" xmlns:xlink="http://www.w3.org/1999/xlink" x="0px" y="0px"
	 viewBox="0 0 61 40" style="enable-background:new 0 0 61 40;" xml:space="preserve">
<style type="text/css">
	.st0{fill:#FFC81A;}
</style>
<path class="st0" d="M28.2,26.1c-0.4,2.4-1.3,4.4-2.9,6c-1.5,1.6-3.4,2.8-5.5,3.4c-3.3,0.9-6.6,0.9-9.9,0c-3.3-1-5.9-2.9-7.4-6
	C-0.4,23.8-0.9,17.8,1.8,12c3.4-7.2,10.7-9.5,17.3-7.5c3.6,1.1,6.1,3.7,7.7,7.1c1.4,2.9,1.8,5.9,1.9,9.1c0,0.6-0.3,0.6-0.8,0.6
	c-7.1,0-14.2,0-21.4,0c-0.3,0-0.6,0-1,0c0.1,0.9,0.1,1.6,0.2,2.4c0.6,4.7,4,7.8,8.7,8c2.3,0.1,4.5-0.3,6.4-1.8
	c1-0.8,1.8-1.9,2.1-3.2c0.1-0.5,0.4-0.6,0.8-0.6C25.2,26.1,26.6,26.1,28.2,26.1z M23.1,17C23,12.5,19.4,8.2,14,8.4
	C9.3,8.6,5.1,12.8,5.6,17C11.4,17,17.3,17,23.1,17z"/>
<path class="st0" d="M61,36.2c-0.4,0-0.6,0-0.9,0c-1.7,0-3.5,0-5.2,0c-0.6,0-0.9-0.2-1.2-0.7c-2.6-4-5.3-7.9-8-11.9
	c-0.1-0.2-0.3-0.4-0.5-0.7c-0.2,0.3-0.3,0.5-0.5,0.7c-2.7,4-5.4,7.9-8,11.9c-0.3,0.5-0.7,0.7-1.3,0.7c-1.8,0-3.7,0-5.7,0
	c0.2-0.3,0.3-0.6,0.5-0.8C34,30.2,37.7,25,41.4,19.8c0.3-0.5,0.4-0.8,0-1.3c-3.4-4.6-6.9-9.3-10.3-14c-0.1-0.2-0.3-0.4-0.5-0.7
	c0.4,0,0.6,0,0.9,0c1.7,0,3.5,0,5.2,0c0.6,0,0.9,0.2,1.2,0.6c2.2,3.3,4.5,6.6,6.8,9.9c0.1,0.2,0.3,0.4,0.5,0.7
	c0.2-0.3,0.3-0.4,0.5-0.6c2.4-3.3,4.8-6.7,7.1-10c0.3-0.4,0.6-0.6,1.1-0.6c1.6,0,3.3,0,4.9,0c0.2,0,0.4,0,0.8,0
	c-0.2,0.3-0.3,0.5-0.5,0.7c-3.4,4.5-6.8,9-10.2,13.6c-0.3,0.4-0.3,0.7,0,1.1c3.8,5.3,7.6,10.6,11.4,15.9
	C60.6,35.5,60.7,35.8,61,36.2z"/>
</svg>
