<?xml version="1.0" encoding="utf-8"?>
<!-- Generator: Adobe Illustrator 27.0.0, SVG Export Plug-In . SVG Version: 6.00 Build 0)  -->
<svg version="1.1" id="Warstwa_1" xmlns="http://www.w3.org/2000/svg" xmlns:xlink="http://www.w3.org/1999/xlink" x="0px" y="0px"
	 viewBox="0 0 61 40" style="enable-background:new 0 0 61 40;" xml:space="preserve">
<style type="text/css">
	.st0{fill:#00DC82;}
</style>
<path class="st0" d="M34,39.5h22.5c0.7,0,1.4-0.2,2-0.5c0.6-0.3,1.1-0.8,1.5-1.4c0.4-0.6,0.5-1.3,0.5-2c0-0.7-0.2-1.4-0.5-2
	L44.9,8.2c-0.4-0.6-0.9-1.1-1.5-1.4s-1.3-0.5-2-0.5s-1.4,0.2-2,0.5c-0.6,0.3-1.1,0.8-1.5,1.4L34,14.7L26.4,2
	c-0.4-0.6-0.9-1.1-1.5-1.4c-0.6-0.3-1.3-0.5-2-0.5s-1.4,0.2-2,0.5c-0.6,0.3-1.1,0.8-1.5,1.4L0.5,33.6c-0.4,0.6-0.5,1.3-0.5,2
	c0,0.7,0.2,1.4,0.5,2C0.9,38.2,1.4,38.7,2,39c0.6,0.3,1.3,0.5,2,0.5h14.1c5.6,0,9.7-2.4,12.6-7l6.9-11.6l3.7-6.2l11.1,18.6H37.7
	L34,39.5z M18,33.3l-9.9,0L22.9,8.5l7.4,12.4l-4.9,8.3C23.5,32.2,21.3,33.3,18,33.3z"/>
</svg>
